{
copyright = "Copyright (c) 2015, Cadson Demak (info@cadsondemak.com)";
customParameters = (
{
name = vendorID;
value = CDK;
},
{
name = description;
value = "Copyright (c) 2015, Cadson Demak (info@cadsondemak.com)";
},
{
name = license;

glyphs = (
{
glyphname = A;
lastChange = "2015-12-01 13:46:18 +0000";
layers = (
{
layerId = "9C69E37B-FF92-47DE-801E-679C7E50BD15";
name = Bold;
paths = (
{
closed = 1;
nodes = (
"269 0 LINE",
"269 48 LINE",
"245 48 LINE SMOOTH",
"225 48 OFFCURVE",
"195 60 OFFCURVE",
"210 99 CURVE SMOOTH",
"366 509 LINE",
"518 91 LINE SMOOTH",
"528 62 OFFCURVE",
"516 48 OFFCURVE",
"486 48 CURVE SMOOTH",
"462 48 LINE",
"462 0 LINE",
"823 0 LINE",
"823 48 LINE",
"799 48 LINE SMOOTH",
"779 48 OFFCURVE",
"760 56 OFFCURVE",
"748 84 CURVE SMOOTH",
"482 728 LINE",
"327 676 LINE",
"89 87 LINE SMOOTH",
"78 59 OFFCURVE",
"47 48 OFFCURVE",
"21 48 CURVE SMOOTH",
"4 48 LINE",
"4 0 LINE"
);
},
{
closed = 1;
nodes = (
"549 174 LINE",
"549 242 LINE",
"205 242 LINE",
"205 174 LINE"
);
}
);
width = 827;
}
);
leftKerningGroup = A;
note = A;
rightKerningGroup = A;
unicode = 0041;
},
{
glyphname = Aacute;
lastChange = "2015-12-01 13:46:18 +0000";
layers = (
{
layerId = "9C69E37B-FF92-47DE-801E-679C7E50BD15";
name = Bold;
paths = (
{
closed = 1;
nodes = (
"269 0 LINE",
"269 48 LINE",
"245 48 LINE SMOOTH",
"225 48 OFFCURVE",
"195 60 OFFCURVE",
"210 99 CURVE SMOOTH",
"366 509 LINE",
"518 91 LINE SMOOTH",
"528 62 OFFCURVE",
"516 48 OFFCURVE",
"486 48 CURVE SMOOTH",
"462 48 LINE",
"462 0 LINE",
"823 0 LINE",
"823 48 LINE",
"799 48 LINE SMOOTH",
"779 48 OFFCURVE",
"760 56 OFFCURVE",
"748 84 CURVE SMOOTH",
"482 728 LINE",
"327 676 LINE",
"89 87 LINE SMOOTH",
"78 59 OFFCURVE",
"47 48 OFFCURVE",
"21 48 CURVE SMOOTH",
"4 48 LINE",
"4 0 LINE"
);
},
{
closed = 1;
nodes = (
"549 174 LINE",
"549 242 LINE",
"205 242 LINE",
"205 174 LINE"
);
},
{
closed = 1;
nodes = (
"491 874 LINE SMOOTH",
"530 897 OFFCURVE",
"553 920 OFFCURVE",
"553 950 CURVE SMOOTH",
"553 974 OFFCURVE",
"535 1005 OFFCURVE",
"488 1005 CURVE SMOOTH",
"447 1005 OFFCURVE",
"416 969 OFFCURVE",
"410 962 CURVE SMOOTH",
"283 823 LINE",
"319 773 LINE"
);
}
);
width = 827;
}
);
leftKerningGroup = A;
note = Aacute;
rightKerningGroup = A;
unicode = 00C1;
},
{
glyphname = Abreve;
lastChange = "2015-12-01 13:46:17 +0000";
layers = (
{
layerId = "9C69E37B-FF92-47DE-801E-679C7E50BD15";
name = Bold;
paths = (
{
closed = 1;
nodes = (
"269 0 LINE",
"269 48 LINE",
"245 48 LINE SMOOTH",
"225 48 OFFCURVE",
"195 60 OFFCURVE",
"210 99 CURVE SMOOTH",
"366 509 LINE",
"518 91 LINE SMOOTH",
"528 62 OFFCURVE",
"516 48 OFFCURVE",
"486 48 CURVE SMOOTH",
"462 48 LINE",
"462 0 LINE",
"823 0 LINE",
"823 48 LINE",
"799 48 LINE SMOOTH",
"779 48 OFFCURVE",
"760 56 OFFCURVE",
"748 84 CURVE SMOOTH",
"482 728 LINE",
"327 676 LINE",
"89 87 LINE SMOOTH",
"78 59 OFFCURVE",
"47 48 OFFCURVE",
"21 48 CURVE SMOOTH",
"4 48 LINE",
"4 0 LINE"
);
},
{
closed = 1;
nodes = (
"549 174 LINE",
"549 242 LINE",
"205 242 LINE",
"205 174 LINE"
);
},
{
closed = 1;
nodes = (
"564 777 OFFCURVE",
"589 867 OFFCURVE",
"589 937 CURVE",
"543 937 LINE",
"541 913 OFFCURVE",
"521 860 OFFCURVE",
"415 860 CURVE SMOOTH",
"309 860 OFFCURVE",
"289 913 OFFCURVE",
"287 937 CURVE",
"242 937 LINE",
"242 861 OFFCURVE",
"267 777 OFFCURVE",
"416 777 CURVE SMOOTH"
);
}
);
width = 827;
}
);
leftKerningGroup = A;
note = Abreve;
rightKerningGroup = A;
unicode = 0102;
},
{
glyphname = Abreveacute;
lastChange = "2015-12-01 13:46:16 +0000";
layers = (
{
layerId = "9C69E37B-FF92-47DE-801E-679C7E50BD15";
name = Bold;
paths = (
{
closed = 1;
nodes = (
"269 0 LINE",
"269 48 LINE",
"245 48 LINE SMOOTH",
"225 48 OFFCURVE",
"195 60 OFFCURVE",
"210 99 CURVE SMOOTH",
"366 509 LINE",
"518 91 LINE SMOOTH",
"528 62 OFFCURVE",
"516 48 OFFCURVE",
"486 48 CURVE SMOOTH",
"462 48 LINE",
"462 0 LINE",
"823 0 LINE",
"823 48 LINE",
"799 48 LINE SMOOTH",
"779 48 OFFCURVE",
"760 56 OFFCURVE",
"748 84 CURVE SMOOTH",
"482 728 LINE",
"327 676 LINE",
"89 87 LINE SMOOTH",
"78 59 OFFCURVE",
"47 48 OFFCURVE",
"21 48 CURVE SMOOTH",
"4 48 LINE",
"4 0 LINE"
);
},
{
closed = 1;
nodes = (
"549 174 LINE",
"549 242 LINE",
"205 242 LINE",
"205 174 LINE"
);
},
{
closed = 1;
nodes = (
"563 775 OFFCURVE",
"588 865 OFFCURVE",
"588 935 CURVE",
"542 935 LINE",
"540 911 OFFCURVE",
"520 858 OFFCURVE",
"414 858 CURVE SMOOTH",
"308 858 OFFCURVE",
"288 911 OFFCURVE",
"286 935 CURVE",
"241 935 LINE",
"241 859 OFFCURVE",
"266 775 OFFCURVE",
"415 775 CURVE SMOOTH"
);
},
{
closed = 1;
nodes = (
"513 979 LINE SMOOTH",
"555 999 OFFCURVE",
"582 1026 OFFCURVE",
"582 1056 CURVE SMOOTH",
"582 1079 OFFCURVE",
"565 1115 OFFCURVE",
"518 1115 CURVE SMOOTH",
"481 1115 OFFCURVE",
"454 1084 OFFCURVE",
"439 1065 CURVE SMOOTH",
"361 965 LINE",
"394 922 LINE"
);
}
);
width = 827;
}
);
leftKerningGroup = A;
note = Abreveacute;
rightKerningGroup = A;
unicode = 1EAE;
},
{
glyphname = Abrevedotbelow;
lastChange = "2015-12-01 13:46:17 +0000";
layers = (
{
layerId = "9C69E37B-FF92-47DE-801E-679C7E50BD15";
name = Bold;
paths = (
{
closed = 1;
nodes = (
"269 0 LINE",
"269 48 LINE",
"245 48 LINE SMOOTH",
"225 48 OFFCURVE",
"195 60 OFFCURVE",
"210 99 CURVE SMOOTH",
"366 509 LINE",
"518 91 LINE SMOOTH",
"528 62 OFFCURVE",
"516 48 OFFCURVE",
"486 48 CURVE SMOOTH",
"462 48 LINE",
"462 0 LINE",
"823 0 LINE",
"823 48 LINE",
"799 48 LINE SMOOTH",
"779 48 OFFCURVE",
"760 56 OFFCURVE",
"748 84 CURVE SMOOTH",
"482 728 LINE",
"327 676 LINE",
"89 87 LINE SMOOTH",
"78 59 OFFCURVE",
"47 48 OFFCURVE",
"21 48 CURVE SMOOTH",
"4 48 LINE",
"4 0 LINE"
);
},
{
closed = 1;
nodes = (
"459 -216 OFFCURVE",
"488 -183 OFFCURVE",
"488 -141 CURVE SMOOTH",
"488 -99 OFFCURVE",
"459 -64 OFFCURVE",
"412 -64 CURVE SMOOTH",
"365 -64 OFFCURVE",
"336 -99 OFFCURVE",
"336 -141 CURVE SMOOTH",
"336 -183 OFFCURVE",
"365 -216 OFFCURVE",
"412 -216 CURVE SMOOTH"
);
},
{
closed = 1;
nodes = (
"549 174 LINE",
"549 242 LINE",
"205 242 LINE",
"205 174 LINE"
);
},
{
closed = 1;
nodes = (
"563 775 OFFCURVE",
"588 865 OFFCURVE",
"588 935 CURVE",
"542 935 LINE",
"540 911 OFFCURVE",
"520 858 OFFCURVE",
"414 858 CURVE SMOOTH",
"308 858 OFFCURVE",
"288 911 OFFCURVE",
"286 935 CURVE",
"241 935 LINE",
"241 859 OFFCURVE",
"266 775 OFFCURVE",
"415 775 CURVE SMOOTH"
);
}
);
width = 827;
}
);
leftKerningGroup = A;
note = Abrevedotbelow;
rightKerningGroup = A;
unicode = 1EB6;
},
{
glyphname = Abrevegrave;
lastChange = "2015-12-01 13:46:16 +0000";
layers = (
{
layerId = "9C69E37B-FF92-47DE-801E-679C7E50BD15";
name = Bold;
paths = (
{
closed = 1;
nodes = (
"269 0 LINE",
"269 48 LINE",
"245 48 LINE SMOOTH",
"225 48 OFFCURVE",
"195 60 OFFCURVE",
"210 99 CURVE SMOOTH",
"366 509 LINE",
"518 91 LINE SMOOTH",
"528 62 OFFCURVE",
"516 48 OFFCURVE",
"486 48 CURVE SMOOTH",
"462 48 LINE",
"462 0 LINE",
"823 0 LINE",
"823 48 LINE",
"799 48 LINE SMOOTH",
"779 48 OFFCURVE",
"760 56 OFFCURVE",
"748 84 CURVE SMOOTH",
"482 728 LINE",
"327 676 LINE",
"89 87 LINE SMOOTH",
"78 59 OFFCURVE",
"47 48 OFFCURVE",
"21 48 CURVE SMOOTH",
"4 48 LINE",
"4 0 LINE"
);
},
{
closed = 1;
nodes = (
"549 174 LINE",
"549 242 LINE",
"205 242 LINE",
"205 174 LINE"
);
},
{
closed = 1;
nodes = (
"563 775 OFFCURVE",
"588 865 OFFCURVE",
"588 935 CURVE",
"542 935 LINE",
"540 911 OFFCURVE",
"520 858 OFFCURVE",
"414 858 CURVE SMOOTH",
"308 858 OFFCURVE",
"288 911 OFFCURVE",
"286 935 CURVE",
"241 935 LINE",
"241 859 OFFCURVE",
"266 775 OFFCURVE",
"415 775 CURVE SMOOTH"
);
},
{
closed = 1;
nodes = (
"472 965 LINE",
"393 1065 LINE SMOOTH",
"378 1084 OFFCURVE",
"351 1115 OFFCURVE",
"315 1115 CURVE SMOOTH",
"268 1115 OFFCURVE",
"250 1079 OFFCURVE",
"250 1056 CURVE SMOOTH",
"250 1026 OFFCURVE",
"277 1000 OFFCURVE",
"320 979 CURVE SMOOTH",
"438 922 LINE"
);
}
);
width = 827;
}
);
leftKerningGroup = A;
note = Abrevegrave;
rightKerningGroup = A;
unicode = 1EB0;
},
{
glyphname = Abrevehookabove;
lastChange = "2015-12-01 13:46:18 +0000";
layers = (
{
layerId = "9C69E37B-FF92-47DE-801E-679C7E50BD15";
name = Bold;
paths = (
{
closed = 1;
nodes = (
"269 0 LINE",
"269 48 LINE",
"245 48 LINE SMOOTH",
"225 48 OFFCURVE",
"195 60 OFFCURVE",
"210 99 CURVE SMOOTH",
"366 509 LINE",
"518 91 LINE SMOOTH",
"528 62 OFFCURVE",
"516 48 OFFCURVE",
"486 48 CURVE SMOOTH",
"462 48 LINE",
"462 0 LINE",
"823 0 LINE",
"823 48 LINE",
"799 48 LINE SMOOTH",
"779 48 OFFCURVE",
"760 56 OFFCURVE",
"748 84 CURVE SMOOTH",
"482 728 LINE",
"327 676 LINE",
"89 87 LINE SMOOTH",
"78 59 OFFCURVE",
"47 48 OFFCURVE",
"21 48 CURVE SMOOTH",
"4 48 LINE",
"4 0 LINE"
);
},
{
closed = 1;
nodes = (
"549 174 LINE",
"549 242 LINE",
"205 242 LINE",
"205 174 LINE"
);
},
{
closed = 1;
nodes = (
"563 775 OFFCURVE",
"588 865 OFFCURVE",
"588 935 CURVE",
"542 935 LINE",
"540 911 OFFCURVE",
"520 858 OFFCURVE",
"414 858 CURVE SMOOTH",
"308 858 OFFCURVE",
"288 911 OFFCURVE",
"286 935 CURVE",
"241 935 LINE",
"241 859 OFFCURVE",
"266 775 OFFCURVE",
"415 775 CURVE SMOOTH"
);
},
{
closed = 1;
nodes = (
"452 950 LINE",
"441 950 OFFCURVE",
"427 953 OFFCURVE",
"427 973 CURVE SMOOTH",
"427 1016 OFFCURVE",
"533 1021 OFFCURVE",
"533 1083 CURVE SMOOTH",
"533 1129 OFFCURVE",
"481 1151 OFFCURVE",
"424 1151 CURVE SMOOTH",
"340 1151 OFFCURVE",
"317 1113 OFFCURVE",
"317 1094 CURVE SMOOTH",
"317 1070 OFFCURVE",
"335 1060 OFFCURVE",
"352 1060 CURVE SMOOTH",
"369 1060 OFFCURVE",
"386 1070 OFFCURVE",
"386 1087 CURVE SMOOTH",
"386 1114 OFFCURVE",
"408 1121 OFFCURVE",
"422 1121 CURVE SMOOTH",
"442 1121 OFFCURVE",
"451 1104 OFFCURVE",
"451 1091 CURVE SMOOTH",
"451 1033 OFFCURVE",
"366 1022 OFFCURVE",
"366 974 CURVE SMOOTH",
"366 943 OFFCURVE",
"405 927 OFFCURVE",
"445 927 CURVE"
);
}
);
width = 827;
}
);
leftKerningGroup = A;
note = Abrevehookabove;
rightKerningGroup = A;
unicode = 1EB2;
},
{
glyphname = Abrevetilde;
lastChange = "2015-12-01 13:46:18 +0000";
layers = (
{
layerId = "9C69E37B-FF92-47DE-801E-679C7E50BD15";
name = Bold;
paths = (
{
closed = 1;
nodes = (
"269 0 LINE",
"269 48 LINE",
"245 48 LINE SMOOTH",
"225 48 OFFCURVE",
"195 60 OFFCURVE",
"210 99 CURVE SMOOTH",
"366 509 LINE",
"518 91 LINE SMOOTH",
"528 62 OFFCURVE",
"516 48 OFFCURVE",
"486 48 CURVE SMOOTH",
"462 48 LINE",
"462 0 LINE",
"823 0 LINE",
"823 48 LINE",
"799 48 LINE SMOOTH",
"779 48 OFFCURVE",
"760 56 OFFCURVE",
"748 84 CURVE SMOOTH",
"482 728 LINE",
"327 676 LINE",
"89 87 LINE SMOOTH",
"78 59 OFFCURVE",
"47 48 OFFCURVE",
"21 48 CURVE SMOOTH",
"4 48 LINE",
"4 0 LINE"
);
},
{
closed = 1;
nodes = (
"549 174 LINE",
"549 242 LINE",
"205 242 LINE",
"205 174 LINE"
);
},
{
closed = 1;
nodes = (
"563 775 OFFCURVE",
"588 865 OFFCURVE",
"588 935 CURVE",
"542 935 LINE",
"540 911 OFFCURVE",
"520 858 OFFCURVE",
"414 858 CURVE SMOOTH",
"308 858 OFFCURVE",
"288 911 OFFCURVE",
"286 935 CURVE",
"241 935 LINE",
"241 859 OFFCURVE",
"266 775 OFFCURVE",
"415 775 CURVE SMOOTH"
);
},
{
closed = 1;
nodes = (
"277 1024 OFFCURVE",
"290 1041 OFFCURVE",
"322 1041 CURVE SMOOTH",
"376 1041 OFFCURVE",
"423 997 OFFCURVE",
"476 997 CURVE SMOOTH",
"544 997 OFFCURVE",
"575 1080 OFFCURVE",
"589 1124 CURVE",
"562 1143 LINE",
"543 1102 OFFCURVE",
"531 1086 OFFCURVE",
"499 1086 CURVE SMOOTH",
"445 1086 OFFCURVE",
"397 1130 OFFCURVE",
"345 1130 CURVE SMOOTH",
"276 1130 OFFCURVE",
"246 1047 OFFCURVE",
"231 1003 CURVE",
"259 984 LINE"
);
}
);
width = 827;
}
);
leftKerningGroup = A;
note = Abrevetilde;
rightKerningGroup = A;
unicode = 1EB4;
},
{
glyphname = Acaron;
lastChange = "2015-12-01 13:46:17 +0000";
layers = (
{
layerId = "9C69E37B-FF92-47DE-801E-679C7E50BD15";
name = Bold;
paths = (
{
closed = 1;
nodes = (
"269 0 LINE",
"269 48 LINE",
"245 48 LINE SMOOTH",
"225 48 OFFCURVE",
"195 60 OFFCURVE",
"210 99 CURVE SMOOTH",
"366 509 LINE",
"518 91 LINE SMOOTH",
"528 62 OFFCURVE",
"516 48 OFFCURVE",
"486 48 CURVE SMOOTH",
"462 48 LINE",
"462 0 LINE",
"823 0 LINE",
"823 48 LINE",
"799 48 LINE SMOOTH",
"779 48 OFFCURVE",
"760 56 OFFCURVE",
"748 84 CURVE SMOOTH",
"482 728 LINE",
"327 676 LINE",
"89 87 LINE SMOOTH",
"78 59 OFFCURVE",
"47 48 OFFCURVE",
"21 48 CURVE SMOOTH",
"4 48 LINE",
"4 0 LINE"
);
},
{
closed = 1;
nodes = (
"549 174 LINE",
"549 242 LINE",
"205 242 LINE",
"205 174 LINE"
);
},
{
closed = 1;
nodes = (
"467 775 LINE",
"630 960 LINE",
"603 990 LINE",
"461 887 LINE SMOOTH",
"444 875 OFFCURVE",
"429 866 OFFCURVE",
"417 866 CURVE SMOOTH",
"406 866 OFFCURVE",
"390 875 OFFCURVE",
"373 887 CURVE SMOOTH",
"231 990 LINE",
"204 960 LINE",
"367 775 LINE"
);
}
);
width = 827;
}
);
leftKerningGroup = A;
note = Acaron;
rightKerningGroup = A;
unicode = 01CD;
},
{
glyphname = Acircumflex;
lastChange = "2015-12-01 13:46:16 +0000";
layers = (
{
layerId = "9C69E37B-FF92-47DE-801E-679C7E50BD15";
name = Bold;
paths = (
{
closed = 1;
nodes = (
"269 0 LINE",
"269 48 LINE",
"245 48 LINE SMOOTH",
"225 48 OFFCURVE",
"195 60 OFFCURVE",
"210 99 CURVE SMOOTH",
"366 509 LINE",
"518 91 LINE SMOOTH",
"528 62 OFFCURVE",
"516 48 OFFCURVE",
"486 48 CURVE SMOOTH",
"462 48 LINE",
"462 0 LINE",
"823 0 LINE",
"823 48 LINE",
"799 48 LINE SMOOTH",
"779 48 OFFCURVE",
"760 56 OFFCURVE",
"748 84 CURVE SMOOTH",
"482 728 LINE",
"327 676 LINE",
"89 87 LINE SMOOTH",
"78 59 OFFCURVE",
"47 48 OFFCURVE",
"21 48 CURVE SMOOTH",
"4 48 LINE",
"4 0 LINE"
);
},
{
closed = 1;
nodes = (
"549 174 LINE",
"549 242 LINE",
"205 242 LINE",
"205 174 LINE"
);
},
{
closed = 1;
nodes = (
"373 878 LINE SMOOTH",
"390 890 OFFCURVE",
"406 899 OFFCURVE",
"417 899 CURVE SMOOTH",
"429 899 OFFCURVE",
"444 890 OFFCURVE",
"461 878 CURVE SMOOTH",
"603 775 LINE",
"630 805 LINE",
"467 990 LINE",
"367 990 LINE",
"204 805 LINE",
"231 775 LINE"
);
}
);
width = 827;
}
);
leftKerningGroup = A;
note = Acircumflex;
rightKerningGroup = A;
unicode = 00C2;
},
{
glyphname = Acircumflexacute;
lastChange = "2015-12-01 13:46:17 +0000";
layers = (
{
layerId = "9C69E37B-FF92-47DE-801E-679C7E50BD15";
name = Bold;
paths = (
{
closed = 1;
nodes = (
"269 0 LINE",
"269 48 LINE",
"245 48 LINE SMOOTH",
"225 48 OFFCURVE",
"195 60 OFFCURVE",
"210 99 CURVE SMOOTH",
"366 509 LINE",
"518 91 LINE SMOOTH",
"528 62 OFFCURVE",
"516 48 OFFCURVE",
"486 48 CURVE SMOOTH",
"462 48 LINE",
"462 0 LINE",
"823 0 LINE",
"823 48 LINE",
"799 48 LINE SMOOTH",
"779 48 OFFCURVE",
"760 56 OFFCURVE",
"748 84 CURVE SMOOTH",
"482 728 LINE",
"327 676 LINE",
"89 87 LINE SMOOTH",
"78 59 OFFCURVE",
"47 48 OFFCURVE",
"21 48 CURVE SMOOTH",
"4 48 LINE",
"4 0 LINE"
);
},
{
closed = 1;
nodes = (
"549 174 LINE",
"549 242 LINE",
"205 242 LINE",
"205 174 LINE"
);
},
{
closed = 1;
nodes = (
"379 877 LINE SMOOTH",
"395 889 OFFCURVE",
"410 898 OFFCURVE",
"421 898 CURVE SMOOTH",
"433 898 OFFCURVE",
"447 889 OFFCURVE",
"463 877 CURVE SMOOTH",
"600 774 LINE",
"626 804 LINE",
"469 989 LINE",
"373 989 LINE",
"216 804 LINE",
"242 774 LINE"
);
},
{
closed = 1;
nodes = (
"694 976 LINE SMOOTH",
"736 997 OFFCURVE",
"764 1023 OFFCURVE",
"764 1053 CURVE SMOOTH",
"764 1076 OFFCURVE",
"746 1112 OFFCURVE",
"699 1112 CURVE SMOOTH",
"663 1112 OFFCURVE",
"635 1081 OFFCURVE",
"620 1062 CURVE SMOOTH",
"542 962 LINE",
"575 919 LINE"
);
}
);
width = 827;
}
);
leftKerningGroup = A;
note = Acircumflexacute;
rightKerningGroup = A;
unicode = 1EA4;
},
{
glyphname = Acircumflexdotbelow;
lastChange = "2015-12-01 13:46:18 +0000";
layers = (
{
layerId = "9C69E37B-FF92-47DE-801E-679C7E50BD15";
name = Bold;
paths = (
{
closed = 1;
nodes = (
"269 0 LINE",
"269 48 LINE",
"245 48 LINE SMOOTH",
"225 48 OFFCURVE",
"195 60 OFFCURVE",
"210 99 CURVE SMOOTH",
"366 509 LINE",
"518 91 LINE SMOOTH",
"528 62 OFFCURVE",
"516 48 OFFCURVE",
"486 48 CURVE SMOOTH",
"462 48 LINE",
"462 0 LINE",
"823 0 LINE",
"823 48 LINE",
"799 48 LINE SMOOTH",
"779 48 OFFCURVE",
"760 56 OFFCURVE",
"748 84 CURVE SMOOTH",
"482 728 LINE",
"327 676 LINE",
"89 87 LINE SMOOTH",
"78 59 OFFCURVE",
"47 48 OFFCURVE",
"21 48 CURVE SMOOTH",
"4 48 LINE",
"4 0 LINE"
);
},
{
closed = 1;
nodes = (
"469 -216 OFFCURVE",
"498 -183 OFFCURVE",
"498 -141 CURVE SMOOTH",
"498 -99 OFFCURVE",
"469 -64 OFFCURVE",
"422 -64 CURVE SMOOTH",
"375 -64 OFFCURVE",
"346 -99 OFFCURVE",
"346 -141 CURVE SMOOTH",
"346 -183 OFFCURVE",
"375 -216 OFFCURVE",
"422 -216 CURVE SMOOTH"
);
},
{
closed = 1;
nodes = (
"549 174 LINE",
"549 242 LINE",
"205 242 LINE",
"205 174 LINE"
);
},
{
closed = 1;
nodes = (
"375 877 LINE SMOOTH",
"392 889 OFFCURVE",
"408 898 OFFCURVE",
"419 898 CURVE SMOOTH",
"431 898 OFFCURVE",
"446 889 OFFCURVE",
"463 877 CURVE SMOOTH",
"605 774 LINE",
"632 804 LINE",
"469 989 LINE",
"369 989 LINE",
"206 804 LINE",
"233 774 LINE"
);
}
);
width = 827;
}
);
leftKerningGroup = A;
note = Acircumflexdotbelow;
rightKerningGroup = A;
unicode = 1EAC;
},
{
glyphname = Acircumflexgrave;
lastChange = "2015-12-01 13:46:17 +0000";
layers = (
{
layerId = "9C69E37B-FF92-47DE-801E-679C7E50BD15";
name = Bold;
paths = (
{
closed = 1;
nodes = (
"269 0 LINE",
"269 48 LINE",
"245 48 LINE SMOOTH",
"225 48 OFFCURVE",
"195 60 OFFCURVE",
"210 99 CURVE SMOOTH",
"366 509 LINE",
"518 91 LINE SMOOTH",
"528 62 OFFCURVE",
"516 48 OFFCURVE",
"486 48 CURVE SMOOTH",
"462 48 LINE",
"462 0 LINE",
"823 0 LINE",
"823 48 LINE",
"799 48 LINE SMOOTH",
"779 48 OFFCURVE",
"760 56 OFFCURVE",
"748 84 CURVE SMOOTH",
"482 728 LINE",
"327 676 LINE",
"89 87 LINE SMOOTH",
"78 59 OFFCURVE",
"47 48 OFFCURVE",
"21 48 CURVE SMOOTH",
"4 48 LINE",
"4 0 LINE"
);
},
{
closed = 1;
nodes = (
"549 174 LINE",
"549 242 LINE",
"205 242 LINE",
"205 174 LINE"
);
},
{
closed = 1;
nodes = (
"301 962 LINE",
"222 1062 LINE SMOOTH",
"207 1081 OFFCURVE",
"180 1112 OFFCURVE",
"144 1112 CURVE SMOOTH",
"97 1112 OFFCURVE",
"79 1076 OFFCURVE",
"79 1053 CURVE SMOOTH",
"79 1023 OFFCURVE",
"106 997 OFFCURVE",
"149 976 CURVE SMOOTH",
"267 919 LINE"
);
},
{
closed = 1;
nodes = (
"379 877 LINE SMOOTH",
"395 889 OFFCURVE",
"410 898 OFFCURVE",
"421 898 CURVE SMOOTH",
"433 898 OFFCURVE",
"447 889 OFFCURVE",
"463 877 CURVE SMOOTH",
"600 774 LINE",
"626 804 LINE",
"469 989 LINE",
"373 989 LINE",
"216 804 LINE",
"242 774 LINE"
);
}
);
width = 827;
}
);
leftKerningGroup = A;
note = Acircumflexgrave;
rightKerningGroup = A;
unicode = 1EA6;
},
{
glyphname = Acircumflexhookabove;
lastChange = "2015-12-01 13:46:17 +0000";
layers = (
{
layerId = "9C69E37B-FF92-47DE-801E-679C7E50BD15";
name = Bold;
paths = (
{
closed = 1;
nodes = (
"269 0 LINE",
"269 48 LINE",
"245 48 LINE SMOOTH",
"225 48 OFFCURVE",
"195 60 OFFCURVE",
"210 99 CURVE SMOOTH",
"366 509 LINE",
"518 91 LINE SMOOTH",
"528 62 OFFCURVE",
"516 48 OFFCURVE",
"486 48 CURVE SMOOTH",
"462 48 LINE",
"462 0 LINE",
"823 0 LINE",
"823 48 LINE",
"799 48 LINE SMOOTH",
"779 48 OFFCURVE",
"760 56 OFFCURVE",
"748 84 CURVE SMOOTH",
"482 728 LINE",
"327 676 LINE",
"89 87 LINE SMOOTH",
"78 59 OFFCURVE",
"47 48 OFFCURVE",
"21 48 CURVE SMOOTH",
"4 48 LINE",
"4 0 LINE"
);
},
{
closed = 1;
nodes = (
"549 174 LINE",
"549 242 LINE",
"205 242 LINE",
"205 174 LINE"
);
},
{
closed = 1;
nodes = (
"379 876 LINE SMOOTH",
"395 888 OFFCURVE",
"410 897 OFFCURVE",
"421 897 CURVE SMOOTH",
"433 897 OFFCURVE",
"447 888 OFFCURVE",
"463 876 CURVE SMOOTH",
"600 773 LINE",
"626 803 LINE",
"469 988 LINE",
"373 988 LINE",
"216 803 LINE",
"242 773 LINE"
);
},
{
closed = 1;
nodes = (
"634 946 LINE",
"623 946 OFFCURVE",
"609 949 OFFCURVE",
"609 969 CURVE SMOOTH",
"609 1012 OFFCURVE",
"715 1017 OFFCURVE",
"715 1079 CURVE SMOOTH",
"715 1125 OFFCURVE",
"663 1147 OFFCURVE",
"606 1147 CURVE SMOOTH",
"522 1147 OFFCURVE",
"499 1109 OFFCURVE",
"499 1090 CURVE SMOOTH",
"499 1066 OFFCURVE",
"517 1056 OFFCURVE",
"534 1056 CURVE SMOOTH",
"551 1056 OFFCURVE",
"568 1066 OFFCURVE",
"568 1083 CURVE SMOOTH",
"568 1110 OFFCURVE",
"590 1117 OFFCURVE",
"604 1117 CURVE SMOOTH",
"624 1117 OFFCURVE",
"633 1100 OFFCURVE",
"633 1087 CURVE SMOOTH",
"633 1029 OFFCURVE",
"548 1018 OFFCURVE",
"548 970 CURVE SMOOTH",
"548 939 OFFCURVE",
"587 923 OFFCURVE",
"627 923 CURVE"
);
}
);
width = 827;
}
);
leftKerningGroup = A;
note = Acircumflexhookabove;
rightKerningGroup = A;
unicode = 1EA8;
},
{
glyphname = Acircumflextilde;
lastChange = "2015-12-01 13:46:18 +0000";
layers = (
{
layerId = "9C69E37B-FF92-47DE-801E-679C7E50BD15";
name = Bold;
paths = (
{
closed = 1;
nodes = (
"269 0 LINE",
"269 48 LINE",
"245 48 LINE SMOOTH",
"225 48 OFFCURVE",
"195 60 OFFCURVE",
"210 99 CURVE SMOOTH",
"366 509 LINE",
"518 91 LINE SMOOTH",
"528 62 OFFCURVE",
"516 48 OFFCURVE",
"486 48 CURVE SMOOTH",
"462 48 LINE",
"462 0 LINE",
"823 0 LINE",
"823 48 LINE",
"799 48 LINE SMOOTH",
"779 48 OFFCURVE",
"760 56 OFFCURVE",
"748 84 CURVE SMOOTH",
"482 728 LINE",
"327 676 LINE",
"89 87 LINE SMOOTH",
"78 59 OFFCURVE",
"47 48 OFFCURVE",
"21 48 CURVE SMOOTH",
"4 48 LINE",
"4 0 LINE"
);
},
{
closed = 1;
nodes = (
"549 174 LINE",
"549 242 LINE",
"205 242 LINE",
"205 174 LINE"
);
},
{
closed = 1;
nodes = (
"379 876 LINE SMOOTH",
"395 888 OFFCURVE",
"410 897 OFFCURVE",
"421 897 CURVE SMOOTH",
"433 897 OFFCURVE",
"447 888 OFFCURVE",
"463 876 CURVE SMOOTH",
"600 773 LINE",
"626 803 LINE",
"469 988 LINE",
"373 988 LINE",
"216 803 LINE",
"242 773 LINE"
);
},
{
closed = 1;
nodes = (
"272 1042 OFFCURVE",
"287 1059 OFFCURVE",
"322 1059 CURVE SMOOTH",
"382 1059 OFFCURVE",
"435 1015 OFFCURVE",
"493 1015 CURVE SMOOTH",
"569 1015 OFFCURVE",
"603 1098 OFFCURVE",
"619 1142 CURVE",
"589 1161 LINE",
"568 1120 OFFCURVE",
"554 1104 OFFCURVE",
"519 1104 CURVE SMOOTH",
"459 1104 OFFCURVE",
"406 1148 OFFCURVE",
"348 1148 CURVE SMOOTH",
"271 1148 OFFCURVE",
"238 1065 OFFCURVE",
"221 1021 CURVE",
"252 1002 LINE"
);
}
);
width = 827;
}
);
leftKerningGroup = A;
note = Acircumflextilde;
rightKerningGroup = A;
unicode = 1EAA;
},
{
glyphname = Adieresis;
lastChange = "2015-12-01 13:46:17 +0000";
layers = (
{
layerId = "9C69E37B-FF92-47DE-801E-679C7E50BD15";
name = Bold;
paths = (
{
closed = 1;
nodes = (
"269 0 LINE",
"269 48 LINE",
"245 48 LINE SMOOTH",
"225 48 OFFCURVE",
"195 60 OFFCURVE",
"210 99 CURVE SMOOTH",
"366 509 LINE",
"518 91 LINE SMOOTH",
"528 62 OFFCURVE",
"516 48 OFFCURVE",
"486 48 CURVE SMOOTH",
"462 48 LINE",
"462 0 LINE",
"823 0 LINE",
"823 48 LINE",
"799 48 LINE SMOOTH",
"779 48 OFFCURVE",
"760 56 OFFCURVE",
"748 84 CURVE SMOOTH",
"482 728 LINE",
"327 676 LINE",
"89 87 LINE SMOOTH",
"78 59 OFFCURVE",
"47 48 OFFCURVE",
"21 48 CURVE SMOOTH",
"4 48 LINE",
"4 0 LINE"
);
},
{
closed = 1;
nodes = (
"549 174 LINE",
"549 242 LINE",
"205 242 LINE",
"205 174 LINE"
);
},
{
closed = 1;
nodes = (
"319 775 OFFCURVE",
"348 808 OFFCURVE",
"348 850 CURVE SMOOTH",
"348 892 OFFCURVE",
"319 926 OFFCURVE",
"271 926 CURVE SMOOTH",
"224 926 OFFCURVE",
"196 892 OFFCURVE",
"196 850 CURVE SMOOTH",
"196 808 OFFCURVE",
"224 775 OFFCURVE",
"271 775 CURVE SMOOTH"
);
},
{
closed = 1;
nodes = (
"567 775 OFFCURVE",
"596 808 OFFCURVE",
"596 850 CURVE SMOOTH",
"596 892 OFFCURVE",
"567 926 OFFCURVE",
"520 926 CURVE SMOOTH",
"472 926 OFFCURVE",
"444 892 OFFCURVE",
"444 850 CURVE SMOOTH",
"444 808 OFFCURVE",
"472 775 OFFCURVE",
"520 775 CURVE SMOOTH"
);
}
);
width = 827;
}
);
leftKerningGroup = A;
note = Adieresis;
rightKerningGroup = A;
unicode = 00C4;
},
{
glyphname = Adotbelow;
lastChange = "2015-12-01 13:46:17 +0000";
layers = (
{
layerId = "9C69E37B-FF92-47DE-801E-679C7E50BD15";
name = Bold;
paths = (
{
closed = 1;
nodes = (
"269 0 LINE",
"269 48 LINE",
"245 48 LINE SMOOTH",
"225 48 OFFCURVE",
"195 60 OFFCURVE",
"210 99 CURVE SMOOTH",
"366 509 LINE",
"518 91 LINE SMOOTH",
"528 62 OFFCURVE",
"516 48 OFFCURVE",
"486 48 CURVE SMOOTH",
"462 48 LINE",
"462 0 LINE",
"823 0 LINE",
"823 48 LINE",
"799 48 LINE SMOOTH",
"779 48 OFFCURVE",
"760 56 OFFCURVE",
"748 84 CURVE SMOOTH",
"482 728 LINE",
"327 676 LINE",
"89 87 LINE SMOOTH",
"78 59 OFFCURVE",
"47 48 OFFCURVE",
"21 48 CURVE SMOOTH",
"4 48 LINE",
"4 0 LINE"
);
},
{
closed = 1;
nodes = (
"466 -216 OFFCURVE",
"495 -183 OFFCURVE",
"495 -141 CURVE SMOOTH",
"495 -99 OFFCURVE",
"466 -64 OFFCURVE",
"419 -64 CURVE SMOOTH",
"372 -64 OFFCURVE",
"343 -99 OFFCURVE",
"343 -141 CURVE SMOOTH",
"343 -183 OFFCURVE",
"372 -216 OFFCURVE",
"419 -216 CURVE SMOOTH"
);
},
{
closed = 1;
nodes = (
"549 174 LINE",
"549 242 LINE",
"205 242 LINE",
"205 174 LINE"
);
}
);
width = 827;
}
);
leftKerningGroup = A;
note = Adotbelow;
rightKerningGroup = A;
unicode = 1EA0;
},
{
glyphname = Agrave;
lastChange = "2015-12-01 13:46:17 +0000";
layers = (
{
layerId = "9C69E37B-FF92-47DE-801E-679C7E50BD15";
name = Bold;
paths = (
{
closed = 1;
nodes = (
"269 0 LINE",
"269 48 LINE",
"245 48 LINE SMOOTH",
"225 48 OFFCURVE",
"195 60 OFFCURVE",
"210 99 CURVE SMOOTH",
"366 509 LINE",
"518 91 LINE SMOOTH",
"528 62 OFFCURVE",
"516 48 OFFCURVE",
"486 48 CURVE SMOOTH",
"462 48 LINE",
"462 0 LINE",
"823 0 LINE",
"823 48 LINE",
"799 48 LINE SMOOTH",
"779 48 OFFCURVE",
"760 56 OFFCURVE",
"748 84 CURVE SMOOTH",
"482 728 LINE",
"327 676 LINE",
"89 87 LINE SMOOTH",
"78 59 OFFCURVE",
"47 48 OFFCURVE",
"21 48 CURVE SMOOTH",
"4 48 LINE",
"4 0 LINE"
);
},
{
closed = 1;
nodes = (
"549 174 LINE",
"549 242 LINE",
"205 242 LINE",
"205 174 LINE"
);
},
{
closed = 1;
nodes = (
"554 823 LINE",
"428 962 LINE SMOOTH",
"422 969 OFFCURVE",
"390 1005 OFFCURVE",
"349 1005 CURVE SMOOTH",
"302 1005 OFFCURVE",
"285 974 OFFCURVE",
"285 950 CURVE SMOOTH",
"285 920 OFFCURVE",
"307 897 OFFCURVE",
"346 874 CURVE SMOOTH",
"519 773 LINE"
);
}
);
width = 827;
}
);
leftKerningGroup = A;
note = Agrave;
rightKerningGroup = A;
unicode = 00C0;
},
{
glyphname = Ahookabove;
lastChange = "2015-12-01 13:46:18 +0000";
layers = (
{
layerId = "9C69E37B-FF92-47DE-801E-679C7E50BD15";
name = Bold;
paths = (
{
closed = 1;
nodes = (
"269 0 LINE",
"269 48 LINE",
"245 48 LINE SMOOTH",
"225 48 OFFCURVE",
"195 60 OFFCURVE",
"210 99 CURVE SMOOTH",
"366 509 LINE",
"518 91 LINE SMOOTH",
"528 62 OFFCURVE",
"516 48 OFFCURVE",
"486 48 CURVE SMOOTH",
"462 48 LINE",
"462 0 LINE",
"823 0 LINE",
"823 48 LINE",
"799 48 LINE SMOOTH",
"779 48 OFFCURVE",
"760 56 OFFCURVE",
"748 84 CURVE SMOOTH",
"482 728 LINE",
"327 676 LINE",
"89 87 LINE SMOOTH",
"78 59 OFFCURVE",
"47 48 OFFCURVE",
"21 48 CURVE SMOOTH",
"4 48 LINE",
"4 0 LINE"
);
},
{
closed = 1;
nodes = (
"549 174 LINE",
"549 242 LINE",
"205 242 LINE",
"205 174 LINE"
);
},
{
closed = 1;
nodes = (
"473 802 LINE",
"461 802 OFFCURVE",
"444 805 OFFCURVE",
"444 828 CURVE SMOOTH",
"444 878 OFFCURVE",
"567 884 OFFCURVE",
"567 956 CURVE SMOOTH",
"567 1010 OFFCURVE",
"506 1035 OFFCURVE",
"441 1035 CURVE SMOOTH",
"343 1035 OFFCURVE",
"318 991 OFFCURVE",
"318 968 CURVE SMOOTH",
"318 941 OFFCURVE",
"338 929 OFFCURVE",
"357 929 CURVE SMOOTH",
"377 929 OFFCURVE",
"396 941 OFFCURVE",
"396 961 CURVE SMOOTH",
"396 992 OFFCURVE",
"422 999 OFFCURVE",
"439 999 CURVE SMOOTH",
"462 999 OFFCURVE",
"472 981 OFFCURVE",
"472 965 CURVE SMOOTH",
"472 898 OFFCURVE",
"374 885 OFFCURVE",
"374 830 CURVE SMOOTH",
"374 794 OFFCURVE",
"419 775 OFFCURVE",
"465 775 CURVE"
);
}
);
width = 827;
}
);
leftKerningGroup = A;
note = Ahookabove;
rightKerningGroup = A;
unicode = 1EA2;
},
{
glyphname = Amacron;
lastChange = "2015-12-01 13:46:18 +0000";
layers = (
{
layerId = "9C69E37B-FF92-47DE-801E-679C7E50BD15";
name = Bold;
paths = (
{
closed = 1;
nodes = (
"269 0 LINE",
"269 48 LINE",
"245 48 LINE SMOOTH",
"225 48 OFFCURVE",
"195 60 OFFCURVE",
"210 99 CURVE SMOOTH",
"366 509 LINE",
"518 91 LINE SMOOTH",
"528 62 OFFCURVE",
"516 48 OFFCURVE",
"486 48 CURVE SMOOTH",
"462 48 LINE",
"462 0 LINE",
"823 0 LINE",
"823 48 LINE",
"799 48 LINE SMOOTH",
"779 48 OFFCURVE",
"760 56 OFFCURVE",
"748 84 CURVE SMOOTH",
"482 728 LINE",
"327 676 LINE",
"89 87 LINE SMOOTH",
"78 59 OFFCURVE",
"47 48 OFFCURVE",
"21 48 CURVE SMOOTH",
"4 48 LINE",
"4 0 LINE"
);
},
{
closed = 1;
nodes = (
"549 174 LINE",
"549 242 LINE",
"205 242 LINE",
"205 174 LINE"
);
},
{
closed = 1;
nodes = (
"636 775 LINE",
"636 850 LINE",
"206 850 LINE",
"206 775 LINE"
);
}
);
width = 827;
}
);
leftKerningGroup = A;
note = Amacron;
rightKerningGroup = A;
unicode = 0100;
},
{
glyphname = Aogonek;
lastChange = "2015-12-01 13:46:18 +0000";
layers = (
{
layerId = "9C69E37B-FF92-47DE-801E-679C7E50BD15";
name = Bold;
paths = (
{
closed = 1;
nodes = (
"269 0 LINE",
"269 48 LINE",
"245 48 LINE SMOOTH",
"225 48 OFFCURVE",
"195 60 OFFCURVE",
"210 99 CURVE SMOOTH",
"366 509 LINE",
"518 91 LINE SMOOTH",
"528 62 OFFCURVE",
"516 48 OFFCURVE",
"486 48 CURVE SMOOTH",
"462 48 LINE",
"462 0 LINE",
"823 0 LINE",
"823 48 LINE",
"799 48 LINE SMOOTH",
"779 48 OFFCURVE",
"760 56 OFFCURVE",
"748 84 CURVE SMOOTH",
"482 728 LINE",
"327 676 LINE",
"89 87 LINE SMOOTH",
"78 59 OFFCURVE",
"47 48 OFFCURVE",
"21 48 CURVE SMOOTH",
"4 48 LINE",
"4 0 LINE"
);
},
{
closed = 1;
nodes = (
"549 174 LINE",
"549 242 LINE",
"205 242 LINE",
"205 174 LINE"
);
},
{
closed = 1;
nodes = (
"786 -243 OFFCURVE",
"830 -229 OFFCURVE",
"869 -197 CURVE",
"853 -169 LINE",
"840 -177 OFFCURVE",
"818 -183 OFFCURVE",
"802 -183 CURVE SMOOTH",
"768 -183 OFFCURVE",
"743 -162 OFFCURVE",
"742 -120 CURVE",
"742 -79 OFFCURVE",
"764 -33 OFFCURVE",
"820 13 CURVE",
"753 13 LINE",
"685 -23 OFFCURVE",
"626 -79 OFFCURVE",
"626 -140 CURVE SMOOTH",
"626 -178 OFFCURVE",
"647 -243 OFFCURVE",
"754 -243 CURVE SMOOTH"
);
}
);
width = 827;
}
);
leftKerningGroup = A;
note = Aogonek;
rightKerningGroup = A;
unicode = 0104;
},
{
glyphname = Aring;
lastChange = "2015-12-01 13:46:16 +0000";
layers = (
{
layerId = "9C69E37B-FF92-47DE-801E-679C7E50BD15";
name = Bold;
paths = (
{
closed = 1;
nodes = (
"269 0 LINE",
"269 48 LINE",
"245 48 LINE SMOOTH",
"225 48 OFFCURVE",
"195 60 OFFCURVE",
"210 99 CURVE SMOOTH",
"366 509 LINE",
"518 91 LINE SMOOTH",
"528 62 OFFCURVE",
"516 48 OFFCURVE",
"486 48 CURVE SMOOTH",
"462 48 LINE",
"462 0 LINE",
"823 0 LINE",
"823 48 LINE",
"799 48 LINE SMOOTH",
"779 48 OFFCURVE",
"760 56 OFFCURVE",
"748 84 CURVE SMOOTH",
"482 728 LINE",
"327 676 LINE",
"89 87 LINE SMOOTH",
"78 59 OFFCURVE",
"47 48 OFFCURVE",
"21 48 CURVE SMOOTH",
"4 48 LINE",
"4 0 LINE"
);
},
{
closed = 1;
nodes = (
"549 174 LINE",
"549 242 LINE",
"205 242 LINE",
"205 174 LINE"
);
},
{
closed = 1;
nodes = (
"489 739 OFFCURVE",
"537 785 OFFCURVE",
"537 852 CURVE SMOOTH",
"537 920 OFFCURVE",
"489 966 OFFCURVE",
"415 966 CURVE SMOOTH",
"341 966 OFFCURVE",
"293 920 OFFCURVE",
"293 852 CURVE SMOOTH",
"293 785 OFFCURVE",
"341 739 OFFCURVE",
"415 739 CURVE SMOOTH"
);
},
{
closed = 1;
nodes = (
"386 801 OFFCURVE",
"362 822 OFFCURVE",
"362 852 CURVE SMOOTH",
"362 883 OFFCURVE",
"386 903 OFFCURVE",
"415 903 CURVE SMOOTH",
"444 903 OFFCURVE",
"468 883 OFFCURVE",
"468 852 CURVE SMOOTH",
"468 822 OFFCURVE",
"444 801 OFFCURVE",
"415 801 CURVE SMOOTH"
);
}
);
width = 827;
}
);
leftKerningGroup = A;
note = Aring;
rightKerningGroup = A;
unicode = 00C5;
},
{
glyphname = Aringacute;
lastChange = "2015-12-01 13:46:18 +0000";
layers = (
{
layerId = "9C69E37B-FF92-47DE-801E-679C7E50BD15";
name = Bold;
paths = (
{
closed = 1;
nodes = (
"269 0 LINE",
"269 48 LINE",
"245 48 LINE SMOOTH",
"225 48 OFFCURVE",
"195 60 OFFCURVE",
"210 99 CURVE SMOOTH",
"366 509 LINE",
"518 91 LINE SMOOTH",
"528 62 OFFCURVE",
"516 48 OFFCURVE",
"486 48 CURVE SMOOTH",
"462 48 LINE",
"462 0 LINE",
"823 0 LINE",
"823 48 LINE",
"799 48 LINE SMOOTH",
"779 48 OFFCURVE",
"760 56 OFFCURVE",
"748 84 CURVE SMOOTH",
"482 728 LINE",
"327 676 LINE",
"89 87 LINE SMOOTH",
"78 59 OFFCURVE",
"47 48 OFFCURVE",
"21 48 CURVE SMOOTH",
"4 48 LINE",
"4 0 LINE"
);
},
{
closed = 1;
nodes = (
"549 174 LINE",
"549 242 LINE",
"205 242 LINE",
"205 174 LINE"
);
},
{
closed = 1;
nodes = (
"489 739 OFFCURVE",
"537 785 OFFCURVE",
"537 852 CURVE SMOOTH",
"537 920 OFFCURVE",
"489 966 OFFCURVE",
"415 966 CURVE SMOOTH",
"341 966 OFFCURVE",
"293 920 OFFCURVE",
"293 852 CURVE SMOOTH",
"293 785 OFFCURVE",
"341 739 OFFCURVE",
"415 739 CURVE SMOOTH"
);
},
{
closed = 1;
nodes = (
"386 801 OFFCURVE",
"362 822 OFFCURVE",
"362 852 CURVE SMOOTH",
"362 883 OFFCURVE",
"386 903 OFFCURVE",
"415 903 CURVE SMOOTH",
"444 903 OFFCURVE",
"468 883 OFFCURVE",
"468 852 CURVE SMOOTH",
"468 822 OFFCURVE",
"444 801 OFFCURVE",
"415 801 CURVE SMOOTH"
);
},
{
closed = 1;
nodes = (
"491 1081 LINE SMOOTH",
"530 1104 OFFCURVE",
"553 1127 OFFCURVE",
"553 1157 CURVE SMOOTH",
"553 1181 OFFCURVE",
"535 1212 OFFCURVE",
"488 1212 CURVE SMOOTH",
"447 1212 OFFCURVE",
"416 1176 OFFCURVE",
"410 1169 CURVE SMOOTH",
"283 1030 LINE",
"319 980 LINE"
);
}
);
width = 827;
}
);
leftKerningGroup = A;
note = Aringacute;
rightKerningGroup = A;
unicode = 01FA;
},
{
glyphname = Atilde;
lastChange = "2015-12-01 13:46:18 +0000";
layers = (
{
layerId = "9C69E37B-FF92-47DE-801E-679C7E50BD15";
name = Bold;
paths = (
{
closed = 1;
nodes = (
"269 0 LINE",
"269 48 LINE",
"245 48 LINE SMOOTH",
"225 48 OFFCURVE",
"195 60 OFFCURVE",
"210 99 CURVE SMOOTH",
"366 509 LINE",
"518 91 LINE SMOOTH",
"528 62 OFFCURVE",
"516 48 OFFCURVE",
"486 48 CURVE SMOOTH",
"462 48 LINE",
"462 0 LINE",
"823 0 LINE",
"823 48 LINE",
"799 48 LINE SMOOTH",
"779 48 OFFCURVE",
"760 56 OFFCURVE",
"748 84 CURVE SMOOTH",
"482 728 LINE",
"327 676 LINE",
"89 87 LINE SMOOTH",
"78 59 OFFCURVE",
"47 48 OFFCURVE",
"21 48 CURVE SMOOTH",
"4 48 LINE",
"4 0 LINE"
);
},
{
closed = 1;
nodes = (
"549 174 LINE",
"549 242 LINE",
"205 242 LINE",
"205 174 LINE"
);
},
{
closed = 1;
nodes = (
"264 810 OFFCURVE",
"280 827 OFFCURVE",
"319 827 CURVE SMOOTH",
"386 827 OFFCURVE",
"445 783 OFFCURVE",
"509 783 CURVE SMOOTH",
"594 783 OFFCURVE",
"631 866 OFFCURVE",
"649 910 CURVE",
"616 929 LINE",
"593 888 OFFCURVE",
"577 872 OFFCURVE",
"538 872 CURVE SMOOTH",
"471 872 OFFCURVE",
"413 916 OFFCURVE",
"348 916 CURVE SMOOTH",
"263 916 OFFCURVE",
"226 833 OFFCURVE",
"207 789 CURVE",
"241 770 LINE"
);
}
);
width = 827;
}
);
leftKerningGroup = A;
note = Atilde;
rightKerningGroup = A;
unicode = 00C3;
},
{
glyphname = AE;
lastChange = "2015-12-01 13:46:16 +0000";
layers = (
{
layerId = "9C69E37B-FF92-47DE-801E-679C7E50BD15";
name = Bold;
paths = (
{
closed = 1;
nodes = (
"282 0 LINE",
"282 48 LINE",
"258 48 LINE SMOOTH",
"238 48 OFFCURVE",
"203 62 OFFCURVE",
"223 99 CURVE SMOOTH",
"263 174 LINE",
"471 174 LINE",
"471 88 LINE SMOOTH",
"471 62 OFFCURVE",
"455 48 OFFCURVE",
"417 48 CURVE SMOOTH",
"385 48 LINE",
"385 0 LINE",
"1014 0 LINE",
"1036 203 LINE",
"987 203 LINE",
"975 128 OFFCURVE",
"954 68 OFFCURVE",
"880 68 CURVE SMOOTH",
"679 68 LINE",
"679 327 LINE",
"799 327 LINE SMOOTH",
"844 327 OFFCURVE",
"850 282 OFFCURVE",
"854 240 CURVE",
"893 240 LINE",
"893 482 LINE",
"854 482 LINE",
"850 440 OFFCURVE",
"844 395 OFFCURVE",
"799 395 CURVE SMOOTH",
"679 395 LINE",
"679 632 LINE",
"850 632 LINE SMOOTH",
"949 632 OFFCURVE",
"962 532 OFFCURVE",
"966 496 CURVE",
"1015 496 LINE",
"1015 700 LINE",
"368 700 LINE",
"368 652 LINE",
"401 652 LINE SMOOTH",
"417 652 OFFCURVE",
"421 635 OFFCURVE",
"413 621 CURVE SMOOTH",
"102 87 LINE SMOOTH",
"87 61 OFFCURVE",
"60 48 OFFCURVE",
"34 48 CURVE SMOOTH",
"17 48 LINE",
"17 0 LINE"
);
},
{
closed = 1;
nodes = (
"471 540 LINE",
"471 242 LINE",
"302 242 LINE"
);
}
);
width = 1066;
}
);
leftKerningGroup = A;
note = AE;
unicode = 00C6;
},
{
glyphname = AEacute;
lastChange = "2015-12-01 13:46:18 +0000";
layers = (
{
layerId = "9C69E37B-FF92-47DE-801E-679C7E50BD15";
name = Bold;
paths = (
{
closed = 1;
nodes = (
"282 0 LINE",
"282 48 LINE",
"258 48 LINE SMOOTH",
"238 48 OFFCURVE",
"203 62 OFFCURVE",
"223 99 CURVE SMOOTH",
"263 174 LINE",
"471 174 LINE",
"471 88 LINE SMOOTH",
"471 62 OFFCURVE",
"455 48 OFFCURVE",
"417 48 CURVE SMOOTH",
"385 48 LINE",
"385 0 LINE",
"1014 0 LINE",
"1036 203 LINE",
"987 203 LINE",
"975 128 OFFCURVE",
"954 68 OFFCURVE",
"880 68 CURVE SMOOTH",
"679 68 LINE",
"679 327 LINE",
"799 327 LINE SMOOTH",
"844 327 OFFCURVE",
"850 282 OFFCURVE",
"854 240 CURVE",
"893 240 LINE",
"893 482 LINE",
"854 482 LINE",
"850 440 OFFCURVE",
"844 395 OFFCURVE",
"799 395 CURVE SMOOTH",
"679 395 LINE",
"679 632 LINE",
"850 632 LINE SMOOTH",
"949 632 OFFCURVE",
"962 532 OFFCURVE",
"966 496 CURVE",
"1015 496 LINE",
"1015 700 LINE",
"368 700 LINE",
"368 652 LINE",
"401 652 LINE SMOOTH",
"417 652 OFFCURVE",
"421 635 OFFCURVE",
"413 621 CURVE SMOOTH",
"102 87 LINE SMOOTH",
"87 61 OFFCURVE",
"60 48 OFFCURVE",
"34 48 CURVE SMOOTH",
"17 48 LINE",
"17 0 LINE"
);
},
{
closed = 1;
nodes = (
"471 540 LINE",
"471 242 LINE",
"302 242 LINE"
);
},
{
closed = 1;
nodes = (
"786 874 LINE SMOOTH",
"825 897 OFFCURVE",
"848 920 OFFCURVE",
"848 950 CURVE SMOOTH",
"848 974 OFFCURVE",
"830 1005 OFFCURVE",
"783 1005 CURVE SMOOTH",
"742 1005 OFFCURVE",
"711 969 OFFCURVE",
"705 962 CURVE SMOOTH",
"578 823 LINE",
"614 773 LINE"
);
}
);
width = 1066;
}
);
leftKerningGroup = A;
note = AEacute;
unicode = 01FC;
},
{
glyphname = B;
lastChange = "2015-12-01 13:46:18 +0000";
layers = (
{
layerId = "9C69E37B-FF92-47DE-801E-679C7E50BD15";
name = Bold;
paths = (
{
closed = 1;
nodes = (
"428 0 LINE SMOOTH",
"619 0 OFFCURVE",
"684 79 OFFCURVE",
"684 195 CURVE SMOOTH",
"684 260 OFFCURVE",
"644 346 OFFCURVE",
"507 370 CURVE",
"599 391 OFFCURVE",
"645 461 OFFCURVE",
"645 535 CURVE SMOOTH",
"645 641 OFFCURVE",
"581 700 OFFCURVE",
"389 700 CURVE SMOOTH",
"11 700 LINE",
"11 652 LINE",
"43 652 LINE SMOOTH",
"81 652 OFFCURVE",
"97 638 OFFCURVE",
"97 612 CURVE SMOOTH",
"97 88 LINE SMOOTH",
"97 62 OFFCURVE",
"81 48 OFFCURVE",
"43 48 CURVE SMOOTH",
"11 48 LINE",
"11 0 LINE"
);
},
{
closed = 1;
nodes = (
"305 334 LINE",
"360 334 LINE SMOOTH",
"432 334 OFFCURVE",
"476 292 OFFCURVE",
"476 206 CURVE SMOOTH",
"476 118 OFFCURVE",
"439 68 OFFCURVE",
"372 68 CURVE SMOOTH",
"305 68 LINE"
);
},
{
closed = 1;
nodes = (
"305 632 LINE",
"344 632 LINE SMOOTH",
"403 632 OFFCURVE",
"436 598 OFFCURVE",
"436 524 CURVE SMOOTH",
"436 450 OFFCURVE",
"410 401 OFFCURVE",
"350 401 CURVE SMOOTH",
"305 401 LINE"
);
}
);
width = 704;
}
);
note = B;
unicode = 0042;
},
{
glyphname = C;
lastChange = "2015-12-01 13:46:12 +0000";
layers = (
{
layerId = "9C69E37B-FF92-47DE-801E-679C7E50BD15";
name = Bold;
paths = (
{
closed = 1;
nodes = (
"581 -10 OFFCURVE",
"684 77 OFFCURVE",
"707 176 CURVE",
"640 176 LINE",
"594 84 OFFCURVE",
"509 61 OFFCURVE",
"429 61 CURVE SMOOTH",
"310 61 OFFCURVE",
"242 165 OFFCURVE",
"242 350 CURVE SMOOTH",
"242 534 OFFCURVE",
"325 639 OFFCURVE",
"447 639 CURVE SMOOTH",
"526 639 OFFCURVE",
"621 604 OFFCURVE",
"637 486 CURVE",
"694 486 LINE",
"694 705 LINE",
"629 705 LINE",
"629 659 LINE SMOOTH",
"629 653 OFFCURVE",
"625 651 OFFCURVE",
"621 651 CURVE SMOOTH",
"617 651 OFFCURVE",
"613 653 OFFCURVE",
"612 654 CURVE",
"568 682 OFFCURVE",
"500 710 OFFCURVE",
"398 710 CURVE SMOOTH",
"150 710 OFFCURVE",
"31 562 OFFCURVE",
"31 350 CURVE SMOOTH",
"31 138 OFFCURVE",
"150 -10 OFFCURVE",
"404 -10 CURVE SMOOTH"
);
}
);
width = 740;
}
);
leftKerningGroup = C;
note = C;
unicode = 0043;
},
{
glyphname = Cacute;
lastChange = "2015-12-01 13:46:18 +0000";
layers = (
{
layerId = "9C69E37B-FF92-47DE-801E-679C7E50BD15";
name = Bold;
paths = (
{
closed = 1;
nodes = (
"581 -10 OFFCURVE",
"684 77 OFFCURVE",
"707 176 CURVE",
"640 176 LINE",
"594 84 OFFCURVE",
"509 61 OFFCURVE",
"429 61 CURVE SMOOTH",
"310 61 OFFCURVE",
"242 165 OFFCURVE",
"242 350 CURVE SMOOTH",
"242 534 OFFCURVE",
"325 639 OFFCURVE",
"447 639 CURVE SMOOTH",
"526 639 OFFCURVE",
"621 604 OFFCURVE",
"637 486 CURVE",
"694 486 LINE",
"694 705 LINE",
"629 705 LINE",
"629 659 LINE SMOOTH",
"629 653 OFFCURVE",
"625 651 OFFCURVE",
"621 651 CURVE SMOOTH",
"617 651 OFFCURVE",
"613 653 OFFCURVE",
"612 654 CURVE",
"568 682 OFFCURVE",
"500 710 OFFCURVE",
"398 710 CURVE SMOOTH",
"150 710 OFFCURVE",
"31 562 OFFCURVE",
"31 350 CURVE SMOOTH",
"31 138 OFFCURVE",
"150 -10 OFFCURVE",
"404 -10 CURVE SMOOTH"
);
},
{
closed = 1;
nodes = (
"535 874 LINE SMOOTH",
"574 897 OFFCURVE",
"597 920 OFFCURVE",
"597 950 CURVE SMOOTH",
"597 974 OFFCURVE",
"579 1005 OFFCURVE",
"532 1005 CURVE SMOOTH",
"491 1005 OFFCURVE",
"460 969 OFFCURVE",
"454 962 CURVE SMOOTH",
"327 823 LINE",
"363 773 LINE"
);
}
);
width = 740;
}
);
leftKerningGroup = C;
note = Cacute;
unicode = 0106;
},
{
glyphname = Ccaron;
lastChange = "2015-12-01 13:46:16 +0000";
layers = (
{
layerId = "9C69E37B-FF92-47DE-801E-679C7E50BD15";
name = Bold;
paths = (
{
closed = 1;
nodes = (
"581 -10 OFFCURVE",
"684 77 OFFCURVE",
"707 176 CURVE",
"640 176 LINE",
"594 84 OFFCURVE",
"509 61 OFFCURVE",
"429 61 CURVE SMOOTH",
"310 61 OFFCURVE",
"242 165 OFFCURVE",
"242 350 CURVE SMOOTH",
"242 534 OFFCURVE",
"325 639 OFFCURVE",
"447 639 CURVE SMOOTH",
"526 639 OFFCURVE",
"621 604 OFFCURVE",
"637 486 CURVE",
"694 486 LINE",
"694 705 LINE",
"629 705 LINE",
"629 659 LINE SMOOTH",
"629 653 OFFCURVE",
"625 651 OFFCURVE",
"621 651 CURVE SMOOTH",
"617 651 OFFCURVE",
"613 653 OFFCURVE",
"612 654 CURVE",
"568 682 OFFCURVE",
"500 710 OFFCURVE",
"398 710 CURVE SMOOTH",
"150 710 OFFCURVE",
"31 562 OFFCURVE",
"31 350 CURVE SMOOTH",
"31 138 OFFCURVE",
"150 -10 OFFCURVE",
"404 -10 CURVE SMOOTH"
);
},
{
closed = 1;
nodes = (
"478 775 LINE",
"641 960 LINE",
"614 990 LINE",
"472 887 LINE SMOOTH",
"455 875 OFFCURVE",
"440 866 OFFCURVE",
"428 866 CURVE SMOOTH",
"417 866 OFFCURVE",
"401 875 OFFCURVE",
"384 887 CURVE SMOOTH",
"242 990 LINE",
"215 960 LINE",
"378 775 LINE"
);
}
);
width = 740;
}
);
leftKerningGroup = C;
note = Ccaron;
unicode = 010C;
},
{
glyphname = Ccedilla;
lastChange = "2015-12-01 13:46:16 +0000";
layers = (
{
layerId = "9C69E37B-FF92-47DE-801E-679C7E50BD15";
name = Bold;
paths = (
{
closed = 1;
nodes = (
"581 -10 OFFCURVE",
"684 77 OFFCURVE",
"707 176 CURVE",
"640 176 LINE",
"594 84 OFFCURVE",
"509 61 OFFCURVE",
"429 61 CURVE SMOOTH",
"310 61 OFFCURVE",
"242 165 OFFCURVE",
"242 350 CURVE SMOOTH",
"242 534 OFFCURVE",
"325 639 OFFCURVE",
"447 639 CURVE SMOOTH",
"526 639 OFFCURVE",
"621 604 OFFCURVE",
"637 486 CURVE",
"694 486 LINE",
"694 705 LINE",
"629 705 LINE",
"629 659 LINE SMOOTH",
"629 653 OFFCURVE",
"625 651 OFFCURVE",
"621 651 CURVE SMOOTH",
"617 651 OFFCURVE",
"613 653 OFFCURVE",
"612 654 CURVE",
"568 682 OFFCURVE",
"500 710 OFFCURVE",
"398 710 CURVE SMOOTH",
"150 710 OFFCURVE",
"31 562 OFFCURVE",
"31 350 CURVE SMOOTH",
"31 138 OFFCURVE",
"150 -10 OFFCURVE",
"404 -10 CURVE SMOOTH"
);
},
{
closed = 1;
nodes = (
"367 -266 OFFCURVE",
"498 -256 OFFCURVE",
"498 -142 CURVE SMOOTH",
"498 -66 OFFCURVE",
"413 -44 OFFCURVE",
"378 -38 CURVE",
"424 30 LINE",
"355 30 LINE",
"282 -80 LINE",
"290 -92 LINE",
"313 -94 OFFCURVE",
"375 -106 OFFCURVE",
"375 -152 CURVE SMOOTH",
"375 -207 OFFCURVE",
"317 -221 OFFCURVE",
"247 -221 CURVE",
"247 -262 LINE",
"269 -265 OFFCURVE",
"283 -266 OFFCURVE",
"308 -266 CURVE SMOOTH"
);
}
);
width = 740;
}
);
leftKerningGroup = C;
note = Ccedilla;
unicode = 00C7;
},
{
glyphname = Ccircumflex;
lastChange = "2015-12-01 13:46:17 +0000";
layers = (
{
layerId = "9C69E37B-FF92-47DE-801E-679C7E50BD15";
name = Bold;
paths = (
{
closed = 1;
nodes = (
"581 -10 OFFCURVE",
"684 77 OFFCURVE",
"707 176 CURVE",
"640 176 LINE",
"594 84 OFFCURVE",
"509 61 OFFCURVE",
"429 61 CURVE SMOOTH",
"310 61 OFFCURVE",
"242 165 OFFCURVE",
"242 350 CURVE SMOOTH",
"242 534 OFFCURVE",
"325 639 OFFCURVE",
"447 639 CURVE SMOOTH",
"526 639 OFFCURVE",
"621 604 OFFCURVE",
"637 486 CURVE",
"694 486 LINE",
"694 705 LINE",
"629 705 LINE",
"629 659 LINE SMOOTH",
"629 653 OFFCURVE",
"625 651 OFFCURVE",
"621 651 CURVE SMOOTH",
"617 651 OFFCURVE",
"613 653 OFFCURVE",
"612 654 CURVE",
"568 682 OFFCURVE",
"500 710 OFFCURVE",
"398 710 CURVE SMOOTH",
"150 710 OFFCURVE",
"31 562 OFFCURVE",
"31 350 CURVE SMOOTH",
"31 138 OFFCURVE",
"150 -10 OFFCURVE",
"404 -10 CURVE SMOOTH"
);
},
{
closed = 1;
nodes = (
"371 878 LINE SMOOTH",
"388 890 OFFCURVE",
"404 899 OFFCURVE",
"415 899 CURVE SMOOTH",
"427 899 OFFCURVE",
"442 890 OFFCURVE",
"459 878 CURVE SMOOTH",
"601 775 LINE",
"628 805 LINE",
"465 990 LINE",
"365 990 LINE",
"202 805 LINE",
"229 775 LINE"
);
}
);
width = 740;
}
);
leftKerningGroup = C;
note = Ccircumflex;
unicode = 0108;
},
{
glyphname = Cdotaccent;
lastChange = "2015-12-01 13:46:17 +0000";
layers = (
{
layerId = "9C69E37B-FF92-47DE-801E-679C7E50BD15";
name = Bold;
paths = (
{
closed = 1;
nodes = (
"581 -10 OFFCURVE",
"684 77 OFFCURVE",
"707 176 CURVE",
"640 176 LINE",
"594 84 OFFCURVE",
"509 61 OFFCURVE",
"429 61 CURVE SMOOTH",
"310 61 OFFCURVE",
"242 165 OFFCURVE",
"242 350 CURVE SMOOTH",
"242 534 OFFCURVE",
"325 639 OFFCURVE",
"447 639 CURVE SMOOTH",
"526 639 OFFCURVE",
"621 604 OFFCURVE",
"637 486 CURVE",
"694 486 LINE",
"694 705 LINE",
"629 705 LINE",
"629 659 LINE SMOOTH",
"629 653 OFFCURVE",
"625 651 OFFCURVE",
"621 651 CURVE SMOOTH",
"617 651 OFFCURVE",
"613 653 OFFCURVE",
"612 654 CURVE",
"568 682 OFFCURVE",
"500 710 OFFCURVE",
"398 710 CURVE SMOOTH",
"150 710 OFFCURVE",
"31 562 OFFCURVE",
"31 350 CURVE SMOOTH",
"31 138 OFFCURVE",
"150 -10 OFFCURVE",
"404 -10 CURVE SMOOTH"
);
},
{
closed = 1;
nodes = (
"482 775 OFFCURVE",
"511 808 OFFCURVE",
"511 850 CURVE SMOOTH",
"511 892 OFFCURVE",
"482 926 OFFCURVE",
"435 926 CURVE SMOOTH",
"388 926 OFFCURVE",
"360 892 OFFCURVE",
"360 850 CURVE SMOOTH",
"360 808 OFFCURVE",
"388 775 OFFCURVE",
"435 775 CURVE SMOOTH"
);
}
);
width = 740;
}
);
leftKerningGroup = C;
note = Cdotaccent;
unicode = 010A;
},
{
glyphname = D;
lastChange = "2015-12-01 13:46:17 +0000";
layers = (
{
layerId = "9C69E37B-FF92-47DE-801E-679C7E50BD15";
name = Bold;
paths = (
{
closed = 1;
nodes = (
"379 0 LINE SMOOTH",
"637 0 OFFCURVE",
"748 113 OFFCURVE",
"748 350 CURVE SMOOTH",
"748 584 OFFCURVE",
"637 700 OFFCURVE",
"380 700 CURVE SMOOTH",
"10 700 LINE",
"10 652 LINE",
"42 652 LINE SMOOTH",
"80 652 OFFCURVE",
"96 638 OFFCURVE",
"96 612 CURVE SMOOTH",
"96 88 LINE SMOOTH",
"96 62 OFFCURVE",
"80 48 OFFCURVE",
"42 48 CURVE SMOOTH",
"10 48 LINE",
"10 0 LINE"
);
},
{
closed = 1;
nodes = (
"304 632 LINE",
"379 632 LINE SMOOTH",
"479 632 OFFCURVE",
"537 538 OFFCURVE",
"537 350 CURVE SMOOTH",
"537 159 OFFCURVE",
"476 68 OFFCURVE",
"378 68 CURVE SMOOTH",
"304 68 LINE"
);
}
);
width = 789;
}
);
note = D;
rightKerningGroup = D;
unicode = 0044;
},
{
glyphname = Eth;
lastChange = "2015-12-01 13:46:46 +0000";
layers = (
{
layerId = "9C69E37B-FF92-47DE-801E-679C7E50BD15";
name = Bold;
paths = (
{
closed = 1;
nodes = (
"379 0 LINE SMOOTH",
"637 0 OFFCURVE",
"748 113 OFFCURVE",
"748 350 CURVE SMOOTH",
"748 584 OFFCURVE",
"637 700 OFFCURVE",
"380 700 CURVE SMOOTH",
"10 700 LINE",
"10 652 LINE",
"42 652 LINE SMOOTH",
"80 652 OFFCURVE",
"96 638 OFFCURVE",
"96 612 CURVE SMOOTH",
"96 88 LINE SMOOTH",
"96 62 OFFCURVE",
"80 48 OFFCURVE",
"42 48 CURVE SMOOTH",
"10 48 LINE",
"10 0 LINE"
);
},
{
closed = 1;
nodes = (
"304 632 LINE",
"379 632 LINE SMOOTH",
"479 632 OFFCURVE",
"537 538 OFFCURVE",
"537 350 CURVE SMOOTH",
"537 159 OFFCURVE",
"476 68 OFFCURVE",
"378 68 CURVE SMOOTH",
"304 68 LINE"
);
},
{
closed = 1;
nodes = (
"485 291 LINE",
"485 378 LINE",
"10 378 LINE",
"10 291 LINE"
);
}
);
width = 789;
}
);
note = Eth;
rightKerningGroup = D;
unicode = 00D0;
},
{
glyphname = Dcaron;
lastChange = "2015-12-01 13:46:18 +0000";
layers = (
{
layerId = "9C69E37B-FF92-47DE-801E-679C7E50BD15";
name = Bold;
paths = (
{
closed = 1;
nodes = (
"379 0 LINE SMOOTH",
"637 0 OFFCURVE",
"748 113 OFFCURVE",
"748 350 CURVE SMOOTH",
"748 584 OFFCURVE",
"637 700 OFFCURVE",
"380 700 CURVE SMOOTH",
"10 700 LINE",
"10 652 LINE",
"42 652 LINE SMOOTH",
"80 652 OFFCURVE",
"96 638 OFFCURVE",
"96 612 CURVE SMOOTH",
"96 88 LINE SMOOTH",
"96 62 OFFCURVE",
"80 48 OFFCURVE",
"42 48 CURVE SMOOTH",
"10 48 LINE",
"10 0 LINE"
);
},
{
closed = 1;
nodes = (
"304 632 LINE",
"379 632 LINE SMOOTH",
"479 632 OFFCURVE",
"537 538 OFFCURVE",
"537 350 CURVE SMOOTH",
"537 159 OFFCURVE",
"476 68 OFFCURVE",
"378 68 CURVE SMOOTH",
"304 68 LINE"
);
},
{
closed = 1;
nodes = (
"405 775 LINE",
"568 960 LINE",
"541 990 LINE",
"399 887 LINE SMOOTH",
"382 875 OFFCURVE",
"367 866 OFFCURVE",
"355 866 CURVE SMOOTH",
"344 866 OFFCURVE",
"328 875 OFFCURVE",
"311 887 CURVE SMOOTH",
"169 990 LINE",
"142 960 LINE",
"305 775 LINE"
);
}
);
width = 789;
}
);
note = Dcaron;
rightKerningGroup = D;
unicode = 010E;
},
{
glyphname = Dcroat;
lastChange = "2015-12-01 13:48:06 +0000";
layers = (
{
layerId = "9C69E37B-FF92-47DE-801E-679C7E50BD15";
name = Bold;
paths = (
{
closed = 1;
nodes = (
"379 0 LINE SMOOTH",
"637 0 OFFCURVE",
"748 113 OFFCURVE",
"748 350 CURVE SMOOTH",
"748 584 OFFCURVE",
"637 700 OFFCURVE",
"380 700 CURVE SMOOTH",
"10 700 LINE",
"10 652 LINE",
"42 652 LINE SMOOTH",
"80 652 OFFCURVE",
"96 638 OFFCURVE",
"96 612 CURVE SMOOTH",
"96 88 LINE SMOOTH",
"96 62 OFFCURVE",
"80 48 OFFCURVE",
"42 48 CURVE SMOOTH",
"10 48 LINE",
"10 0 LINE"
);
},
{
closed = 1;
nodes = (
"304 632 LINE",
"379 632 LINE SMOOTH",
"479 632 OFFCURVE",
"537 538 OFFCURVE",
"537 350 CURVE SMOOTH",
"537 159 OFFCURVE",
"476 68 OFFCURVE",
"378 68 CURVE SMOOTH",
"304 68 LINE"
);
},
{
closed = 1;
nodes = (
"485 291 LINE",
"485 378 LINE",
"10 378 LINE",
"10 291 LINE"
);
}
);
width = 789;
}
);
note = Dcroat;
rightKerningGroup = D;
unicode = 0110;
},
{
glyphname = Ddotbelow;
lastChange = "2015-12-01 13:48:10 +0000";
layers = (
{
layerId = "9C69E37B-FF92-47DE-801E-679C7E50BD15";
name = Bold;
paths = (
{
closed = 1;
nodes = (
"379 0 LINE SMOOTH",
"637 0 OFFCURVE",
"748 113 OFFCURVE",
"748 350 CURVE SMOOTH",
"748 584 OFFCURVE",
"637 700 OFFCURVE",
"380 700 CURVE SMOOTH",
"10 700 LINE",
"10 652 LINE",
"42 652 LINE SMOOTH",
"80 652 OFFCURVE",
"96 638 OFFCURVE",
"96 612 CURVE SMOOTH",
"96 88 LINE SMOOTH",
"96 62 OFFCURVE",
"80 48 OFFCURVE",
"42 48 CURVE SMOOTH",
"10 48 LINE",
"10 0 LINE"
);
},
{
closed = 1;
nodes = (
"304 632 LINE",
"379 632 LINE SMOOTH",
"479 632 OFFCURVE",
"537 538 OFFCURVE",
"537 350 CURVE SMOOTH",
"537 159 OFFCURVE",
"476 68 OFFCURVE",
"378 68 CURVE SMOOTH",
"304 68 LINE"
);
},
{
closed = 1;
nodes = (
"441 -216 OFFCURVE",
"470 -183 OFFCURVE",
"470 -141 CURVE SMOOTH",
"470 -99 OFFCURVE",
"441 -64 OFFCURVE",
"394 -64 CURVE SMOOTH",
"347 -64 OFFCURVE",
"318 -99 OFFCURVE",
"318 -141 CURVE SMOOTH",
"318 -183 OFFCURVE",
"347 -216 OFFCURVE",
"394 -216 CURVE SMOOTH"
);
}
);
width = 789;
}
);
note = Ddotbelow;
rightKerningGroup = D;
unicode = 1E0C;
},
{
glyphname = Dlinebelow;
lastChange = "2015-12-01 13:48:13 +0000";
layers = (
{
layerId = "9C69E37B-FF92-47DE-801E-679C7E50BD15";
name = Bold;
paths = (
{
closed = 1;
nodes = (
"379 0 LINE SMOOTH",
"637 0 OFFCURVE",
"748 113 OFFCURVE",
"748 350 CURVE SMOOTH",
"748 584 OFFCURVE",
"637 700 OFFCURVE",
"380 700 CURVE SMOOTH",
"10 700 LINE",
"10 652 LINE",
"42 652 LINE SMOOTH",
"80 652 OFFCURVE",
"96 638 OFFCURVE",
"96 612 CURVE SMOOTH",
"96 88 LINE SMOOTH",
"96 62 OFFCURVE",
"80 48 OFFCURVE",
"42 48 CURVE SMOOTH",
"10 48 LINE",
"10 0 LINE"
);
},
{
closed = 1;
nodes = (
"304 632 LINE",
"379 632 LINE SMOOTH",
"479 632 OFFCURVE",
"537 538 OFFCURVE",
"537 350 CURVE SMOOTH",
"537 159 OFFCURVE",
"476 68 OFFCURVE",
"378 68 CURVE SMOOTH",
"304 68 LINE"
);
},
{
closed = 1;
nodes = (
"587 -130 LINE",
"587 -64 LINE",
"157 -64 LINE",
"157 -130 LINE"
);
}
);
width = 789;
}
);
note = Dlinebelow;
rightKerningGroup = D;
unicode = 1E0E;
},
{
glyphname = E;
lastChange = "2015-12-01 13:46:16 +0000";
layers = (
{
layerId = "9C69E37B-FF92-47DE-801E-679C7E50BD15";
name = Bold;
paths = (
{
closed = 1;
nodes = (
"639 0 LINE",
"661 203 LINE",
"612 203 LINE",
"600 128 OFFCURVE",
"579 68 OFFCURVE",
"505 68 CURVE SMOOTH",
"304 68 LINE",
"304 632 LINE",
"475 632 LINE SMOOTH",
"574 632 OFFCURVE",
"587 532 OFFCURVE",
"591 496 CURVE",
"640 496 LINE",
"640 700 LINE",
"10 700 LINE",
"10 652 LINE",
"42 652 LINE SMOOTH",
"80 652 OFFCURVE",
"96 638 OFFCURVE",
"96 612 CURVE SMOOTH",
"96 88 LINE SMOOTH",
"96 62 OFFCURVE",
"80 48 OFFCURVE",
"42 48 CURVE SMOOTH",
"10 48 LINE",
"10 0 LINE"
);
},
{
closed = 1;
nodes = (
"518 240 LINE",
"518 482 LINE",
"479 482 LINE",
"475 440 OFFCURVE",
"469 395 OFFCURVE",
"424 395 CURVE SMOOTH",
"221 395 LINE",
"221 327 LINE",
"424 327 LINE SMOOTH",
"469 327 OFFCURVE",
"475 282 OFFCURVE",
"479 240 CURVE"
);
}
);
width = 691;
}
);
note = E;
unicode = 0045;
},
{
glyphname = Eacute;
lastChange = "2015-12-01 13:46:18 +0000";
layers = (
{
layerId = "9C69E37B-FF92-47DE-801E-679C7E50BD15";
name = Bold;
paths = (
{
closed = 1;
nodes = (
"639 0 LINE",
"661 203 LINE",
"612 203 LINE",
"600 128 OFFCURVE",
"579 68 OFFCURVE",
"505 68 CURVE SMOOTH",
"304 68 LINE",
"304 632 LINE",
"475 632 LINE SMOOTH",
"574 632 OFFCURVE",
"587 532 OFFCURVE",
"591 496 CURVE",
"640 496 LINE",
"640 700 LINE",
"10 700 LINE",
"10 652 LINE",
"42 652 LINE SMOOTH",
"80 652 OFFCURVE",
"96 638 OFFCURVE",
"96 612 CURVE SMOOTH",
"96 88 LINE SMOOTH",
"96 62 OFFCURVE",
"80 48 OFFCURVE",
"42 48 CURVE SMOOTH",
"10 48 LINE",
"10 0 LINE"
);
},
{
closed = 1;
nodes = (
"518 240 LINE",
"518 482 LINE",
"479 482 LINE",
"475 440 OFFCURVE",
"469 395 OFFCURVE",
"424 395 CURVE SMOOTH",
"221 395 LINE",
"221 327 LINE",
"424 327 LINE SMOOTH",
"469 327 OFFCURVE",
"475 282 OFFCURVE",
"479 240 CURVE"
);
},
{
closed = 1;
nodes = (
"478 874 LINE SMOOTH",
"517 897 OFFCURVE",
"540 920 OFFCURVE",
"540 950 CURVE SMOOTH",
"540 974 OFFCURVE",
"522 1005 OFFCURVE",
"475 1005 CURVE SMOOTH",
"434 1005 OFFCURVE",
"403 969 OFFCURVE",
"397 962 CURVE SMOOTH",
"270 823 LINE",
"306 773 LINE"
);
}
);
width = 691;
}
);
note = Eacute;
unicode = 00C9;
},
{
glyphname = Ebreve;
lastChange = "2015-12-01 13:46:18 +0000";
layers = (
{
layerId = "9C69E37B-FF92-47DE-801E-679C7E50BD15";
name = Bold;
paths = (
{
closed = 1;
nodes = (
"639 0 LINE",
"661 203 LINE",
"612 203 LINE",
"600 128 OFFCURVE",
"579 68 OFFCURVE",
"505 68 CURVE SMOOTH",
"304 68 LINE",
"304 632 LINE",
"475 632 LINE SMOOTH",
"574 632 OFFCURVE",
"587 532 OFFCURVE",
"591 496 CURVE",
"640 496 LINE",
"640 700 LINE",
"10 700 LINE",
"10 652 LINE",
"42 652 LINE SMOOTH",
"80 652 OFFCURVE",
"96 638 OFFCURVE",
"96 612 CURVE SMOOTH",
"96 88 LINE SMOOTH",
"96 62 OFFCURVE",
"80 48 OFFCURVE",
"42 48 CURVE SMOOTH",
"10 48 LINE",
"10 0 LINE"
);
},
{
closed = 1;
nodes = (
"518 240 LINE",
"518 482 LINE",
"479 482 LINE",
"475 440 OFFCURVE",
"469 395 OFFCURVE",
"424 395 CURVE SMOOTH",
"221 395 LINE",
"221 327 LINE",
"424 327 LINE SMOOTH",
"469 327 OFFCURVE",
"475 282 OFFCURVE",
"479 240 CURVE"
);
},
{
closed = 1;
nodes = (
"546 777 OFFCURVE",
"571 867 OFFCURVE",
"571 937 CURVE",
"525 937 LINE",
"523 913 OFFCURVE",
"503 860 OFFCURVE",
"397 860 CURVE SMOOTH",
"291 860 OFFCURVE",
"271 913 OFFCURVE",
"269 937 CURVE",
"224 937 LINE",
"224 861 OFFCURVE",
"249 777 OFFCURVE",
"398 777 CURVE SMOOTH"
);
}
);
width = 691;
}
);
note = Ebreve;
unicode = 0114;
},
{
glyphname = Ecaron;
lastChange = "2015-12-01 13:46:18 +0000";
layers = (
{
layerId = "9C69E37B-FF92-47DE-801E-679C7E50BD15";
name = Bold;
paths = (
{
closed = 1;
nodes = (
"639 0 LINE",
"661 203 LINE",
"612 203 LINE",
"600 128 OFFCURVE",
"579 68 OFFCURVE",
"505 68 CURVE SMOOTH",
"304 68 LINE",
"304 632 LINE",
"475 632 LINE SMOOTH",
"574 632 OFFCURVE",
"587 532 OFFCURVE",
"591 496 CURVE",
"640 496 LINE",
"640 700 LINE",
"10 700 LINE",
"10 652 LINE",
"42 652 LINE SMOOTH",
"80 652 OFFCURVE",
"96 638 OFFCURVE",
"96 612 CURVE SMOOTH",
"96 88 LINE SMOOTH",
"96 62 OFFCURVE",
"80 48 OFFCURVE",
"42 48 CURVE SMOOTH",
"10 48 LINE",
"10 0 LINE"
);
},
{
closed = 1;
nodes = (
"518 240 LINE",
"518 482 LINE",
"479 482 LINE",
"475 440 OFFCURVE",
"469 395 OFFCURVE",
"424 395 CURVE SMOOTH",
"221 395 LINE",
"221 327 LINE",
"424 327 LINE SMOOTH",
"469 327 OFFCURVE",
"475 282 OFFCURVE",
"479 240 CURVE"
);
},
{
closed = 1;
nodes = (
"444 775 LINE",
"607 960 LINE",
"580 990 LINE",
"438 887 LINE SMOOTH",
"421 875 OFFCURVE",
"406 866 OFFCURVE",
"394 866 CURVE SMOOTH",
"383 866 OFFCURVE",
"367 875 OFFCURVE",
"350 887 CURVE SMOOTH",
"208 990 LINE",
"181 960 LINE",
"344 775 LINE"
);
}
);
width = 691;
}
);
note = Ecaron;
unicode = 011A;
},
{
glyphname = Ecircumflex;
lastChange = "2015-12-01 13:46:18 +0000";
layers = (
{
layerId = "9C69E37B-FF92-47DE-801E-679C7E50BD15";
name = Bold;
paths = (
{
closed = 1;
nodes = (
"639 0 LINE",
"661 203 LINE",
"612 203 LINE",
"600 128 OFFCURVE",
"579 68 OFFCURVE",
"505 68 CURVE SMOOTH",
"304 68 LINE",
"304 632 LINE",
"475 632 LINE SMOOTH",
"574 632 OFFCURVE",
"587 532 OFFCURVE",
"591 496 CURVE",
"640 496 LINE",
"640 700 LINE",
"10 700 LINE",
"10 652 LINE",
"42 652 LINE SMOOTH",
"80 652 OFFCURVE",
"96 638 OFFCURVE",
"96 612 CURVE SMOOTH",
"96 88 LINE SMOOTH",
"96 62 OFFCURVE",
"80 48 OFFCURVE",
"42 48 CURVE SMOOTH",
"10 48 LINE",
"10 0 LINE"
);
},
{
closed = 1;
nodes = (
"518 240 LINE",
"518 482 LINE",
"479 482 LINE",
"475 440 OFFCURVE",
"469 395 OFFCURVE",
"424 395 CURVE SMOOTH",
"221 395 LINE",
"221 327 LINE",
"424 327 LINE SMOOTH",
"469 327 OFFCURVE",
"475 282 OFFCURVE",
"479 240 CURVE"
);
},
{
closed = 1;
nodes = (
"343 878 LINE SMOOTH",
"360 890 OFFCURVE",
"376 899 OFFCURVE",
"387 899 CURVE SMOOTH",
"399 899 OFFCURVE",
"414 890 OFFCURVE",
"431 878 CURVE SMOOTH",
"573 775 LINE",
"600 805 LINE",
"437 990 LINE",
"337 990 LINE",
"174 805 LINE",
"201 775 LINE"
);
}
);
width = 691;
}
);
note = Ecircumflex;
unicode = 00CA;
},
{
glyphname = Ecircumflexacute;
lastChange = "2015-12-01 13:46:16 +0000";
layers = (
{
layerId = "9C69E37B-FF92-47DE-801E-679C7E50BD15";
name = Bold;
paths = (
{
closed = 1;
nodes = (
"639 0 LINE",
"661 203 LINE",
"612 203 LINE",
"600 128 OFFCURVE",
"579 68 OFFCURVE",
"505 68 CURVE SMOOTH",
"304 68 LINE",
"304 632 LINE",
"475 632 LINE SMOOTH",
"574 632 OFFCURVE",
"587 532 OFFCURVE",
"591 496 CURVE",
"640 496 LINE",
"640 700 LINE",
"10 700 LINE",
"10 652 LINE",
"42 652 LINE SMOOTH",
"80 652 OFFCURVE",
"96 638 OFFCURVE",
"96 612 CURVE SMOOTH",
"96 88 LINE SMOOTH",
"96 62 OFFCURVE",
"80 48 OFFCURVE",
"42 48 CURVE SMOOTH",
"10 48 LINE",
"10 0 LINE"
);
},
{
closed = 1;
nodes = (
"518 240 LINE",
"518 482 LINE",
"479 482 LINE",
"475 440 OFFCURVE",
"469 395 OFFCURVE",
"424 395 CURVE SMOOTH",
"221 395 LINE",
"221 327 LINE",
"424 327 LINE SMOOTH",
"469 327 OFFCURVE",
"475 282 OFFCURVE",
"479 240 CURVE"
);
},
{
closed = 1;
nodes = (
"318 877 LINE SMOOTH",
"334 889 OFFCURVE",
"349 898 OFFCURVE",
"360 898 CURVE SMOOTH",
"372 898 OFFCURVE",
"386 889 OFFCURVE",
"402 877 CURVE SMOOTH",
"539 774 LINE",
"565 804 LINE",
"408 989 LINE",
"312 989 LINE",
"155 804 LINE",
"181 774 LINE"
);
},
{
closed = 1;
nodes = (
"633 976 LINE SMOOTH",
"675 997 OFFCURVE",
"703 1023 OFFCURVE",
"703 1053 CURVE SMOOTH",
"703 1076 OFFCURVE",
"685 1112 OFFCURVE",
"638 1112 CURVE SMOOTH",
"602 1112 OFFCURVE",
"574 1081 OFFCURVE",
"559 1062 CURVE SMOOTH",
"481 962 LINE",
"514 919 LINE"
);
}
);
width = 691;
}
);
note = Ecircumflexacute;
unicode = 1EBE;
},
{
glyphname = Ecircumflexdotbelow;
lastChange = "2015-12-01 13:46:18 +0000";
layers = (
{
layerId = "9C69E37B-FF92-47DE-801E-679C7E50BD15";
name = Bold;
paths = (
{
closed = 1;
nodes = (
"639 0 LINE",
"661 203 LINE",
"612 203 LINE",
"600 128 OFFCURVE",
"579 68 OFFCURVE",
"505 68 CURVE SMOOTH",
"304 68 LINE",
"304 632 LINE",
"475 632 LINE SMOOTH",
"574 632 OFFCURVE",
"587 532 OFFCURVE",
"591 496 CURVE",
"640 496 LINE",
"640 700 LINE",
"10 700 LINE",
"10 652 LINE",
"42 652 LINE SMOOTH",
"80 652 OFFCURVE",
"96 638 OFFCURVE",
"96 612 CURVE SMOOTH",
"96 88 LINE SMOOTH",
"96 62 OFFCURVE",
"80 48 OFFCURVE",
"42 48 CURVE SMOOTH",
"10 48 LINE",
"10 0 LINE"
);
},
{
closed = 1;
nodes = (
"411 -216 OFFCURVE",
"440 -183 OFFCURVE",
"440 -141 CURVE SMOOTH",
"440 -99 OFFCURVE",
"411 -64 OFFCURVE",
"364 -64 CURVE SMOOTH",
"317 -64 OFFCURVE",
"288 -99 OFFCURVE",
"288 -141 CURVE SMOOTH",
"288 -183 OFFCURVE",
"317 -216 OFFCURVE",
"364 -216 CURVE SMOOTH"
);
},
{
closed = 1;
nodes = (
"518 240 LINE",
"518 482 LINE",
"479 482 LINE",
"475 440 OFFCURVE",
"469 395 OFFCURVE",
"424 395 CURVE SMOOTH",
"221 395 LINE",
"221 327 LINE",
"424 327 LINE SMOOTH",
"469 327 OFFCURVE",
"475 282 OFFCURVE",
"479 240 CURVE"
);
},
{
closed = 1;
nodes = (
"314 878 LINE SMOOTH",
"331 890 OFFCURVE",
"347 899 OFFCURVE",
"358 899 CURVE SMOOTH",
"370 899 OFFCURVE",
"385 890 OFFCURVE",
"402 878 CURVE SMOOTH",
"544 775 LINE",
"571 805 LINE",
"408 990 LINE",
"308 990 LINE",
"145 805 LINE",
"172 775 LINE"
);
}
);
width = 691;
}
);
note = Ecircumflexdotbelow;
unicode = 1EC6;
},
{
glyphname = Ecircumflexgrave;
lastChange = "2015-12-01 13:46:18 +0000";
layers = (
{
layerId = "9C69E37B-FF92-47DE-801E-679C7E50BD15";
name = Bold;
paths = (
{
closed = 1;
nodes = (
"639 0 LINE",
"661 203 LINE",
"612 203 LINE",
"600 128 OFFCURVE",
"579 68 OFFCURVE",
"505 68 CURVE SMOOTH",
"304 68 LINE",
"304 632 LINE",
"475 632 LINE SMOOTH",
"574 632 OFFCURVE",
"587 532 OFFCURVE",
"591 496 CURVE",
"640 496 LINE",
"640 700 LINE",
"10 700 LINE",
"10 652 LINE",
"42 652 LINE SMOOTH",
"80 652 OFFCURVE",
"96 638 OFFCURVE",
"96 612 CURVE SMOOTH",
"96 88 LINE SMOOTH",
"96 62 OFFCURVE",
"80 48 OFFCURVE",
"42 48 CURVE SMOOTH",
"10 48 LINE",
"10 0 LINE"
);
},
{
closed = 1;
nodes = (
"518 240 LINE",
"518 482 LINE",
"479 482 LINE",
"475 440 OFFCURVE",
"469 395 OFFCURVE",
"424 395 CURVE SMOOTH",
"221 395 LINE",
"221 327 LINE",
"424 327 LINE SMOOTH",
"469 327 OFFCURVE",
"475 282 OFFCURVE",
"479 240 CURVE"
);
},
{
closed = 1;
nodes = (
"240 962 LINE",
"161 1062 LINE SMOOTH",
"146 1081 OFFCURVE",
"119 1112 OFFCURVE",
"83 1112 CURVE SMOOTH",
"36 1112 OFFCURVE",
"18 1076 OFFCURVE",
"18 1053 CURVE SMOOTH",
"18 1023 OFFCURVE",
"45 997 OFFCURVE",
"88 976 CURVE SMOOTH",
"206 919 LINE"
);
},
{
closed = 1;
nodes = (
"318 877 LINE SMOOTH",
"334 889 OFFCURVE",
"349 898 OFFCURVE",
"360 898 CURVE SMOOTH",
"372 898 OFFCURVE",
"386 889 OFFCURVE",
"402 877 CURVE SMOOTH",
"539 774 LINE",
"565 804 LINE",
"408 989 LINE",
"312 989 LINE",
"155 804 LINE",
"181 774 LINE"
);
}
);
width = 691;
}
);
note = Ecircumflexgrave;
unicode = 1EC0;
},
{
glyphname = Ecircumflexhookabove;
lastChange = "2015-12-01 13:46:18 +0000";
layers = (
{
layerId = "9C69E37B-FF92-47DE-801E-679C7E50BD15";
name = Bold;
paths = (
{
closed = 1;
nodes = (
"639 0 LINE",
"661 203 LINE",
"612 203 LINE",
"600 128 OFFCURVE",
"579 68 OFFCURVE",
"505 68 CURVE SMOOTH",
"304 68 LINE",
"304 632 LINE",
"475 632 LINE SMOOTH",
"574 632 OFFCURVE",
"587 532 OFFCURVE",
"591 496 CURVE",
"640 496 LINE",
"640 700 LINE",
"10 700 LINE",
"10 652 LINE",
"42 652 LINE SMOOTH",
"80 652 OFFCURVE",
"96 638 OFFCURVE",
"96 612 CURVE SMOOTH",
"96 88 LINE SMOOTH",
"96 62 OFFCURVE",
"80 48 OFFCURVE",
"42 48 CURVE SMOOTH",
"10 48 LINE",
"10 0 LINE"
);
},
{
closed = 1;
nodes = (
"518 240 LINE",
"518 482 LINE",
"479 482 LINE",
"475 440 OFFCURVE",
"469 395 OFFCURVE",
"424 395 CURVE SMOOTH",
"221 395 LINE",
"221 327 LINE",
"424 327 LINE SMOOTH",
"469 327 OFFCURVE",
"475 282 OFFCURVE",
"479 240 CURVE"
);
},
{
closed = 1;
nodes = (
"318 877 LINE SMOOTH",
"334 889 OFFCURVE",
"349 898 OFFCURVE",
"360 898 CURVE SMOOTH",
"372 898 OFFCURVE",
"386 889 OFFCURVE",
"402 877 CURVE SMOOTH",
"539 774 LINE",
"565 804 LINE",
"408 989 LINE",
"312 989 LINE",
"155 804 LINE",
"181 774 LINE"
);
},
{
closed = 1;
nodes = (
"573 947 LINE",
"562 947 OFFCURVE",
"548 950 OFFCURVE",
"548 970 CURVE SMOOTH",
"548 1013 OFFCURVE",
"654 1018 OFFCURVE",
"654 1080 CURVE SMOOTH",
"654 1126 OFFCURVE",
"602 1148 OFFCURVE",
"545 1148 CURVE SMOOTH",
"461 1148 OFFCURVE",
"438 1110 OFFCURVE",
"438 1091 CURVE SMOOTH",
"438 1067 OFFCURVE",
"456 1057 OFFCURVE",
"473 1057 CURVE SMOOTH",
"490 1057 OFFCURVE",
"507 1067 OFFCURVE",
"507 1084 CURVE SMOOTH",
"507 1111 OFFCURVE",
"529 1118 OFFCURVE",
"543 1118 CURVE SMOOTH",
"563 1118 OFFCURVE",
"572 1101 OFFCURVE",
"572 1088 CURVE SMOOTH",
"572 1030 OFFCURVE",
"487 1019 OFFCURVE",
"487 971 CURVE SMOOTH",
"487 940 OFFCURVE",
"526 924 OFFCURVE",
"566 924 CURVE"
);
}
);
width = 691;
}
);
note = Ecircumflexhookabove;
unicode = 1EC2;
},
{
glyphname = Ecircumflextilde;
lastChange = "2015-12-01 13:46:17 +0000";
layers = (
{
layerId = "9C69E37B-FF92-47DE-801E-679C7E50BD15";
name = Bold;
paths = (
{
closed = 1;
nodes = (
"639 0 LINE",
"661 203 LINE",
"612 203 LINE",
"600 128 OFFCURVE",
"579 68 OFFCURVE",
"505 68 CURVE SMOOTH",
"304 68 LINE",
"304 632 LINE",
"475 632 LINE SMOOTH",
"574 632 OFFCURVE",
"587 532 OFFCURVE",
"591 496 CURVE",
"640 496 LINE",
"640 700 LINE",
"10 700 LINE",
"10 652 LINE",
"42 652 LINE SMOOTH",
"80 652 OFFCURVE",
"96 638 OFFCURVE",
"96 612 CURVE SMOOTH",
"96 88 LINE SMOOTH",
"96 62 OFFCURVE",
"80 48 OFFCURVE",
"42 48 CURVE SMOOTH",
"10 48 LINE",
"10 0 LINE"
);
},
{
closed = 1;
nodes = (
"518 240 LINE",
"518 482 LINE",
"479 482 LINE",
"475 440 OFFCURVE",
"469 395 OFFCURVE",
"424 395 CURVE SMOOTH",
"221 395 LINE",
"221 327 LINE",
"424 327 LINE SMOOTH",
"469 327 OFFCURVE",
"475 282 OFFCURVE",
"479 240 CURVE"
);
},
{
closed = 1;
nodes = (
"318 877 LINE SMOOTH",
"334 889 OFFCURVE",
"349 898 OFFCURVE",
"360 898 CURVE SMOOTH",
"372 898 OFFCURVE",
"386 889 OFFCURVE",
"402 877 CURVE SMOOTH",
"539 774 LINE",
"565 804 LINE",
"408 989 LINE",
"312 989 LINE",
"155 804 LINE",
"181 774 LINE"
);
},
{
closed = 1;
nodes = (
"211 1043 OFFCURVE",
"226 1060 OFFCURVE",
"261 1060 CURVE SMOOTH",
"321 1060 OFFCURVE",
"374 1016 OFFCURVE",
"432 1016 CURVE SMOOTH",
"508 1016 OFFCURVE",
"542 1099 OFFCURVE",
"558 1143 CURVE",
"528 1162 LINE",
"507 1121 OFFCURVE",
"493 1105 OFFCURVE",
"458 1105 CURVE SMOOTH",
"398 1105 OFFCURVE",
"345 1149 OFFCURVE",
"287 1149 CURVE SMOOTH",
"210 1149 OFFCURVE",
"177 1066 OFFCURVE",
"160 1022 CURVE",
"191 1003 LINE"
);
}
);
width = 691;
}
);
note = Ecircumflextilde;
unicode = 1EC4;
},
{
glyphname = Edieresis;
lastChange = "2015-12-01 13:46:17 +0000";
layers = (
{
layerId = "9C69E37B-FF92-47DE-801E-679C7E50BD15";
name = Bold;
paths = (
{
closed = 1;
nodes = (
"639 0 LINE",
"661 203 LINE",
"612 203 LINE",
"600 128 OFFCURVE",
"579 68 OFFCURVE",
"505 68 CURVE SMOOTH",
"304 68 LINE",
"304 632 LINE",
"475 632 LINE SMOOTH",
"574 632 OFFCURVE",
"587 532 OFFCURVE",
"591 496 CURVE",
"640 496 LINE",
"640 700 LINE",
"10 700 LINE",
"10 652 LINE",
"42 652 LINE SMOOTH",
"80 652 OFFCURVE",
"96 638 OFFCURVE",
"96 612 CURVE SMOOTH",
"96 88 LINE SMOOTH",
"96 62 OFFCURVE",
"80 48 OFFCURVE",
"42 48 CURVE SMOOTH",
"10 48 LINE",
"10 0 LINE"
);
},
{
closed = 1;
nodes = (
"518 240 LINE",
"518 482 LINE",
"479 482 LINE",
"475 440 OFFCURVE",
"469 395 OFFCURVE",
"424 395 CURVE SMOOTH",
"221 395 LINE",
"221 327 LINE",
"424 327 LINE SMOOTH",
"469 327 OFFCURVE",
"475 282 OFFCURVE",
"479 240 CURVE"
);
},
{
closed = 1;
nodes = (
"326 775 OFFCURVE",
"355 808 OFFCURVE",
"355 850 CURVE SMOOTH",
"355 892 OFFCURVE",
"326 926 OFFCURVE",
"278 926 CURVE SMOOTH",
"231 926 OFFCURVE",
"203 892 OFFCURVE",
"203 850 CURVE SMOOTH",
"203 808 OFFCURVE",
"231 775 OFFCURVE",
"278 775 CURVE SMOOTH"
);
},
{
closed = 1;
nodes = (
"574 775 OFFCURVE",
"603 808 OFFCURVE",
"603 850 CURVE SMOOTH",
"603 892 OFFCURVE",
"574 926 OFFCURVE",
"527 926 CURVE SMOOTH",
"479 926 OFFCURVE",
"451 892 OFFCURVE",
"451 850 CURVE SMOOTH",
"451 808 OFFCURVE",
"479 775 OFFCURVE",
"527 775 CURVE SMOOTH"
);
}
);
width = 691;
}
);
note = Edieresis;
unicode = 00CB;
},
{
glyphname = Edotaccent;
lastChange = "2015-12-01 13:46:16 +0000";
layers = (
{
layerId = "9C69E37B-FF92-47DE-801E-679C7E50BD15";
name = Bold;
paths = (
{
closed = 1;
nodes = (
"639 0 LINE",
"661 203 LINE",
"612 203 LINE",
"600 128 OFFCURVE",
"579 68 OFFCURVE",
"505 68 CURVE SMOOTH",
"304 68 LINE",
"304 632 LINE",
"475 632 LINE SMOOTH",
"574 632 OFFCURVE",
"587 532 OFFCURVE",
"591 496 CURVE",
"640 496 LINE",
"640 700 LINE",
"10 700 LINE",
"10 652 LINE",
"42 652 LINE SMOOTH",
"80 652 OFFCURVE",
"96 638 OFFCURVE",
"96 612 CURVE SMOOTH",
"96 88 LINE SMOOTH",
"96 62 OFFCURVE",
"80 48 OFFCURVE",
"42 48 CURVE SMOOTH",
"10 48 LINE",
"10 0 LINE"
);
},
{
closed = 1;
nodes = (
"518 240 LINE",
"518 482 LINE",
"479 482 LINE",
"475 440 OFFCURVE",
"469 395 OFFCURVE",
"424 395 CURVE SMOOTH",
"221 395 LINE",
"221 327 LINE",
"424 327 LINE SMOOTH",
"469 327 OFFCURVE",
"475 282 OFFCURVE",
"479 240 CURVE"
);
},
{
closed = 1;
nodes = (
"449 775 OFFCURVE",
"478 808 OFFCURVE",
"478 850 CURVE SMOOTH",
"478 892 OFFCURVE",
"449 926 OFFCURVE",
"402 926 CURVE SMOOTH",
"355 926 OFFCURVE",
"327 892 OFFCURVE",
"327 850 CURVE SMOOTH",
"327 808 OFFCURVE",
"355 775 OFFCURVE",
"402 775 CURVE SMOOTH"
);
}
);
width = 691;
}
);
note = Edotaccent;
unicode = 0116;
},
{
glyphname = Edotbelow;
lastChange = "2015-12-01 13:46:17 +0000";
layers = (
{
layerId = "9C69E37B-FF92-47DE-801E-679C7E50BD15";
name = Bold;
paths = (
{
closed = 1;
nodes = (
"639 0 LINE",
"661 203 LINE",
"612 203 LINE",
"600 128 OFFCURVE",
"579 68 OFFCURVE",
"505 68 CURVE SMOOTH",
"304 68 LINE",
"304 632 LINE",
"475 632 LINE SMOOTH",
"574 632 OFFCURVE",
"587 532 OFFCURVE",
"591 496 CURVE",
"640 496 LINE",
"640 700 LINE",
"10 700 LINE",
"10 652 LINE",
"42 652 LINE SMOOTH",
"80 652 OFFCURVE",
"96 638 OFFCURVE",
"96 612 CURVE SMOOTH",
"96 88 LINE SMOOTH",
"96 62 OFFCURVE",
"80 48 OFFCURVE",
"42 48 CURVE SMOOTH",
"10 48 LINE",
"10 0 LINE"
);
},
{
closed = 1;
nodes = (
"394 -216 OFFCURVE",
"423 -183 OFFCURVE",
"423 -141 CURVE SMOOTH",
"423 -99 OFFCURVE",
"394 -64 OFFCURVE",
"347 -64 CURVE SMOOTH",
"300 -64 OFFCURVE",
"271 -99 OFFCURVE",
"271 -141 CURVE SMOOTH",
"271 -183 OFFCURVE",
"300 -216 OFFCURVE",
"347 -216 CURVE SMOOTH"
);
},
{
closed = 1;
nodes = (
"518 240 LINE",
"518 482 LINE",
"479 482 LINE",
"475 440 OFFCURVE",
"469 395 OFFCURVE",
"424 395 CURVE SMOOTH",
"221 395 LINE",
"221 327 LINE",
"424 327 LINE SMOOTH",
"469 327 OFFCURVE",
"475 282 OFFCURVE",
"479 240 CURVE"
);
}
);
width = 691;
}
);
note = Edotbelow;
unicode = 1EB8;
},
{
glyphname = Egrave;
lastChange = "2015-12-01 13:46:16 +0000";
layers = (
{
layerId = "9C69E37B-FF92-47DE-801E-679C7E50BD15";
name = Bold;
paths = (
{
closed = 1;
nodes = (
"639 0 LINE",
"661 203 LINE",
"612 203 LINE",
"600 128 OFFCURVE",
"579 68 OFFCURVE",
"505 68 CURVE SMOOTH",
"304 68 LINE",
"304 632 LINE",
"475 632 LINE SMOOTH",
"574 632 OFFCURVE",
"587 532 OFFCURVE",
"591 496 CURVE",
"640 496 LINE",
"640 700 LINE",
"10 700 LINE",
"10 652 LINE",
"42 652 LINE SMOOTH",
"80 652 OFFCURVE",
"96 638 OFFCURVE",
"96 612 CURVE SMOOTH",
"96 88 LINE SMOOTH",
"96 62 OFFCURVE",
"80 48 OFFCURVE",
"42 48 CURVE SMOOTH",
"10 48 LINE",
"10 0 LINE"
);
},
{
closed = 1;
nodes = (
"518 240 LINE",
"518 482 LINE",
"479 482 LINE",
"475 440 OFFCURVE",
"469 395 OFFCURVE",
"424 395 CURVE SMOOTH",
"221 395 LINE",
"221 327 LINE",
"424 327 LINE SMOOTH",
"469 327 OFFCURVE",
"475 282 OFFCURVE",
"479 240 CURVE"
);
},
{
closed = 1;
nodes = (
"524 823 LINE",
"398 962 LINE SMOOTH",
"392 969 OFFCURVE",
"360 1005 OFFCURVE",
"319 1005 CURVE SMOOTH",
"272 1005 OFFCURVE",
"255 974 OFFCURVE",
"255 950 CURVE SMOOTH",
"255 920 OFFCURVE",
"277 897 OFFCURVE",
"316 874 CURVE SMOOTH",
"489 773 LINE"
);
}
);
width = 691;
}
);
note = Egrave;
unicode = 00C8;
},
{
glyphname = Ehookabove;
lastChange = "2015-12-01 13:46:18 +0000";
layers = (
{
layerId = "9C69E37B-FF92-47DE-801E-679C7E50BD15";
name = Bold;
paths = (
{
closed = 1;
nodes = (
"639 0 LINE",
"661 203 LINE",
"612 203 LINE",
"600 128 OFFCURVE",
"579 68 OFFCURVE",
"505 68 CURVE SMOOTH",
"304 68 LINE",
"304 632 LINE",
"475 632 LINE SMOOTH",
"574 632 OFFCURVE",
"587 532 OFFCURVE",
"591 496 CURVE",
"640 496 LINE",
"640 700 LINE",
"10 700 LINE",
"10 652 LINE",
"42 652 LINE SMOOTH",
"80 652 OFFCURVE",
"96 638 OFFCURVE",
"96 612 CURVE SMOOTH",
"96 88 LINE SMOOTH",
"96 62 OFFCURVE",
"80 48 OFFCURVE",
"42 48 CURVE SMOOTH",
"10 48 LINE",
"10 0 LINE"
);
},
{
closed = 1;
nodes = (
"518 240 LINE",
"518 482 LINE",
"479 482 LINE",
"475 440 OFFCURVE",
"469 395 OFFCURVE",
"424 395 CURVE SMOOTH",
"221 395 LINE",
"221 327 LINE",
"424 327 LINE SMOOTH",
"469 327 OFFCURVE",
"475 282 OFFCURVE",
"479 240 CURVE"
);
},
{
closed = 1;
nodes = (
"424 802 LINE",
"412 802 OFFCURVE",
"395 805 OFFCURVE",
"395 828 CURVE SMOOTH",
"395 878 OFFCURVE",
"518 884 OFFCURVE",
"518 956 CURVE SMOOTH",
"518 1010 OFFCURVE",
"457 1035 OFFCURVE",
"392 1035 CURVE SMOOTH",
"294 1035 OFFCURVE",
"269 991 OFFCURVE",
"269 968 CURVE SMOOTH",
"269 941 OFFCURVE",
"289 929 OFFCURVE",
"308 929 CURVE SMOOTH",
"328 929 OFFCURVE",
"347 941 OFFCURVE",
"347 961 CURVE SMOOTH",
"347 992 OFFCURVE",
"373 999 OFFCURVE",
"390 999 CURVE SMOOTH",
"413 999 OFFCURVE",
"423 981 OFFCURVE",
"423 965 CURVE SMOOTH",
"423 898 OFFCURVE",
"325 885 OFFCURVE",
"325 830 CURVE SMOOTH",
"325 794 OFFCURVE",
"370 775 OFFCURVE",
"416 775 CURVE"
);
}
);
width = 691;
}
);
note = Ehookabove;
unicode = 1EBA;
},
{
glyphname = Emacron;
lastChange = "2015-12-01 13:46:17 +0000";
layers = (
{
layerId = "9C69E37B-FF92-47DE-801E-679C7E50BD15";
name = Bold;
paths = (
{
closed = 1;
nodes = (
"639 0 LINE",
"661 203 LINE",
"612 203 LINE",
"600 128 OFFCURVE",
"579 68 OFFCURVE",
"505 68 CURVE SMOOTH",
"304 68 LINE",
"304 632 LINE",
"475 632 LINE SMOOTH",
"574 632 OFFCURVE",
"587 532 OFFCURVE",
"591 496 CURVE",
"640 496 LINE",
"640 700 LINE",
"10 700 LINE",
"10 652 LINE",
"42 652 LINE SMOOTH",
"80 652 OFFCURVE",
"96 638 OFFCURVE",
"96 612 CURVE SMOOTH",
"96 88 LINE SMOOTH",
"96 62 OFFCURVE",
"80 48 OFFCURVE",
"42 48 CURVE SMOOTH",
"10 48 LINE",
"10 0 LINE"
);
},
{
closed = 1;
nodes = (
"518 240 LINE",
"518 482 LINE",
"479 482 LINE",
"475 440 OFFCURVE",
"469 395 OFFCURVE",
"424 395 CURVE SMOOTH",
"221 395 LINE",
"221 327 LINE",
"424 327 LINE SMOOTH",
"469 327 OFFCURVE",
"475 282 OFFCURVE",
"479 240 CURVE"
);
},
{
closed = 1;
nodes = (
"604 775 LINE",
"604 850 LINE",
"174 850 LINE",
"174 775 LINE"
);
}
);
width = 691;
}
);
note = Emacron;
unicode = 0112;
},
{
glyphname = Eogonek;
lastChange = "2015-12-01 13:46:16 +0000";
layers = (
{
layerId = "9C69E37B-FF92-47DE-801E-679C7E50BD15";
name = Bold;
paths = (
{
closed = 1;
nodes = (
"639 0 LINE",
"661 203 LINE",
"612 203 LINE",
"600 128 OFFCURVE",
"579 68 OFFCURVE",
"505 68 CURVE SMOOTH",
"304 68 LINE",
"304 632 LINE",
"475 632 LINE SMOOTH",
"574 632 OFFCURVE",
"587 532 OFFCURVE",
"591 496 CURVE",
"640 496 LINE",
"640 700 LINE",
"10 700 LINE",
"10 652 LINE",
"42 652 LINE SMOOTH",
"80 652 OFFCURVE",
"96 638 OFFCURVE",
"96 612 CURVE SMOOTH",
"96 88 LINE SMOOTH",
"96 62 OFFCURVE",
"80 48 OFFCURVE",
"42 48 CURVE SMOOTH",
"10 48 LINE",
"10 0 LINE"
);
},
{
closed = 1;
nodes = (
"578 -243 OFFCURVE",
"622 -229 OFFCURVE",
"661 -197 CURVE",
"645 -169 LINE",
"632 -177 OFFCURVE",
"610 -183 OFFCURVE",
"594 -183 CURVE SMOOTH",
"560 -183 OFFCURVE",
"535 -162 OFFCURVE",
"534 -120 CURVE",
"534 -79 OFFCURVE",
"556 -33 OFFCURVE",
"612 13 CURVE",
"545 13 LINE",
"477 -23 OFFCURVE",
"418 -79 OFFCURVE",
"418 -140 CURVE SMOOTH",
"418 -178 OFFCURVE",
"439 -243 OFFCURVE",
"546 -243 CURVE SMOOTH"
);
},
{
closed = 1;
nodes = (
"518 240 LINE",
"518 482 LINE",
"479 482 LINE",
"475 440 OFFCURVE",
"469 395 OFFCURVE",
"424 395 CURVE SMOOTH",
"221 395 LINE",
"221 327 LINE",
"424 327 LINE SMOOTH",
"469 327 OFFCURVE",
"475 282 OFFCURVE",
"479 240 CURVE"
);
}
);
width = 691;
}
);
note = Eogonek;
unicode = 0118;
},
{
glyphname = Etilde;
lastChange = "2015-12-01 13:46:17 +0000";
layers = (
{
layerId = "9C69E37B-FF92-47DE-801E-679C7E50BD15";
name = Bold;
paths = (
{
closed = 1;
nodes = (
"639 0 LINE",
"661 203 LINE",
"612 203 LINE",
"600 128 OFFCURVE",
"579 68 OFFCURVE",
"505 68 CURVE SMOOTH",
"304 68 LINE",
"304 632 LINE",
"475 632 LINE SMOOTH",
"574 632 OFFCURVE",
"587 532 OFFCURVE",
"591 496 CURVE",
"640 496 LINE",
"640 700 LINE",
"10 700 LINE",
"10 652 LINE",
"42 652 LINE SMOOTH",
"80 652 OFFCURVE",
"96 638 OFFCURVE",
"96 612 CURVE SMOOTH",
"96 88 LINE SMOOTH",
"96 62 OFFCURVE",
"80 48 OFFCURVE",
"42 48 CURVE SMOOTH",
"10 48 LINE",
"10 0 LINE"
);
},
{
closed = 1;
nodes = (
"518 240 LINE",
"518 482 LINE",
"479 482 LINE",
"475 440 OFFCURVE",
"469 395 OFFCURVE",
"424 395 CURVE SMOOTH",
"221 395 LINE",
"221 327 LINE",
"424 327 LINE SMOOTH",
"469 327 OFFCURVE",
"475 282 OFFCURVE",
"479 240 CURVE"
);
},
{
closed = 1;
nodes = (
"222 810 OFFCURVE",
"238 827 OFFCURVE",
"277 827 CURVE SMOOTH",
"344 827 OFFCURVE",
"403 783 OFFCURVE",
"467 783 CURVE SMOOTH",
"552 783 OFFCURVE",
"589 866 OFFCURVE",
"607 910 CURVE",
"574 929 LINE",
"551 888 OFFCURVE",
"535 872 OFFCURVE",
"496 872 CURVE SMOOTH",
"429 872 OFFCURVE",
"371 916 OFFCURVE",
"306 916 CURVE SMOOTH",
"221 916 OFFCURVE",
"184 833 OFFCURVE",
"165 789 CURVE",
"199 770 LINE"
);
}
);
width = 691;
}
);
note = Etilde;
unicode = 1EBC;
},
{
glyphname = F;
lastChange = "2015-12-01 13:46:16 +0000";
layers = (
{
layerId = "9C69E37B-FF92-47DE-801E-679C7E50BD15";
name = Bold;
paths = (
{
closed = 1;
nodes = (
"391 0 LINE",
"391 48 LINE",
"359 48 LINE SMOOTH",
"321 48 OFFCURVE",
"305 62 OFFCURVE",
"305 88 CURVE SMOOTH",
"305 632 LINE",
"476 632 LINE SMOOTH",
"575 632 OFFCURVE",
"588 532 OFFCURVE",
"592 496 CURVE",
"641 496 LINE",
"641 700 LINE",
"11 700 LINE",
"11 652 LINE",
"43 652 LINE SMOOTH",
"81 652 OFFCURVE",
"97 638 OFFCURVE",
"97 612 CURVE SMOOTH",
"97 88 LINE SMOOTH",
"97 62 OFFCURVE",
"81 48 OFFCURVE",
"43 48 CURVE SMOOTH",
"11 48 LINE",
"11 0 LINE"
);
},
{
closed = 1;
nodes = (
"521 203 LINE",
"521 445 LINE",
"482 445 LINE",
"478 403 OFFCURVE",
"472 358 OFFCURVE",
"427 358 CURVE SMOOTH",
"224 358 LINE",
"224 290 LINE",
"427 290 LINE SMOOTH",
"472 290 OFFCURVE",
"478 245 OFFCURVE",
"482 203 CURVE"
);
}
);
width = 686;
}
);
note = F;
unicode = 0046;
},
{
glyphname = G;
lastChange = "2015-12-01 13:46:13 +0000";
layers = (
{
layerId = "9C69E37B-FF92-47DE-801E-679C7E50BD15";
name = Bold;
paths = (
{
closed = 1;
nodes = (
"507 -10 OFFCURVE",
"600 -3 OFFCURVE",
"717 64 CURVE",
"717 276 LINE SMOOTH",
"717 297 OFFCURVE",
"734 317 OFFCURVE",
"766 317 CURVE SMOOTH",
"785 317 LINE",
"785 348 LINE",
"439 348 LINE",
"439 309 LINE",
"456 309 LINE SMOOTH",
"507 309 OFFCURVE",
"516 281 OFFCURVE",
"516 260 CURVE SMOOTH",
"516 72 LINE",
"488 64 OFFCURVE",
"458 61 OFFCURVE",
"429 61 CURVE SMOOTH",
"310 61 OFFCURVE",
"242 165 OFFCURVE",
"242 350 CURVE SMOOTH",
"242 534 OFFCURVE",
"330 639 OFFCURVE",
"452 639 CURVE SMOOTH",
"531 639 OFFCURVE",
"631 604 OFFCURVE",
"647 486 CURVE",
"704 486 LINE",
"704 705 LINE",
"639 705 LINE",
"639 659 LINE SMOOTH",
"639 653 OFFCURVE",
"635 651 OFFCURVE",
"631 651 CURVE SMOOTH",
"627 651 OFFCURVE",
"623 653 OFFCURVE",
"622 654 CURVE",
"578 682 OFFCURVE",
"505 710 OFFCURVE",
"403 710 CURVE SMOOTH",
"155 710 OFFCURVE",
"31 562 OFFCURVE",
"31 350 CURVE SMOOTH",
"31 138 OFFCURVE",
"150 -10 OFFCURVE",
"404 -10 CURVE SMOOTH"
);
}
);
width = 791;
}
);
leftKerningGroup = G;
note = G;
unicode = 0047;
},
{
glyphname = Gbreve;
lastChange = "2015-12-01 13:46:16 +0000";
layers = (
{
layerId = "9C69E37B-FF92-47DE-801E-679C7E50BD15";
name = Bold;
paths = (
{
closed = 1;
nodes = (
"507 -10 OFFCURVE",
"600 -3 OFFCURVE",
"717 64 CURVE",
"717 276 LINE SMOOTH",
"717 297 OFFCURVE",
"734 317 OFFCURVE",
"766 317 CURVE SMOOTH",
"785 317 LINE",
"785 348 LINE",
"439 348 LINE",
"439 309 LINE",
"456 309 LINE SMOOTH",
"507 309 OFFCURVE",
"516 281 OFFCURVE",
"516 260 CURVE SMOOTH",
"516 72 LINE",
"488 64 OFFCURVE",
"458 61 OFFCURVE",
"429 61 CURVE SMOOTH",
"310 61 OFFCURVE",
"242 165 OFFCURVE",
"242 350 CURVE SMOOTH",
"242 534 OFFCURVE",
"330 639 OFFCURVE",
"452 639 CURVE SMOOTH",
"531 639 OFFCURVE",
"631 604 OFFCURVE",
"647 486 CURVE",
"704 486 LINE",
"704 705 LINE",
"639 705 LINE",
"639 659 LINE SMOOTH",
"639 653 OFFCURVE",
"635 651 OFFCURVE",
"631 651 CURVE SMOOTH",
"627 651 OFFCURVE",
"623 653 OFFCURVE",
"622 654 CURVE",
"578 682 OFFCURVE",
"505 710 OFFCURVE",
"403 710 CURVE SMOOTH",
"155 710 OFFCURVE",
"31 562 OFFCURVE",
"31 350 CURVE SMOOTH",
"31 138 OFFCURVE",
"150 -10 OFFCURVE",
"404 -10 CURVE SMOOTH"
);
},
{
closed = 1;
nodes = (
"562 777 OFFCURVE",
"587 867 OFFCURVE",
"587 937 CURVE",
"541 937 LINE",
"539 913 OFFCURVE",
"519 860 OFFCURVE",
"413 860 CURVE SMOOTH",
"307 860 OFFCURVE",
"287 913 OFFCURVE",
"285 937 CURVE",
"240 937 LINE",
"240 861 OFFCURVE",
"265 777 OFFCURVE",
"414 777 CURVE SMOOTH"
);
}
);
width = 791;
}
);
leftKerningGroup = G;
note = Gbreve;
unicode = 011E;
},
{
glyphname = Gcaron;
lastChange = "2015-12-01 13:46:18 +0000";
layers = (
{
layerId = "9C69E37B-FF92-47DE-801E-679C7E50BD15";
name = Bold;
paths = (
{
closed = 1;
nodes = (
"507 -10 OFFCURVE",
"600 -3 OFFCURVE",
"717 64 CURVE",
"717 276 LINE SMOOTH",
"717 297 OFFCURVE",
"734 317 OFFCURVE",
"766 317 CURVE SMOOTH",
"785 317 LINE",
"785 348 LINE",
"439 348 LINE",
"439 309 LINE",
"456 309 LINE SMOOTH",
"507 309 OFFCURVE",
"516 281 OFFCURVE",
"516 260 CURVE SMOOTH",
"516 72 LINE",
"488 64 OFFCURVE",
"458 61 OFFCURVE",
"429 61 CURVE SMOOTH",
"310 61 OFFCURVE",
"242 165 OFFCURVE",
"242 350 CURVE SMOOTH",
"242 534 OFFCURVE",
"330 639 OFFCURVE",
"452 639 CURVE SMOOTH",
"531 639 OFFCURVE",
"631 604 OFFCURVE",
"647 486 CURVE",
"704 486 LINE",
"704 705 LINE",
"639 705 LINE",
"639 659 LINE SMOOTH",
"639 653 OFFCURVE",
"635 651 OFFCURVE",
"631 651 CURVE SMOOTH",
"627 651 OFFCURVE",
"623 653 OFFCURVE",
"622 654 CURVE",
"578 682 OFFCURVE",
"505 710 OFFCURVE",
"403 710 CURVE SMOOTH",
"155 710 OFFCURVE",
"31 562 OFFCURVE",
"31 350 CURVE SMOOTH",
"31 138 OFFCURVE",
"150 -10 OFFCURVE",
"404 -10 CURVE SMOOTH"
);
},
{
closed = 1;
nodes = (
"482 775 LINE",
"645 960 LINE",
"618 990 LINE",
"476 887 LINE SMOOTH",
"459 875 OFFCURVE",
"444 866 OFFCURVE",
"432 866 CURVE SMOOTH",
"421 866 OFFCURVE",
"405 875 OFFCURVE",
"388 887 CURVE SMOOTH",
"246 990 LINE",
"219 960 LINE",
"382 775 LINE"
);
}
);
width = 791;
}
);
leftKerningGroup = G;
note = Gcaron;
unicode = 01E6;
},
{
glyphname = Gcircumflex;
lastChange = "2015-12-01 13:46:17 +0000";
layers = (
{
layerId = "9C69E37B-FF92-47DE-801E-679C7E50BD15";
name = Bold;
paths = (
{
closed = 1;
nodes = (
"507 -10 OFFCURVE",
"600 -3 OFFCURVE",
"717 64 CURVE",
"717 276 LINE SMOOTH",
"717 297 OFFCURVE",
"734 317 OFFCURVE",
"766 317 CURVE SMOOTH",
"785 317 LINE",
"785 348 LINE",
"439 348 LINE",
"439 309 LINE",
"456 309 LINE SMOOTH",
"507 309 OFFCURVE",
"516 281 OFFCURVE",
"516 260 CURVE SMOOTH",
"516 72 LINE",
"488 64 OFFCURVE",
"458 61 OFFCURVE",
"429 61 CURVE SMOOTH",
"310 61 OFFCURVE",
"242 165 OFFCURVE",
"242 350 CURVE SMOOTH",
"242 534 OFFCURVE",
"330 639 OFFCURVE",
"452 639 CURVE SMOOTH",
"531 639 OFFCURVE",
"631 604 OFFCURVE",
"647 486 CURVE",
"704 486 LINE",
"704 705 LINE",
"639 705 LINE",
"639 659 LINE SMOOTH",
"639 653 OFFCURVE",
"635 651 OFFCURVE",
"631 651 CURVE SMOOTH",
"627 651 OFFCURVE",
"623 653 OFFCURVE",
"622 654 CURVE",
"578 682 OFFCURVE",
"505 710 OFFCURVE",
"403 710 CURVE SMOOTH",
"155 710 OFFCURVE",
"31 562 OFFCURVE",
"31 350 CURVE SMOOTH",
"31 138 OFFCURVE",
"150 -10 OFFCURVE",
"404 -10 CURVE SMOOTH"
);
},
{
closed = 1;
nodes = (
"383 878 LINE SMOOTH",
"400 890 OFFCURVE",
"416 899 OFFCURVE",
"427 899 CURVE SMOOTH",
"439 899 OFFCURVE",
"454 890 OFFCURVE",
"471 878 CURVE SMOOTH",
"613 775 LINE",
"640 805 LINE",
"477 990 LINE",
"377 990 LINE",
"214 805 LINE",
"241 775 LINE"
);
}
);
width = 791;
}
);
leftKerningGroup = G;
note = Gcircumflex;
unicode = 011C;
},
{
glyphname = Gcommaaccent;
lastChange = "2015-12-01 13:46:16 +0000";
layers = (
{
layerId = "9C69E37B-FF92-47DE-801E-679C7E50BD15";
name = Bold;
paths = (
{
closed = 1;
nodes = (
"507 -10 OFFCURVE",
"600 -3 OFFCURVE",
"717 64 CURVE",
"717 276 LINE SMOOTH",
"717 297 OFFCURVE",
"734 317 OFFCURVE",
"766 317 CURVE SMOOTH",
"785 317 LINE",
"785 348 LINE",
"439 348 LINE",
"439 309 LINE",
"456 309 LINE SMOOTH",
"507 309 OFFCURVE",
"516 281 OFFCURVE",
"516 260 CURVE SMOOTH",
"516 72 LINE",
"488 64 OFFCURVE",
"458 61 OFFCURVE",
"429 61 CURVE SMOOTH",
"310 61 OFFCURVE",
"242 165 OFFCURVE",
"242 350 CURVE SMOOTH",
"242 534 OFFCURVE",
"330 639 OFFCURVE",
"452 639 CURVE SMOOTH",
"531 639 OFFCURVE",
"631 604 OFFCURVE",
"647 486 CURVE",
"704 486 LINE",
"704 705 LINE",
"639 705 LINE",
"639 659 LINE SMOOTH",
"639 653 OFFCURVE",
"635 651 OFFCURVE",
"631 651 CURVE SMOOTH",
"627 651 OFFCURVE",
"623 653 OFFCURVE",
"622 654 CURVE",
"578 682 OFFCURVE",
"505 710 OFFCURVE",
"403 710 CURVE SMOOTH",
"155 710 OFFCURVE",
"31 562 OFFCURVE",
"31 350 CURVE SMOOTH",
"31 138 OFFCURVE",
"150 -10 OFFCURVE",
"404 -10 CURVE SMOOTH"
);
},
{
closed = 1;
nodes = (
"429 -364 OFFCURVE",
"514 -275 OFFCURVE",
"514 -187 CURVE SMOOTH",
"514 -118 OFFCURVE",
"474 -77 OFFCURVE",
"422 -77 CURVE SMOOTH",
"373 -77 OFFCURVE",
"343 -110 OFFCURVE",
"343 -146 CURVE SMOOTH",
"343 -191 OFFCURVE",
"389 -211 OFFCURVE",
"389 -257 CURVE SMOOTH",
"389 -303 OFFCURVE",
"364 -344 OFFCURVE",
"328 -381 CURVE",
"359 -409 LINE"
);
}
);
width = 791;
}
);
leftKerningGroup = G;
note = Gcommaaccent;
unicode = 0122;
},
{
glyphname = Gdotaccent;
lastChange = "2015-12-01 13:46:17 +0000";
layers = (
{
layerId = "9C69E37B-FF92-47DE-801E-679C7E50BD15";
name = Bold;
paths = (
{
closed = 1;
nodes = (
"507 -10 OFFCURVE",
"600 -3 OFFCURVE",
"717 64 CURVE",
"717 276 LINE SMOOTH",
"717 297 OFFCURVE",
"734 317 OFFCURVE",
"766 317 CURVE SMOOTH",
"785 317 LINE",
"785 348 LINE",
"439 348 LINE",
"439 309 LINE",
"456 309 LINE SMOOTH",
"507 309 OFFCURVE",
"516 281 OFFCURVE",
"516 260 CURVE SMOOTH",
"516 72 LINE",
"488 64 OFFCURVE",
"458 61 OFFCURVE",
"429 61 CURVE SMOOTH",
"310 61 OFFCURVE",
"242 165 OFFCURVE",
"242 350 CURVE SMOOTH",
"242 534 OFFCURVE",
"330 639 OFFCURVE",
"452 639 CURVE SMOOTH",
"531 639 OFFCURVE",
"631 604 OFFCURVE",
"647 486 CURVE",
"704 486 LINE",
"704 705 LINE",
"639 705 LINE",
"639 659 LINE SMOOTH",
"639 653 OFFCURVE",
"635 651 OFFCURVE",
"631 651 CURVE SMOOTH",
"627 651 OFFCURVE",
"623 653 OFFCURVE",
"622 654 CURVE",
"578 682 OFFCURVE",
"505 710 OFFCURVE",
"403 710 CURVE SMOOTH",
"155 710 OFFCURVE",
"31 562 OFFCURVE",
"31 350 CURVE SMOOTH",
"31 138 OFFCURVE",
"150 -10 OFFCURVE",
"404 -10 CURVE SMOOTH"
);
},
{
closed = 1;
nodes = (
"481 775 OFFCURVE",
"510 808 OFFCURVE",
"510 850 CURVE SMOOTH",
"510 892 OFFCURVE",
"481 926 OFFCURVE",
"434 926 CURVE SMOOTH",
"387 926 OFFCURVE",
"359 892 OFFCURVE",
"359 850 CURVE SMOOTH",
"359 808 OFFCURVE",
"387 775 OFFCURVE",
"434 775 CURVE SMOOTH"
);
}
);
width = 791;
}
);
leftKerningGroup = G;
note = Gdotaccent;
unicode = 0120;
},
{
glyphname = Gmacron;
lastChange = "2015-12-01 13:46:16 +0000";
layers = (
{
layerId = "9C69E37B-FF92-47DE-801E-679C7E50BD15";
name = Bold;
paths = (
{
closed = 1;
nodes = (
"507 -10 OFFCURVE",
"600 -3 OFFCURVE",
"717 64 CURVE",
"717 276 LINE SMOOTH",
"717 297 OFFCURVE",
"734 317 OFFCURVE",
"766 317 CURVE SMOOTH",
"785 317 LINE",
"785 348 LINE",
"439 348 LINE",
"439 309 LINE",
"456 309 LINE SMOOTH",
"507 309 OFFCURVE",
"516 281 OFFCURVE",
"516 260 CURVE SMOOTH",
"516 72 LINE",
"488 64 OFFCURVE",
"458 61 OFFCURVE",
"429 61 CURVE SMOOTH",
"310 61 OFFCURVE",
"242 165 OFFCURVE",
"242 350 CURVE SMOOTH",
"242 534 OFFCURVE",
"330 639 OFFCURVE",
"452 639 CURVE SMOOTH",
"531 639 OFFCURVE",
"631 604 OFFCURVE",
"647 486 CURVE",
"704 486 LINE",
"704 705 LINE",
"639 705 LINE",
"639 659 LINE SMOOTH",
"639 653 OFFCURVE",
"635 651 OFFCURVE",
"631 651 CURVE SMOOTH",
"627 651 OFFCURVE",
"623 653 OFFCURVE",
"622 654 CURVE",
"578 682 OFFCURVE",
"505 710 OFFCURVE",
"403 710 CURVE SMOOTH",
"155 710 OFFCURVE",
"31 562 OFFCURVE",
"31 350 CURVE SMOOTH",
"31 138 OFFCURVE",
"150 -10 OFFCURVE",
"404 -10 CURVE SMOOTH"
);
},
{
closed = 1;
nodes = (
"610 803 LINE",
"610 878 LINE",
"180 878 LINE",
"180 803 LINE"
);
}
);
width = 791;
}
);
leftKerningGroup = G;
note = Gmacron;
unicode = 1E20;
},
{
glyphname = H;
lastChange = "2015-12-01 13:46:17 +0000";
layers = (
{
layerId = "9C69E37B-FF92-47DE-801E-679C7E50BD15";
name = Bold;
paths = (
{
closed = 1;
nodes = (
"848 0 LINE",
"848 48 LINE",
"816 48 LINE SMOOTH",
"778 48 OFFCURVE",
"762 62 OFFCURVE",
"762 88 CURVE SMOOTH",
"762 612 LINE SMOOTH",
"762 638 OFFCURVE",
"778 652 OFFCURVE",
"816 652 CURVE SMOOTH",
"848 652 LINE",
"848 700 LINE",
"468 700 LINE",
"468 652 LINE",
"500 652 LINE SMOOTH",
"538 652 OFFCURVE",
"554 638 OFFCURVE",
"554 612 CURVE SMOOTH",
"554 88 LINE SMOOTH",
"554 62 OFFCURVE",
"538 48 OFFCURVE",
"500 48 CURVE SMOOTH",
"468 48 LINE",
"468 0 LINE"
);
},
{
closed = 1;
nodes = (
"390 0 LINE",
"390 48 LINE",
"358 48 LINE SMOOTH",
"320 48 OFFCURVE",
"304 62 OFFCURVE",
"304 88 CURVE SMOOTH",
"304 612 LINE SMOOTH",
"304 638 OFFCURVE",
"320 652 OFFCURVE",
"358 652 CURVE SMOOTH",
"390 652 LINE",
"390 700 LINE",
"10 700 LINE",
"10 652 LINE",
"42 652 LINE SMOOTH",
"80 652 OFFCURVE",
"96 638 OFFCURVE",
"96 612 CURVE SMOOTH",
"96 88 LINE SMOOTH",
"96 62 OFFCURVE",
"80 48 OFFCURVE",
"42 48 CURVE SMOOTH",
"10 48 LINE",
"10 0 LINE"
);
},
{
closed = 1;
nodes = (
"643 321 LINE",
"643 389 LINE",
"201 389 LINE",
"201 321 LINE"
);
}
);
width = 858;
}
);
note = H;
unicode = 0048;
},
{
glyphname = Hbar;
lastChange = "2015-12-01 13:46:18 +0000";
layers = (
{
layerId = "9C69E37B-FF92-47DE-801E-679C7E50BD15";
name = Bold;
paths = (
{
closed = 1;
nodes = (
"848 0 LINE",
"848 48 LINE",
"816 48 LINE SMOOTH",
"778 48 OFFCURVE",
"762 62 OFFCURVE",
"762 88 CURVE SMOOTH",
"762 612 LINE SMOOTH",
"762 638 OFFCURVE",
"778 652 OFFCURVE",
"816 652 CURVE SMOOTH",
"848 652 LINE",
"848 700 LINE",
"468 700 LINE",
"468 652 LINE",
"500 652 LINE SMOOTH",
"538 652 OFFCURVE",
"554 638 OFFCURVE",
"554 612 CURVE SMOOTH",
"554 88 LINE SMOOTH",
"554 62 OFFCURVE",
"538 48 OFFCURVE",
"500 48 CURVE SMOOTH",
"468 48 LINE",
"468 0 LINE"
);
},
{
closed = 1;
nodes = (
"390 0 LINE",
"390 48 LINE",
"358 48 LINE SMOOTH",
"320 48 OFFCURVE",
"304 62 OFFCURVE",
"304 88 CURVE SMOOTH",
"304 612 LINE SMOOTH",
"304 638 OFFCURVE",
"320 652 OFFCURVE",
"358 652 CURVE SMOOTH",
"390 652 LINE",
"390 700 LINE",
"10 700 LINE",
"10 652 LINE",
"42 652 LINE SMOOTH",
"80 652 OFFCURVE",
"96 638 OFFCURVE",
"96 612 CURVE SMOOTH",
"96 88 LINE SMOOTH",
"96 62 OFFCURVE",
"80 48 OFFCURVE",
"42 48 CURVE SMOOTH",
"10 48 LINE",
"10 0 LINE"
);
},
{
closed = 1;
nodes = (
"643 321 LINE",
"643 389 LINE",
"201 389 LINE",
"201 321 LINE"
);
},
{
closed = 1;
nodes = (
"824 480 LINE",
"824 548 LINE",
"34 548 LINE",
"34 480 LINE"
);
}
);
width = 858;
}
);
note = Hbar;
unicode = 0126;
},
{
glyphname = Hbrevebelow;
lastChange = "2015-12-01 13:46:17 +0000";
layers = (
{
layerId = "9C69E37B-FF92-47DE-801E-679C7E50BD15";
name = Bold;
paths = (
{
closed = 1;
nodes = (
"848 0 LINE",
"848 48 LINE",
"816 48 LINE SMOOTH",
"778 48 OFFCURVE",
"762 62 OFFCURVE",
"762 88 CURVE SMOOTH",
"762 612 LINE SMOOTH",
"762 638 OFFCURVE",
"778 652 OFFCURVE",
"816 652 CURVE SMOOTH",
"848 652 LINE",
"848 700 LINE",
"468 700 LINE",
"468 652 LINE",
"500 652 LINE SMOOTH",
"538 652 OFFCURVE",
"554 638 OFFCURVE",
"554 612 CURVE SMOOTH",
"554 88 LINE SMOOTH",
"554 62 OFFCURVE",
"538 48 OFFCURVE",
"500 48 CURVE SMOOTH",
"468 48 LINE",
"468 0 LINE"
);
},
{
closed = 1;
nodes = (
"572 -213 OFFCURVE",
"597 -123 OFFCURVE",
"597 -53 CURVE",
"551 -53 LINE",
"549 -77 OFFCURVE",
"529 -130 OFFCURVE",
"423 -130 CURVE SMOOTH",
"317 -130 OFFCURVE",
"297 -77 OFFCURVE",
"295 -53 CURVE",
"250 -53 LINE",
"250 -129 OFFCURVE",
"275 -213 OFFCURVE",
"424 -213 CURVE SMOOTH"
);
},
{
closed = 1;
nodes = (
"390 0 LINE",
"390 48 LINE",
"358 48 LINE SMOOTH",
"320 48 OFFCURVE",
"304 62 OFFCURVE",
"304 88 CURVE SMOOTH",
"304 612 LINE SMOOTH",
"304 638 OFFCURVE",
"320 652 OFFCURVE",
"358 652 CURVE SMOOTH",
"390 652 LINE",
"390 700 LINE",
"10 700 LINE",
"10 652 LINE",
"42 652 LINE SMOOTH",
"80 652 OFFCURVE",
"96 638 OFFCURVE",
"96 612 CURVE SMOOTH",
"96 88 LINE SMOOTH",
"96 62 OFFCURVE",
"80 48 OFFCURVE",
"42 48 CURVE SMOOTH",
"10 48 LINE",
"10 0 LINE"
);
},
{
closed = 1;
nodes = (
"643 321 LINE",
"643 389 LINE",
"201 389 LINE",
"201 321 LINE"
);
}
);
width = 858;
}
);
note = Hbrevebelow;
unicode = 1E2A;
},
{
glyphname = Hcircumflex;
lastChange = "2015-12-01 13:46:18 +0000";
layers = (
{
layerId = "9C69E37B-FF92-47DE-801E-679C7E50BD15";
name = Bold;
paths = (
{
closed = 1;
nodes = (
"848 0 LINE",
"848 48 LINE",
"816 48 LINE SMOOTH",
"778 48 OFFCURVE",
"762 62 OFFCURVE",
"762 88 CURVE SMOOTH",
"762 612 LINE SMOOTH",
"762 638 OFFCURVE",
"778 652 OFFCURVE",
"816 652 CURVE SMOOTH",
"848 652 LINE",
"848 700 LINE",
"468 700 LINE",
"468 652 LINE",
"500 652 LINE SMOOTH",
"538 652 OFFCURVE",
"554 638 OFFCURVE",
"554 612 CURVE SMOOTH",
"554 88 LINE SMOOTH",
"554 62 OFFCURVE",
"538 48 OFFCURVE",
"500 48 CURVE SMOOTH",
"468 48 LINE",
"468 0 LINE"
);
},
{
closed = 1;
nodes = (
"390 0 LINE",
"390 48 LINE",
"358 48 LINE SMOOTH",
"320 48 OFFCURVE",
"304 62 OFFCURVE",
"304 88 CURVE SMOOTH",
"304 612 LINE SMOOTH",
"304 638 OFFCURVE",
"320 652 OFFCURVE",
"358 652 CURVE SMOOTH",
"390 652 LINE",
"390 700 LINE",
"10 700 LINE",
"10 652 LINE",
"42 652 LINE SMOOTH",
"80 652 OFFCURVE",
"96 638 OFFCURVE",
"96 612 CURVE SMOOTH",
"96 88 LINE SMOOTH",
"96 62 OFFCURVE",
"80 48 OFFCURVE",
"42 48 CURVE SMOOTH",
"10 48 LINE",
"10 0 LINE"
);
},
{
closed = 1;
nodes = (
"643 321 LINE",
"643 389 LINE",
"201 389 LINE",
"201 321 LINE"
);
},
{
closed = 1;
nodes = (
"385 878 LINE SMOOTH",
"402 890 OFFCURVE",
"418 899 OFFCURVE",
"429 899 CURVE SMOOTH",
"441 899 OFFCURVE",
"456 890 OFFCURVE",
"473 878 CURVE SMOOTH",
"615 775 LINE",
"642 805 LINE",
"479 990 LINE",
"379 990 LINE",
"216 805 LINE",
"243 775 LINE"
);
}
);
width = 858;
}
);
note = Hcircumflex;
unicode = 0124;
},
{
glyphname = Hdotbelow;
lastChange = "2015-12-01 13:46:18 +0000";
layers = (
{
layerId = "9C69E37B-FF92-47DE-801E-679C7E50BD15";
name = Bold;
paths = (
{
closed = 1;
nodes = (
"848 0 LINE",
"848 48 LINE",
"816 48 LINE SMOOTH",
"778 48 OFFCURVE",
"762 62 OFFCURVE",
"762 88 CURVE SMOOTH",
"762 612 LINE SMOOTH",
"762 638 OFFCURVE",
"778 652 OFFCURVE",
"816 652 CURVE SMOOTH",
"848 652 LINE",
"848 700 LINE",
"468 700 LINE",
"468 652 LINE",
"500 652 LINE SMOOTH",
"538 652 OFFCURVE",
"554 638 OFFCURVE",
"554 612 CURVE SMOOTH",
"554 88 LINE SMOOTH",
"554 62 OFFCURVE",
"538 48 OFFCURVE",
"500 48 CURVE SMOOTH",
"468 48 LINE",
"468 0 LINE"
);
},
{
closed = 1;
nodes = (
"474 -216 OFFCURVE",
"503 -183 OFFCURVE",
"503 -141 CURVE SMOOTH",
"503 -99 OFFCURVE",
"474 -64 OFFCURVE",
"427 -64 CURVE SMOOTH",
"380 -64 OFFCURVE",
"351 -99 OFFCURVE",
"351 -141 CURVE SMOOTH",
"351 -183 OFFCURVE",
"380 -216 OFFCURVE",
"427 -216 CURVE SMOOTH"
);
},
{
closed = 1;
nodes = (
"390 0 LINE",
"390 48 LINE",
"358 48 LINE SMOOTH",
"320 48 OFFCURVE",
"304 62 OFFCURVE",
"304 88 CURVE SMOOTH",
"304 612 LINE SMOOTH",
"304 638 OFFCURVE",
"320 652 OFFCURVE",
"358 652 CURVE SMOOTH",
"390 652 LINE",
"390 700 LINE",
"10 700 LINE",
"10 652 LINE",
"42 652 LINE SMOOTH",
"80 652 OFFCURVE",
"96 638 OFFCURVE",
"96 612 CURVE SMOOTH",
"96 88 LINE SMOOTH",
"96 62 OFFCURVE",
"80 48 OFFCURVE",
"42 48 CURVE SMOOTH",
"10 48 LINE",
"10 0 LINE"
);
},
{
closed = 1;
nodes = (
"643 321 LINE",
"643 389 LINE",
"201 389 LINE",
"201 321 LINE"
);
}
);
width = 858;
}
);
note = Hdotbelow;
unicode = 1E24;
},
{
glyphname = I;
lastChange = "2015-12-01 13:46:13 +0000";
layers = (
{
layerId = "9C69E37B-FF92-47DE-801E-679C7E50BD15";
name = Bold;
paths = (
{
closed = 1;
nodes = (
"396 0 LINE",
"396 48 LINE",
"364 48 LINE SMOOTH",
"326 48 OFFCURVE",
"310 62 OFFCURVE",
"310 88 CURVE SMOOTH",
"310 612 LINE SMOOTH",
"310 638 OFFCURVE",
"326 652 OFFCURVE",
"364 652 CURVE SMOOTH",
"396 652 LINE",
"396 700 LINE",
"16 700 LINE",
"16 652 LINE",
"48 652 LINE SMOOTH",
"86 652 OFFCURVE",
"102 638 OFFCURVE",
"102 612 CURVE SMOOTH",
"102 88 LINE SMOOTH",
"102 62 OFFCURVE",
"86 48 OFFCURVE",
"48 48 CURVE SMOOTH",
"16 48 LINE",
"16 0 LINE"
);
}
);
width = 412;
}
);
note = I;
unicode = 0049;
},
{
glyphname = IJ;
lastChange = "2015-12-01 13:46:17 +0000";
layers = (
{
layerId = "9C69E37B-FF92-47DE-801E-679C7E50BD15";
name = Bold;
paths = (
{
closed = 1;
nodes = (
"642 -114 OFFCURVE",
"775 -39 OFFCURVE",
"775 143 CURVE SMOOTH",
"775 612 LINE SMOOTH",
"775 638 OFFCURVE",
"791 652 OFFCURVE",
"829 652 CURVE SMOOTH",
"861 652 LINE",
"861 700 LINE",
"481 700 LINE",
"481 652 LINE",
"513 652 LINE SMOOTH",
"551 652 OFFCURVE",
"567 638 OFFCURVE",
"567 612 CURVE SMOOTH",
"567 146 LINE SMOOTH",
"567 40 OFFCURVE",
"558 -50 OFFCURVE",
"451 -83 CURVE",
"457 -114 LINE"
);
},
{
closed = 1;
nodes = (
"396 0 LINE",
"396 48 LINE",
"364 48 LINE SMOOTH",
"326 48 OFFCURVE",
"310 62 OFFCURVE",
"310 88 CURVE SMOOTH",
"310 612 LINE SMOOTH",
"310 638 OFFCURVE",
"326 652 OFFCURVE",
"364 652 CURVE SMOOTH",
"396 652 LINE",
"396 700 LINE",
"16 700 LINE",
"16 652 LINE",
"48 652 LINE SMOOTH",
"86 652 OFFCURVE",
"102 638 OFFCURVE",
"102 612 CURVE SMOOTH",
"102 88 LINE SMOOTH",
"102 62 OFFCURVE",
"86 48 OFFCURVE",
"48 48 CURVE SMOOTH",
"16 48 LINE",
"16 0 LINE"
);
}
);
width = 877;
}
);
note = IJ;
rightKerningGroup = J;
unicode = 0132;
},
{
glyphname = Iacute;
lastChange = "2015-12-01 13:46:16 +0000";
layers = (
{
layerId = "9C69E37B-FF92-47DE-801E-679C7E50BD15";
name = Bold;
paths = (
{
closed = 1;
nodes = (
"396 0 LINE",
"396 48 LINE",
"364 48 LINE SMOOTH",
"326 48 OFFCURVE",
"310 62 OFFCURVE",
"310 88 CURVE SMOOTH",
"310 612 LINE SMOOTH",
"310 638 OFFCURVE",
"326 652 OFFCURVE",
"364 652 CURVE SMOOTH",
"396 652 LINE",
"396 700 LINE",
"16 700 LINE",
"16 652 LINE",
"48 652 LINE SMOOTH",
"86 652 OFFCURVE",
"102 638 OFFCURVE",
"102 612 CURVE SMOOTH",
"102 88 LINE SMOOTH",
"102 62 OFFCURVE",
"86 48 OFFCURVE",
"48 48 CURVE SMOOTH",
"16 48 LINE",
"16 0 LINE"
);
},
{
closed = 1;
nodes = (
"279 874 LINE SMOOTH",
"318 897 OFFCURVE",
"341 920 OFFCURVE",
"341 950 CURVE SMOOTH",
"341 974 OFFCURVE",
"323 1005 OFFCURVE",
"276 1005 CURVE SMOOTH",
"235 1005 OFFCURVE",
"204 969 OFFCURVE",
"198 962 CURVE SMOOTH",
"71 823 LINE",
"107 773 LINE"
);
}
);
width = 412;
}
);
note = Iacute;
unicode = 00CD;
},
{
glyphname = Ibreve;
lastChange = "2015-12-01 13:46:16 +0000";
layers = (
{
layerId = "9C69E37B-FF92-47DE-801E-679C7E50BD15";
name = Bold;
paths = (
{
closed = 1;
nodes = (
"396 0 LINE",
"396 48 LINE",
"364 48 LINE SMOOTH",
"326 48 OFFCURVE",
"310 62 OFFCURVE",
"310 88 CURVE SMOOTH",
"310 612 LINE SMOOTH",
"310 638 OFFCURVE",
"326 652 OFFCURVE",
"364 652 CURVE SMOOTH",
"396 652 LINE",
"396 700 LINE",
"16 700 LINE",
"16 652 LINE",
"48 652 LINE SMOOTH",
"86 652 OFFCURVE",
"102 638 OFFCURVE",
"102 612 CURVE SMOOTH",
"102 88 LINE SMOOTH",
"102 62 OFFCURVE",
"86 48 OFFCURVE",
"48 48 CURVE SMOOTH",
"16 48 LINE",
"16 0 LINE"
);
},
{
closed = 1;
nodes = (
"354 777 OFFCURVE",
"379 867 OFFCURVE",
"379 937 CURVE",
"333 937 LINE",
"331 913 OFFCURVE",
"311 860 OFFCURVE",
"205 860 CURVE SMOOTH",
"99 860 OFFCURVE",
"79 913 OFFCURVE",
"77 937 CURVE",
"32 937 LINE",
"32 861 OFFCURVE",
"57 777 OFFCURVE",
"206 777 CURVE SMOOTH"
);
}
);
width = 412;
}
);
note = Ibreve;
unicode = 012C;
},
{
glyphname = Icaron;
lastChange = "2015-12-01 13:46:17 +0000";
layers = (
{
layerId = "9C69E37B-FF92-47DE-801E-679C7E50BD15";
name = Bold;
paths = (
{
closed = 1;
nodes = (
"396 0 LINE",
"396 48 LINE",
"364 48 LINE SMOOTH",
"326 48 OFFCURVE",
"310 62 OFFCURVE",
"310 88 CURVE SMOOTH",
"310 612 LINE SMOOTH",
"310 638 OFFCURVE",
"326 652 OFFCURVE",
"364 652 CURVE SMOOTH",
"396 652 LINE",
"396 700 LINE",
"16 700 LINE",
"16 652 LINE",
"48 652 LINE SMOOTH",
"86 652 OFFCURVE",
"102 638 OFFCURVE",
"102 612 CURVE SMOOTH",
"102 88 LINE SMOOTH",
"102 62 OFFCURVE",
"86 48 OFFCURVE",
"48 48 CURVE SMOOTH",
"16 48 LINE",
"16 0 LINE"
);
},
{
closed = 1;
nodes = (
"256 775 LINE",
"419 960 LINE",
"392 990 LINE",
"250 887 LINE SMOOTH",
"233 875 OFFCURVE",
"218 866 OFFCURVE",
"206 866 CURVE SMOOTH",
"195 866 OFFCURVE",
"179 875 OFFCURVE",
"162 887 CURVE SMOOTH",
"20 990 LINE",
"-7 960 LINE",
"156 775 LINE"
);
}
);
width = 412;
}
);
note = Icaron;
unicode = 01CF;
},
{
glyphname = Icircumflex;
lastChange = "2015-12-01 13:46:18 +0000";
layers = (
{
layerId = "9C69E37B-FF92-47DE-801E-679C7E50BD15";
name = Bold;
paths = (
{
closed = 1;
nodes = (
"396 0 LINE",
"396 48 LINE",
"364 48 LINE SMOOTH",
"326 48 OFFCURVE",
"310 62 OFFCURVE",
"310 88 CURVE SMOOTH",
"310 612 LINE SMOOTH",
"310 638 OFFCURVE",
"326 652 OFFCURVE",
"364 652 CURVE SMOOTH",
"396 652 LINE",
"396 700 LINE",
"16 700 LINE",
"16 652 LINE",
"48 652 LINE SMOOTH",
"86 652 OFFCURVE",
"102 638 OFFCURVE",
"102 612 CURVE SMOOTH",
"102 88 LINE SMOOTH",
"102 62 OFFCURVE",
"86 48 OFFCURVE",
"48 48 CURVE SMOOTH",
"16 48 LINE",
"16 0 LINE"
);
},
{
closed = 1;
nodes = (
"162 878 LINE SMOOTH",
"179 890 OFFCURVE",
"195 899 OFFCURVE",
"206 899 CURVE SMOOTH",
"218 899 OFFCURVE",
"233 890 OFFCURVE",
"250 878 CURVE SMOOTH",
"392 775 LINE",
"419 805 LINE",
"256 990 LINE",
"156 990 LINE",
"-7 805 LINE",
"20 775 LINE"
);
}
);
width = 412;
}
);
note = Icircumflex;
unicode = 00CE;
},
{
glyphname = Idieresis;
lastChange = "2015-12-01 13:46:17 +0000";
layers = (
{
layerId = "9C69E37B-FF92-47DE-801E-679C7E50BD15";
name = Bold;
paths = (
{
closed = 1;
nodes = (
"396 0 LINE",
"396 48 LINE",
"364 48 LINE SMOOTH",
"326 48 OFFCURVE",
"310 62 OFFCURVE",
"310 88 CURVE SMOOTH",
"310 612 LINE SMOOTH",
"310 638 OFFCURVE",
"326 652 OFFCURVE",
"364 652 CURVE SMOOTH",
"396 652 LINE",
"396 700 LINE",
"16 700 LINE",
"16 652 LINE",
"48 652 LINE SMOOTH",
"86 652 OFFCURVE",
"102 638 OFFCURVE",
"102 612 CURVE SMOOTH",
"102 88 LINE SMOOTH",
"102 62 OFFCURVE",
"86 48 OFFCURVE",
"48 48 CURVE SMOOTH",
"16 48 LINE",
"16 0 LINE"
);
},
{
closed = 1;
nodes = (
"129 775 OFFCURVE",
"158 808 OFFCURVE",
"158 850 CURVE SMOOTH",
"158 892 OFFCURVE",
"129 926 OFFCURVE",
"81 926 CURVE SMOOTH",
"34 926 OFFCURVE",
"6 892 OFFCURVE",
"6 850 CURVE SMOOTH",
"6 808 OFFCURVE",
"34 775 OFFCURVE",
"81 775 CURVE SMOOTH"
);
},
{
closed = 1;
nodes = (
"377 775 OFFCURVE",
"406 808 OFFCURVE",
"406 850 CURVE SMOOTH",
"406 892 OFFCURVE",
"377 926 OFFCURVE",
"330 926 CURVE SMOOTH",
"282 926 OFFCURVE",
"254 892 OFFCURVE",
"254 850 CURVE SMOOTH",
"254 808 OFFCURVE",
"282 775 OFFCURVE",
"330 775 CURVE SMOOTH"
);
}
);
width = 412;
}
);
note = Idieresis;
unicode = 00CF;
},
{
glyphname = Idotaccent;
lastChange = "2015-12-01 13:46:18 +0000";
layers = (
{
layerId = "9C69E37B-FF92-47DE-801E-679C7E50BD15";
name = Bold;
paths = (
{
closed = 1;
nodes = (
"396 0 LINE",
"396 48 LINE",
"364 48 LINE SMOOTH",
"326 48 OFFCURVE",
"310 62 OFFCURVE",
"310 88 CURVE SMOOTH",
"310 612 LINE SMOOTH",
"310 638 OFFCURVE",
"326 652 OFFCURVE",
"364 652 CURVE SMOOTH",
"396 652 LINE",
"396 700 LINE",
"16 700 LINE",
"16 652 LINE",
"48 652 LINE SMOOTH",
"86 652 OFFCURVE",
"102 638 OFFCURVE",
"102 612 CURVE SMOOTH",
"102 88 LINE SMOOTH",
"102 62 OFFCURVE",
"86 48 OFFCURVE",
"48 48 CURVE SMOOTH",
"16 48 LINE",
"16 0 LINE"
);
},
{
closed = 1;
nodes = (
"252 775 OFFCURVE",
"281 808 OFFCURVE",
"281 850 CURVE SMOOTH",
"281 892 OFFCURVE",
"252 926 OFFCURVE",
"205 926 CURVE SMOOTH",
"158 926 OFFCURVE",
"130 892 OFFCURVE",
"130 850 CURVE SMOOTH",
"130 808 OFFCURVE",
"158 775 OFFCURVE",
"205 775 CURVE SMOOTH"
);
}
);
width = 412;
}
);
note = Idotaccent;
unicode = 0130;
},
{
glyphname = Idotbelow;
lastChange = "2015-12-01 13:46:17 +0000";
layers = (
{
layerId = "9C69E37B-FF92-47DE-801E-679C7E50BD15";
name = Bold;
paths = (
{
closed = 1;
nodes = (
"396 0 LINE",
"396 48 LINE",
"364 48 LINE SMOOTH",
"326 48 OFFCURVE",
"310 62 OFFCURVE",
"310 88 CURVE SMOOTH",
"310 612 LINE SMOOTH",
"310 638 OFFCURVE",
"326 652 OFFCURVE",
"364 652 CURVE SMOOTH",
"396 652 LINE",
"396 700 LINE",
"16 700 LINE",
"16 652 LINE",
"48 652 LINE SMOOTH",
"86 652 OFFCURVE",
"102 638 OFFCURVE",
"102 612 CURVE SMOOTH",
"102 88 LINE SMOOTH",
"102 62 OFFCURVE",
"86 48 OFFCURVE",
"48 48 CURVE SMOOTH",
"16 48 LINE",
"16 0 LINE"
);
},
{
closed = 1;
nodes = (
"253 -216 OFFCURVE",
"282 -183 OFFCURVE",
"282 -141 CURVE SMOOTH",
"282 -99 OFFCURVE",
"253 -64 OFFCURVE",
"206 -64 CURVE SMOOTH",
"159 -64 OFFCURVE",
"130 -99 OFFCURVE",
"130 -141 CURVE SMOOTH",
"130 -183 OFFCURVE",
"159 -216 OFFCURVE",
"206 -216 CURVE SMOOTH"
);
}
);
width = 412;
}
);
note = Idotbelow;
unicode = 1ECA;
},
{
glyphname = Igrave;
lastChange = "2015-12-01 13:46:16 +0000";
layers = (
{
layerId = "9C69E37B-FF92-47DE-801E-679C7E50BD15";
name = Bold;
paths = (
{
closed = 1;
nodes = (
"396 0 LINE",
"396 48 LINE",
"364 48 LINE SMOOTH",
"326 48 OFFCURVE",
"310 62 OFFCURVE",
"310 88 CURVE SMOOTH",
"310 612 LINE SMOOTH",
"310 638 OFFCURVE",
"326 652 OFFCURVE",
"364 652 CURVE SMOOTH",
"396 652 LINE",
"396 700 LINE",
"16 700 LINE",
"16 652 LINE",
"48 652 LINE SMOOTH",
"86 652 OFFCURVE",
"102 638 OFFCURVE",
"102 612 CURVE SMOOTH",
"102 88 LINE SMOOTH",
"102 62 OFFCURVE",
"86 48 OFFCURVE",
"48 48 CURVE SMOOTH",
"16 48 LINE",
"16 0 LINE"
);
},
{
closed = 1;
nodes = (
"340 823 LINE",
"214 962 LINE SMOOTH",
"208 969 OFFCURVE",
"176 1005 OFFCURVE",
"135 1005 CURVE SMOOTH",
"88 1005 OFFCURVE",
"71 974 OFFCURVE",
"71 950 CURVE SMOOTH",
"71 920 OFFCURVE",
"93 897 OFFCURVE",
"132 874 CURVE SMOOTH",
"305 773 LINE"
);
}
);
width = 412;
}
);
note = Igrave;
unicode = 00CC;
},
{
glyphname = Ihookabove;
lastChange = "2015-12-01 13:46:17 +0000";
layers = (
{
layerId = "9C69E37B-FF92-47DE-801E-679C7E50BD15";
name = Bold;
paths = (
{
closed = 1;
nodes = (
"396 0 LINE",
"396 48 LINE",
"364 48 LINE SMOOTH",
"326 48 OFFCURVE",
"310 62 OFFCURVE",
"310 88 CURVE SMOOTH",
"310 612 LINE SMOOTH",
"310 638 OFFCURVE",
"326 652 OFFCURVE",
"364 652 CURVE SMOOTH",
"396 652 LINE",
"396 700 LINE",
"16 700 LINE",
"16 652 LINE",
"48 652 LINE SMOOTH",
"86 652 OFFCURVE",
"102 638 OFFCURVE",
"102 612 CURVE SMOOTH",
"102 88 LINE SMOOTH",
"102 62 OFFCURVE",
"86 48 OFFCURVE",
"48 48 CURVE SMOOTH",
"16 48 LINE",
"16 0 LINE"
);
},
{
closed = 1;
nodes = (
"235 802 LINE",
"223 802 OFFCURVE",
"206 805 OFFCURVE",
"206 828 CURVE SMOOTH",
"206 878 OFFCURVE",
"329 884 OFFCURVE",
"329 956 CURVE SMOOTH",
"329 1010 OFFCURVE",
"268 1035 OFFCURVE",
"203 1035 CURVE SMOOTH",
"105 1035 OFFCURVE",
"80 991 OFFCURVE",
"80 968 CURVE SMOOTH",
"80 941 OFFCURVE",
"100 929 OFFCURVE",
"119 929 CURVE SMOOTH",
"139 929 OFFCURVE",
"158 941 OFFCURVE",
"158 961 CURVE SMOOTH",
"158 992 OFFCURVE",
"184 999 OFFCURVE",
"201 999 CURVE SMOOTH",
"224 999 OFFCURVE",
"234 981 OFFCURVE",
"234 965 CURVE SMOOTH",
"234 898 OFFCURVE",
"136 885 OFFCURVE",
"136 830 CURVE SMOOTH",
"136 794 OFFCURVE",
"181 775 OFFCURVE",
"227 775 CURVE"
);
}
);
width = 412;
}
);
note = Ihookabove;
unicode = 1EC8;
},
{
glyphname = Imacron;
lastChange = "2015-12-01 13:46:51 +0000";
layers = (
{
layerId = "9C69E37B-FF92-47DE-801E-679C7E50BD15";
name = Bold;
paths = (
{
closed = 1;
nodes = (
"396 0 LINE",
"396 48 LINE",
"364 48 LINE SMOOTH",
"326 48 OFFCURVE",
"310 62 OFFCURVE",
"310 88 CURVE SMOOTH",
"310 612 LINE SMOOTH",
"310 638 OFFCURVE",
"326 652 OFFCURVE",
"364 652 CURVE SMOOTH",
"396 652 LINE",
"396 700 LINE",
"16 700 LINE",
"16 652 LINE",
"48 652 LINE SMOOTH",
"86 652 OFFCURVE",
"102 638 OFFCURVE",
"102 612 CURVE SMOOTH",
"102 88 LINE SMOOTH",
"102 62 OFFCURVE",
"86 48 OFFCURVE",
"48 48 CURVE SMOOTH",
"16 48 LINE",
"16 0 LINE"
);
},
{
closed = 1;
nodes = (
"444 788 LINE",
"444 875 LINE",
"-31 875 LINE",
"-31 788 LINE"
);
}
);
width = 412;
}
);
note = Imacron;
unicode = 012A;
},
{
glyphname = Iogonek;
lastChange = "2015-12-01 13:46:18 +0000";
layers = (
{
layerId = "9C69E37B-FF92-47DE-801E-679C7E50BD15";
name = Bold;
paths = (
{
closed = 1;
nodes = (
"396 0 LINE",
"396 48 LINE",
"364 48 LINE SMOOTH",
"326 48 OFFCURVE",
"310 62 OFFCURVE",
"310 88 CURVE SMOOTH",
"310 612 LINE SMOOTH",
"310 638 OFFCURVE",
"326 652 OFFCURVE",
"364 652 CURVE SMOOTH",
"396 652 LINE",
"396 700 LINE",
"16 700 LINE",
"16 652 LINE",
"48 652 LINE SMOOTH",
"86 652 OFFCURVE",
"102 638 OFFCURVE",
"102 612 CURVE SMOOTH",
"102 88 LINE SMOOTH",
"102 62 OFFCURVE",
"86 48 OFFCURVE",
"48 48 CURVE SMOOTH",
"16 48 LINE",
"16 0 LINE"
);
},
{
closed = 1;
nodes = (
"281 -243 OFFCURVE",
"325 -229 OFFCURVE",
"364 -197 CURVE",
"348 -169 LINE",
"335 -177 OFFCURVE",
"313 -183 OFFCURVE",
"297 -183 CURVE SMOOTH",
"263 -183 OFFCURVE",
"238 -162 OFFCURVE",
"237 -120 CURVE",
"237 -79 OFFCURVE",
"259 -33 OFFCURVE",
"315 13 CURVE",
"248 13 LINE",
"180 -23 OFFCURVE",
"121 -79 OFFCURVE",
"121 -140 CURVE SMOOTH",
"121 -178 OFFCURVE",
"142 -243 OFFCURVE",
"249 -243 CURVE SMOOTH"
);
}
);
width = 412;
}
);
note = Iogonek;
unicode = 012E;
},
{
glyphname = Itilde;
lastChange = "2015-12-01 13:46:18 +0000";
layers = (
{
layerId = "9C69E37B-FF92-47DE-801E-679C7E50BD15";
name = Bold;
paths = (
{
closed = 1;
nodes = (
"396 0 LINE",
"396 48 LINE",
"364 48 LINE SMOOTH",
"326 48 OFFCURVE",
"310 62 OFFCURVE",
"310 88 CURVE SMOOTH",
"310 612 LINE SMOOTH",
"310 638 OFFCURVE",
"326 652 OFFCURVE",
"364 652 CURVE SMOOTH",
"396 652 LINE",
"396 700 LINE",
"16 700 LINE",
"16 652 LINE",
"48 652 LINE SMOOTH",
"86 652 OFFCURVE",
"102 638 OFFCURVE",
"102 612 CURVE SMOOTH",
"102 88 LINE SMOOTH",
"102 62 OFFCURVE",
"86 48 OFFCURVE",
"48 48 CURVE SMOOTH",
"16 48 LINE",
"16 0 LINE"
);
},
{
closed = 1;
nodes = (
"54 810 OFFCURVE",
"70 827 OFFCURVE",
"109 827 CURVE SMOOTH",
"176 827 OFFCURVE",
"235 783 OFFCURVE",
"299 783 CURVE SMOOTH",
"384 783 OFFCURVE",
"421 866 OFFCURVE",
"439 910 CURVE",
"406 929 LINE",
"383 888 OFFCURVE",
"367 872 OFFCURVE",
"328 872 CURVE SMOOTH",
"261 872 OFFCURVE",
"203 916 OFFCURVE",
"138 916 CURVE SMOOTH",
"53 916 OFFCURVE",
"16 833 OFFCURVE",
"-3 789 CURVE",
"31 770 LINE"
);
}
);
width = 412;
}
);
note = Itilde;
unicode = 0128;
},
{
glyphname = J;
lastChange = "2015-12-01 13:46:13 +0000";
layers = (
{
layerId = "9C69E37B-FF92-47DE-801E-679C7E50BD15";
name = Bold;
paths = (
{
closed = 1;
nodes = (
"240 -114 OFFCURVE",
"373 -39 OFFCURVE",
"373 143 CURVE SMOOTH",
"373 612 LINE SMOOTH",
"373 638 OFFCURVE",
"389 652 OFFCURVE",
"427 652 CURVE SMOOTH",
"459 652 LINE",
"459 700 LINE",
"79 700 LINE",
"79 652 LINE",
"111 652 LINE SMOOTH",
"149 652 OFFCURVE",
"165 638 OFFCURVE",
"165 612 CURVE SMOOTH",
"165 146 LINE SMOOTH",
"165 40 OFFCURVE",
"156 -50 OFFCURVE",
"49 -83 CURVE",
"55 -114 LINE"
);
}
);
width = 475;
}
);
leftKerningGroup = J;
note = J;
rightKerningGroup = J;
unicode = 004A;
},
{
glyphname = Jcircumflex;
lastChange = "2015-12-01 13:46:18 +0000";
layers = (
{
layerId = "9C69E37B-FF92-47DE-801E-679C7E50BD15";
name = Bold;
paths = (
{
closed = 1;
nodes = (
"240 -114 OFFCURVE",
"373 -39 OFFCURVE",
"373 143 CURVE SMOOTH",
"373 612 LINE SMOOTH",
"373 638 OFFCURVE",
"389 652 OFFCURVE",
"427 652 CURVE SMOOTH",
"459 652 LINE",
"459 700 LINE",
"79 700 LINE",
"79 652 LINE",
"111 652 LINE SMOOTH",
"149 652 OFFCURVE",
"165 638 OFFCURVE",
"165 612 CURVE SMOOTH",
"165 146 LINE SMOOTH",
"165 40 OFFCURVE",
"156 -50 OFFCURVE",
"49 -83 CURVE",
"55 -114 LINE"
);
},
{
closed = 1;
nodes = (
"220 878 LINE SMOOTH",
"237 890 OFFCURVE",
"253 899 OFFCURVE",
"264 899 CURVE SMOOTH",
"276 899 OFFCURVE",
"291 890 OFFCURVE",
"308 878 CURVE SMOOTH",
"450 775 LINE",
"477 805 LINE",
"314 990 LINE",
"214 990 LINE",
"51 805 LINE",
"78 775 LINE"
);
}
);
width = 475;
}
);
leftKerningGroup = J;
note = Jcircumflex;
rightKerningGroup = J;
unicode = 0134;
},
{
glyphname = K;
lastChange = "2015-12-01 13:46:17 +0000";
layers = (
{
layerId = "9C69E37B-FF92-47DE-801E-679C7E50BD15";
name = Bold;
paths = (
{
closed = 1;
nodes = (
"390 0 LINE",
"390 48 LINE",
"358 48 LINE SMOOTH",
"320 48 OFFCURVE",
"304 62 OFFCURVE",
"304 88 CURVE SMOOTH",
"304 612 LINE SMOOTH",
"304 638 OFFCURVE",
"320 652 OFFCURVE",
"358 652 CURVE SMOOTH",
"390 652 LINE",
"390 700 LINE",
"10 700 LINE",
"10 652 LINE",
"42 652 LINE SMOOTH",
"80 652 OFFCURVE",
"96 638 OFFCURVE",
"96 612 CURVE SMOOTH",
"96 88 LINE SMOOTH",
"96 62 OFFCURVE",
"80 48 OFFCURVE",
"42 48 CURVE SMOOTH",
"10 48 LINE",
"10 0 LINE"
);
},
{
closed = 1;
nodes = (
"834 0 LINE",
"834 48 LINE",
"802 48 LINE SMOOTH",
"770 48 OFFCURVE",
"731 70 OFFCURVE",
"705 99 CURVE SMOOTH",
"425 406 LINE",
"291 291 LINE",
"562 0 LINE"
);
},
{
closed = 1;
nodes = (
"690 634 LINE SMOOTH",
"702 645 OFFCURVE",
"722 652 OFFCURVE",
"743 652 CURVE SMOOTH",
"773 652 LINE",
"773 700 LINE",
"514 700 LINE",
"514 652 LINE",
"530 652 LINE SMOOTH",
"556 652 OFFCURVE",
"565 644 OFFCURVE",
"565 634 CURVE SMOOTH",
"565 627 OFFCURVE",
"561 621 OFFCURVE",
"555 615 CURVE",
"293 381 LINE",
"293 277 LINE"
);
}
);
width = 839;
}
);
note = K;
rightKerningGroup = K;
unicode = 004B;
},
{
glyphname = Kcommaaccent;
lastChange = "2015-12-01 13:46:16 +0000";
layers = (
{
layerId = "9C69E37B-FF92-47DE-801E-679C7E50BD15";
name = Bold;
paths = (
{
closed = 1;
nodes = (
"390 0 LINE",
"390 48 LINE",
"358 48 LINE SMOOTH",
"320 48 OFFCURVE",
"304 62 OFFCURVE",
"304 88 CURVE SMOOTH",
"304 612 LINE SMOOTH",
"304 638 OFFCURVE",
"320 652 OFFCURVE",
"358 652 CURVE SMOOTH",
"390 652 LINE",
"390 700 LINE",
"10 700 LINE",
"10 652 LINE",
"42 652 LINE SMOOTH",
"80 652 OFFCURVE",
"96 638 OFFCURVE",
"96 612 CURVE SMOOTH",
"96 88 LINE SMOOTH",
"96 62 OFFCURVE",
"80 48 OFFCURVE",
"42 48 CURVE SMOOTH",
"10 48 LINE",
"10 0 LINE"
);
},
{
closed = 1;
nodes = (
"437 -364 OFFCURVE",
"522 -275 OFFCURVE",
"522 -187 CURVE SMOOTH",
"522 -118 OFFCURVE",
"482 -77 OFFCURVE",
"430 -77 CURVE SMOOTH",
"381 -77 OFFCURVE",
"351 -110 OFFCURVE",
"351 -146 CURVE SMOOTH",
"351 -191 OFFCURVE",
"397 -211 OFFCURVE",
"397 -257 CURVE SMOOTH",
"397 -303 OFFCURVE",
"372 -344 OFFCURVE",
"336 -381 CURVE",
"367 -409 LINE"
);
},
{
closed = 1;
nodes = (
"834 0 LINE",
"834 48 LINE",
"802 48 LINE SMOOTH",
"770 48 OFFCURVE",
"731 70 OFFCURVE",
"705 99 CURVE SMOOTH",
"425 406 LINE",
"291 291 LINE",
"562 0 LINE"
);
},
{
closed = 1;
nodes = (
"690 634 LINE SMOOTH",
"702 645 OFFCURVE",
"722 652 OFFCURVE",
"743 652 CURVE SMOOTH",
"773 652 LINE",
"773 700 LINE",
"514 700 LINE",
"514 652 LINE",
"530 652 LINE SMOOTH",
"556 652 OFFCURVE",
"565 644 OFFCURVE",
"565 634 CURVE SMOOTH",
"565 627 OFFCURVE",
"561 621 OFFCURVE",
"555 615 CURVE",
"293 381 LINE",
"293 277 LINE"
);
}
);
width = 839;
}
);
note = Kcommaaccent;
rightKerningGroup = K;
unicode = 0136;
},
{
glyphname = L;
lastChange = "2015-12-01 13:46:13 +0000";
layers = (
{
layerId = "9C69E37B-FF92-47DE-801E-679C7E50BD15";
name = Bold;
paths = (
{
closed = 1;
nodes = (
"669 0 LINE",
"691 221 LINE",
"638 221 LINE",
"631 179 OFFCURVE",
"601 68 OFFCURVE",
"531 68 CURVE SMOOTH",
"363 68 LINE SMOOTH",
"326 68 OFFCURVE",
"304 85 OFFCURVE",
"304 122 CURVE SMOOTH",
"304 612 LINE SMOOTH",
"304 638 OFFCURVE",
"320 652 OFFCURVE",
"358 652 CURVE SMOOTH",
"390 652 LINE",
"390 700 LINE",
"10 700 LINE",
"10 652 LINE",
"42 652 LINE SMOOTH",
"80 652 OFFCURVE",
"96 638 OFFCURVE",
"96 612 CURVE SMOOTH",
"96 88 LINE SMOOTH",
"96 62 OFFCURVE",
"80 48 OFFCURVE",
"42 48 CURVE SMOOTH",
"10 48 LINE",
"10 0 LINE"
);
}
);
width = 711;
}
);
note = L;
rightKerningGroup = L;
unicode = 004C;
},
{
glyphname = Lacute;
lastChange = "2015-12-01 13:46:17 +0000";
layers = (
{
layerId = "9C69E37B-FF92-47DE-801E-679C7E50BD15";
name = Bold;
paths = (
{
closed = 1;
nodes = (
"669 0 LINE",
"691 221 LINE",
"638 221 LINE",
"631 179 OFFCURVE",
"601 68 OFFCURVE",
"531 68 CURVE SMOOTH",
"363 68 LINE SMOOTH",
"326 68 OFFCURVE",
"304 85 OFFCURVE",
"304 122 CURVE SMOOTH",
"304 612 LINE SMOOTH",
"304 638 OFFCURVE",
"320 652 OFFCURVE",
"358 652 CURVE SMOOTH",
"390 652 LINE",
"390 700 LINE",
"10 700 LINE",
"10 652 LINE",
"42 652 LINE SMOOTH",
"80 652 OFFCURVE",
"96 638 OFFCURVE",
"96 612 CURVE SMOOTH",
"96 88 LINE SMOOTH",
"96 62 OFFCURVE",
"80 48 OFFCURVE",
"42 48 CURVE SMOOTH",
"10 48 LINE",
"10 0 LINE"
);
},
{
closed = 1;
nodes = (
"295 874 LINE SMOOTH",
"334 897 OFFCURVE",
"357 920 OFFCURVE",
"357 950 CURVE SMOOTH",
"357 974 OFFCURVE",
"339 1005 OFFCURVE",
"292 1005 CURVE SMOOTH",
"251 1005 OFFCURVE",
"220 969 OFFCURVE",
"214 962 CURVE SMOOTH",
"87 823 LINE",
"123 773 LINE"
);
}
);
width = 711;
}
);
note = Lacute;
rightKerningGroup = L;
unicode = 0139;
},
{
glyphname = Lcaron;
lastChange = "2015-12-01 13:46:17 +0000";
layers = (
{
layerId = "9C69E37B-FF92-47DE-801E-679C7E50BD15";
name = Bold;
paths = (
{
closed = 1;
nodes = (
"669 0 LINE",
"691 221 LINE",
"638 221 LINE",
"631 179 OFFCURVE",
"601 68 OFFCURVE",
"531 68 CURVE SMOOTH",
"363 68 LINE SMOOTH",
"326 68 OFFCURVE",
"304 85 OFFCURVE",
"304 122 CURVE SMOOTH",
"304 612 LINE SMOOTH",
"304 638 OFFCURVE",
"320 652 OFFCURVE",
"358 652 CURVE SMOOTH",
"390 652 LINE",
"390 700 LINE",
"10 700 LINE",
"10 652 LINE",
"42 652 LINE SMOOTH",
"80 652 OFFCURVE",
"96 638 OFFCURVE",
"96 612 CURVE SMOOTH",
"96 88 LINE SMOOTH",
"96 62 OFFCURVE",
"80 48 OFFCURVE",
"42 48 CURVE SMOOTH",
"10 48 LINE",
"10 0 LINE"
);
},
{
closed = 1;
nodes = (
"562 423 OFFCURVE",
"647 512 OFFCURVE",
"647 600 CURVE SMOOTH",
"647 669 OFFCURVE",
"607 710 OFFCURVE",
"555 710 CURVE SMOOTH",
"506 710 OFFCURVE",
"476 677 OFFCURVE",
"476 641 CURVE SMOOTH",
"476 596 OFFCURVE",
"522 576 OFFCURVE",
"522 530 CURVE SMOOTH",
"522 484 OFFCURVE",
"497 443 OFFCURVE",
"461 406 CURVE",
"492 378 LINE"
);
}
);
width = 711;
}
);
note = Lcaron;
rightKerningGroup = L;
unicode = 013D;
},
{
glyphname = Lcommaaccent;
lastChange = "2015-12-01 13:46:17 +0000";
layers = (
{
layerId = "9C69E37B-FF92-47DE-801E-679C7E50BD15";
name = Bold;
paths = (
{
closed = 1;
nodes = (
"669 0 LINE",
"691 221 LINE",
"638 221 LINE",
"631 179 OFFCURVE",
"601 68 OFFCURVE",
"531 68 CURVE SMOOTH",
"363 68 LINE SMOOTH",
"326 68 OFFCURVE",
"304 85 OFFCURVE",
"304 122 CURVE SMOOTH",
"304 612 LINE SMOOTH",
"304 638 OFFCURVE",
"320 652 OFFCURVE",
"358 652 CURVE SMOOTH",
"390 652 LINE",
"390 700 LINE",
"10 700 LINE",
"10 652 LINE",
"42 652 LINE SMOOTH",
"80 652 OFFCURVE",
"96 638 OFFCURVE",
"96 612 CURVE SMOOTH",
"96 88 LINE SMOOTH",
"96 62 OFFCURVE",
"80 48 OFFCURVE",
"42 48 CURVE SMOOTH",
"10 48 LINE",
"10 0 LINE"
);
},
{
closed = 1;
nodes = (
"351 -364 OFFCURVE",
"436 -275 OFFCURVE",
"436 -187 CURVE SMOOTH",
"436 -118 OFFCURVE",
"396 -77 OFFCURVE",
"344 -77 CURVE SMOOTH",
"295 -77 OFFCURVE",
"265 -110 OFFCURVE",
"265 -146 CURVE SMOOTH",
"265 -191 OFFCURVE",
"311 -211 OFFCURVE",
"311 -257 CURVE SMOOTH",
"311 -303 OFFCURVE",
"286 -344 OFFCURVE",
"250 -381 CURVE",
"281 -409 LINE"
);
}
);
width = 711;
}
);
note = Lcommaaccent;
rightKerningGroup = L;
unicode = 013B;
},
{
glyphname = Ldot;
lastChange = "2015-12-01 13:46:17 +0000";
layers = (
{
layerId = "9C69E37B-FF92-47DE-801E-679C7E50BD15";
name = Bold;
paths = (
{
closed = 1;
nodes = (
"669 0 LINE",
"691 221 LINE",
"638 221 LINE",
"631 179 OFFCURVE",
"601 68 OFFCURVE",
"531 68 CURVE SMOOTH",
"363 68 LINE SMOOTH",
"326 68 OFFCURVE",
"304 85 OFFCURVE",
"304 122 CURVE SMOOTH",
"304 612 LINE SMOOTH",
"304 638 OFFCURVE",
"320 652 OFFCURVE",
"358 652 CURVE SMOOTH",
"390 652 LINE",
"390 700 LINE",
"10 700 LINE",
"10 652 LINE",
"42 652 LINE SMOOTH",
"80 652 OFFCURVE",
"96 638 OFFCURVE",
"96 612 CURVE SMOOTH",
"96 88 LINE SMOOTH",
"96 62 OFFCURVE",
"80 48 OFFCURVE",
"42 48 CURVE SMOOTH",
"10 48 LINE",
"10 0 LINE"
);
},
{
closed = 1;
nodes = (
"547 320 OFFCURVE",
"576 353 OFFCURVE",
"576 395 CURVE SMOOTH",
"576 437 OFFCURVE",
"547 471 OFFCURVE",
"499 471 CURVE SMOOTH",
"452 471 OFFCURVE",
"424 437 OFFCURVE",
"424 395 CURVE SMOOTH",
"424 353 OFFCURVE",
"452 320 OFFCURVE",
"499 320 CURVE SMOOTH"
);
}
);
width = 711;
}
);
note = Ldot;
rightKerningGroup = L;
unicode = 013F;
},
{
glyphname = Ldotbelow;
lastChange = "2015-12-01 13:46:18 +0000";
layers = (
{
layerId = "9C69E37B-FF92-47DE-801E-679C7E50BD15";
name = Bold;
paths = (
{
closed = 1;
nodes = (
"675 0 LINE",
"697 221 LINE",
"644 221 LINE",
"637 179 OFFCURVE",
"607 68 OFFCURVE",
"537 68 CURVE SMOOTH",
"369 68 LINE SMOOTH",
"332 68 OFFCURVE",
"310 85 OFFCURVE",
"310 122 CURVE SMOOTH",
"310 612 LINE SMOOTH",
"310 638 OFFCURVE",
"326 652 OFFCURVE",
"364 652 CURVE SMOOTH",
"396 652 LINE",
"396 700 LINE",
"16 700 LINE",
"16 652 LINE",
"48 652 LINE SMOOTH",
"86 652 OFFCURVE",
"102 638 OFFCURVE",
"102 612 CURVE SMOOTH",
"102 88 LINE SMOOTH",
"102 62 OFFCURVE",
"86 48 OFFCURVE",
"48 48 CURVE SMOOTH",
"16 48 LINE",
"16 0 LINE"
);
},
{
closed = 1;
nodes = (
"405 -216 OFFCURVE",
"434 -183 OFFCURVE",
"434 -141 CURVE SMOOTH",
"434 -99 OFFCURVE",
"405 -64 OFFCURVE",
"358 -64 CURVE SMOOTH",
"311 -64 OFFCURVE",
"282 -99 OFFCURVE",
"282 -141 CURVE SMOOTH",
"282 -183 OFFCURVE",
"311 -216 OFFCURVE",
"358 -216 CURVE SMOOTH"
);
}
);
width = 717;
}
);
note = Ldotbelow;
rightKerningGroup = L;
unicode = 1E36;
},
{
glyphname = Ldotbelowmacron;
lastChange = "2015-12-01 13:46:17 +0000";
layers = (
{
layerId = "9C69E37B-FF92-47DE-801E-679C7E50BD15";
name = Bold;
paths = (
{
closed = 1;
nodes = (
"675 0 LINE",
"697 221 LINE",
"644 221 LINE",
"637 179 OFFCURVE",
"607 68 OFFCURVE",
"537 68 CURVE SMOOTH",
"369 68 LINE SMOOTH",
"332 68 OFFCURVE",
"310 85 OFFCURVE",
"310 122 CURVE SMOOTH",
"310 612 LINE SMOOTH",
"310 638 OFFCURVE",
"326 652 OFFCURVE",
"364 652 CURVE SMOOTH",
"396 652 LINE",
"396 700 LINE",
"16 700 LINE",
"16 652 LINE",
"48 652 LINE SMOOTH",
"86 652 OFFCURVE",
"102 638 OFFCURVE",
"102 612 CURVE SMOOTH",
"102 88 LINE SMOOTH",
"102 62 OFFCURVE",
"86 48 OFFCURVE",
"48 48 CURVE SMOOTH",
"16 48 LINE",
"16 0 LINE"
);
},
{
closed = 1;
nodes = (
"405 -216 OFFCURVE",
"434 -183 OFFCURVE",
"434 -141 CURVE SMOOTH",
"434 -99 OFFCURVE",
"405 -64 OFFCURVE",
"358 -64 CURVE SMOOTH",
"311 -64 OFFCURVE",
"282 -99 OFFCURVE",
"282 -141 CURVE SMOOTH",
"282 -183 OFFCURVE",
"311 -216 OFFCURVE",
"358 -216 CURVE SMOOTH"
);
},
{
closed = 1;
nodes = (
"446 774 LINE",
"446 849 LINE",
"16 849 LINE",
"16 774 LINE"
);
}
);
width = 717;
}
);
note = Ldotbelowmacron;
rightKerningGroup = L;
unicode = 1E38;
},
{
glyphname = Llinebelow;
lastChange = "2015-12-01 13:46:17 +0000";
layers = (
{
layerId = "9C69E37B-FF92-47DE-801E-679C7E50BD15";
name = Bold;
paths = (
{
closed = 1;
nodes = (
"675 0 LINE",
"697 221 LINE",
"644 221 LINE",
"637 179 OFFCURVE",
"607 68 OFFCURVE",
"537 68 CURVE SMOOTH",
"369 68 LINE SMOOTH",
"332 68 OFFCURVE",
"310 85 OFFCURVE",
"310 122 CURVE SMOOTH",
"310 612 LINE SMOOTH",
"310 638 OFFCURVE",
"326 652 OFFCURVE",
"364 652 CURVE SMOOTH",
"396 652 LINE",
"396 700 LINE",
"16 700 LINE",
"16 652 LINE",
"48 652 LINE SMOOTH",
"86 652 OFFCURVE",
"102 638 OFFCURVE",
"102 612 CURVE SMOOTH",
"102 88 LINE SMOOTH",
"102 62 OFFCURVE",
"86 48 OFFCURVE",
"48 48 CURVE SMOOTH",
"16 48 LINE",
"16 0 LINE"
);
},
{
closed = 1;
nodes = (
"554 -130 LINE",
"554 -64 LINE",
"124 -64 LINE",
"124 -130 LINE"
);
}
);
width = 717;
}
);
note = Llinebelow;
rightKerningGroup = L;
unicode = 1E3A;
},
{
glyphname = Lslash;
lastChange = "2015-12-01 13:46:18 +0000";
layers = (
{
layerId = "9C69E37B-FF92-47DE-801E-679C7E50BD15";
name = Bold;
paths = (
{
closed = 1;
nodes = (
"675 0 LINE",
"697 221 LINE",
"644 221 LINE",
"637 179 OFFCURVE",
"607 68 OFFCURVE",
"537 68 CURVE SMOOTH",
"369 68 LINE SMOOTH",
"332 68 OFFCURVE",
"310 85 OFFCURVE",
"310 122 CURVE SMOOTH",
"310 612 LINE SMOOTH",
"310 638 OFFCURVE",
"326 652 OFFCURVE",
"364 652 CURVE SMOOTH",
"396 652 LINE",
"396 700 LINE",
"16 700 LINE",
"16 652 LINE",
"48 652 LINE SMOOTH",
"86 652 OFFCURVE",
"102 638 OFFCURVE",
"102 612 CURVE SMOOTH",
"102 88 LINE SMOOTH",
"102 62 OFFCURVE",
"86 48 OFFCURVE",
"48 48 CURVE SMOOTH",
"16 48 LINE",
"16 0 LINE"
);
},
{
closed = 1;
nodes = (
"500 370 LINE",
"500 460 LINE",
"36 296 LINE",
"36 205 LINE"
);
}
);
width = 717;
}
);
note = Lslash;
rightKerningGroup = L;
unicode = 0141;
},
{
glyphname = M;
lastChange = "2015-12-01 13:48:42 +0000";
layers = (
{
layerId = "9C69E37B-FF92-47DE-801E-679C7E50BD15";
name = Bold;
paths = (
{
closed = 1;
nodes = (
"262 0 LINE",
"262 48 LINE",
"230 48 LINE SMOOTH",
"192 48 OFFCURVE",
"176 62 OFFCURVE",
"176 88 CURVE SMOOTH",
"176 537 LINE",
"371 74 LINE",
"494 74 LINE",
"696 540 LINE",
"696 88 LINE SMOOTH",
"696 62 OFFCURVE",
"680 48 OFFCURVE",
"642 48 CURVE SMOOTH",
"610 48 LINE",
"610 0 LINE",
"990 0 LINE",
"990 48 LINE",
"958 48 LINE SMOOTH",
"920 48 OFFCURVE",
"904 62 OFFCURVE",
"904 88 CURVE SMOOTH",
"904 612 LINE SMOOTH",
"904 638 OFFCURVE",
"920 652 OFFCURVE",
"958 652 CURVE SMOOTH",
"990 652 LINE",
"990 700 LINE",
"684 700 LINE",
"485 235 LINE",
"293 700 LINE",
"10 700 LINE",
"10 652 LINE",
"42 652 LINE SMOOTH",
"80 652 OFFCURVE",
"96 638 OFFCURVE",
"96 612 CURVE SMOOTH",
"96 88 LINE SMOOTH",
"96 62 OFFCURVE",
"80 48 OFFCURVE",
"42 48 CURVE SMOOTH",
"10 48 LINE",
"10 0 LINE"
);
}
);
width = 1000;
}
);
note = M;
unicode = 004D;
},
{
glyphname = Mdotbelow;
lastChange = "2015-12-01 13:48:44 +0000";
layers = (
{
layerId = "9C69E37B-FF92-47DE-801E-679C7E50BD15";
name = Bold;
paths = (
{
closed = 1;
nodes = (
"262 0 LINE",
"262 48 LINE",
"230 48 LINE SMOOTH",
"192 48 OFFCURVE",
"176 62 OFFCURVE",
"176 88 CURVE SMOOTH",
"176 537 LINE",
"371 74 LINE",
"494 74 LINE",
"696 540 LINE",
"696 88 LINE SMOOTH",
"696 62 OFFCURVE",
"680 48 OFFCURVE",
"642 48 CURVE SMOOTH",
"610 48 LINE",
"610 0 LINE",
"990 0 LINE",
"990 48 LINE",
"958 48 LINE SMOOTH",
"920 48 OFFCURVE",
"904 62 OFFCURVE",
"904 88 CURVE SMOOTH",
"904 612 LINE SMOOTH",
"904 638 OFFCURVE",
"920 652 OFFCURVE",
"958 652 CURVE SMOOTH",
"990 652 LINE",
"990 700 LINE",
"684 700 LINE",
"485 235 LINE",
"293 700 LINE",
"10 700 LINE",
"10 652 LINE",
"42 652 LINE SMOOTH",
"80 652 OFFCURVE",
"96 638 OFFCURVE",
"96 612 CURVE SMOOTH",
"96 88 LINE SMOOTH",
"96 62 OFFCURVE",
"80 48 OFFCURVE",
"42 48 CURVE SMOOTH",
"10 48 LINE",
"10 0 LINE"
);
},
{
closed = 1;
nodes = (
"547 -216 OFFCURVE",
"576 -183 OFFCURVE",
"576 -141 CURVE SMOOTH",
"576 -99 OFFCURVE",
"547 -64 OFFCURVE",
"500 -64 CURVE SMOOTH",
"453 -64 OFFCURVE",
"424 -99 OFFCURVE",
"424 -141 CURVE SMOOTH",
"424 -183 OFFCURVE",
"453 -216 OFFCURVE",
"500 -216 CURVE SMOOTH"
);
}
);
width = 1000;
}
);
note = Mdotbelow;
unicode = 1E42;
},
{
glyphname = N;
lastChange = "2015-12-01 13:46:13 +0000";
layers = (
{
layerId = "9C69E37B-FF92-47DE-801E-679C7E50BD15";
name = Bold;
paths = (
{
closed = 1;
nodes = (
"262 0 LINE",
"262 48 LINE",
"230 48 LINE SMOOTH",
"192 48 OFFCURVE",
"176 62 OFFCURVE",
"176 88 CURVE SMOOTH",
"176 581 LINE",
"603 0 LINE",
"707 0 LINE",
"707 612 LINE SMOOTH",
"707 638 OFFCURVE",
"723 652 OFFCURVE",
"761 652 CURVE SMOOTH",
"793 652 LINE",
"793 700 LINE",
"541 700 LINE",
"541 652 LINE",
"573 652 LINE SMOOTH",
"611 652 OFFCURVE",
"627 638 OFFCURVE",
"627 612 CURVE SMOOTH",
"627 251 LINE",
"293 700 LINE",
"10 700 LINE",
"10 652 LINE",
"42 652 LINE SMOOTH",
"80 652 OFFCURVE",
"96 638 OFFCURVE",
"96 612 CURVE SMOOTH",
"96 88 LINE SMOOTH",
"96 62 OFFCURVE",
"80 48 OFFCURVE",
"42 48 CURVE SMOOTH",
"10 48 LINE",
"10 0 LINE"
);
}
);
width = 803;
}
);
note = N;
unicode = 004E;
},
{
glyphname = Nacute;
lastChange = "2015-12-01 13:46:16 +0000";
layers = (
{
layerId = "9C69E37B-FF92-47DE-801E-679C7E50BD15";
name = Bold;
paths = (
{
closed = 1;
nodes = (
"262 0 LINE",
"262 48 LINE",
"230 48 LINE SMOOTH",
"192 48 OFFCURVE",
"176 62 OFFCURVE",
"176 88 CURVE SMOOTH",
"176 581 LINE",
"603 0 LINE",
"707 0 LINE",
"707 612 LINE SMOOTH",
"707 638 OFFCURVE",
"723 652 OFFCURVE",
"761 652 CURVE SMOOTH",
"793 652 LINE",
"793 700 LINE",
"541 700 LINE",
"541 652 LINE",
"573 652 LINE SMOOTH",
"611 652 OFFCURVE",
"627 638 OFFCURVE",
"627 612 CURVE SMOOTH",
"627 251 LINE",
"293 700 LINE",
"10 700 LINE",
"10 652 LINE",
"42 652 LINE SMOOTH",
"80 652 OFFCURVE",
"96 638 OFFCURVE",
"96 612 CURVE SMOOTH",
"96 88 LINE SMOOTH",
"96 62 OFFCURVE",
"80 48 OFFCURVE",
"42 48 CURVE SMOOTH",
"10 48 LINE",
"10 0 LINE"
);
},
{
closed = 1;
nodes = (
"511 874 LINE SMOOTH",
"550 897 OFFCURVE",
"573 920 OFFCURVE",
"573 950 CURVE SMOOTH",
"573 974 OFFCURVE",
"555 1005 OFFCURVE",
"508 1005 CURVE SMOOTH",
"467 1005 OFFCURVE",
"436 969 OFFCURVE",
"430 962 CURVE SMOOTH",
"303 823 LINE",
"339 773 LINE"
);
}
);
width = 803;
}
);
note = Nacute;
unicode = 0143;
},
{
glyphname = Ncaron;
lastChange = "2015-12-01 13:46:17 +0000";
layers = (
{
layerId = "9C69E37B-FF92-47DE-801E-679C7E50BD15";
name = Bold;
paths = (
{
closed = 1;
nodes = (
"262 0 LINE",
"262 48 LINE",
"230 48 LINE SMOOTH",
"192 48 OFFCURVE",
"176 62 OFFCURVE",
"176 88 CURVE SMOOTH",
"176 581 LINE",
"603 0 LINE",
"707 0 LINE",
"707 612 LINE SMOOTH",
"707 638 OFFCURVE",
"723 652 OFFCURVE",
"761 652 CURVE SMOOTH",
"793 652 LINE",
"793 700 LINE",
"541 700 LINE",
"541 652 LINE",
"573 652 LINE SMOOTH",
"611 652 OFFCURVE",
"627 638 OFFCURVE",
"627 612 CURVE SMOOTH",
"627 251 LINE",
"293 700 LINE",
"10 700 LINE",
"10 652 LINE",
"42 652 LINE SMOOTH",
"80 652 OFFCURVE",
"96 638 OFFCURVE",
"96 612 CURVE SMOOTH",
"96 88 LINE SMOOTH",
"96 62 OFFCURVE",
"80 48 OFFCURVE",
"42 48 CURVE SMOOTH",
"10 48 LINE",
"10 0 LINE"
);
},
{
closed = 1;
nodes = (
"440 775 LINE",
"603 960 LINE",
"576 990 LINE",
"434 887 LINE SMOOTH",
"417 875 OFFCURVE",
"402 866 OFFCURVE",
"390 866 CURVE SMOOTH",
"379 866 OFFCURVE",
"363 875 OFFCURVE",
"346 887 CURVE SMOOTH",
"204 990 LINE",
"177 960 LINE",
"340 775 LINE"
);
}
);
width = 803;
}
);
note = Ncaron;
unicode = 0147;
},
{
glyphname = Ncommaaccent;
lastChange = "2015-12-01 13:46:17 +0000";
layers = (
{
layerId = "9C69E37B-FF92-47DE-801E-679C7E50BD15";
name = Bold;
paths = (
{
closed = 1;
nodes = (
"262 0 LINE",
"262 48 LINE",
"230 48 LINE SMOOTH",
"192 48 OFFCURVE",
"176 62 OFFCURVE",
"176 88 CURVE SMOOTH",
"176 581 LINE",
"603 0 LINE",
"707 0 LINE",
"707 612 LINE SMOOTH",
"707 638 OFFCURVE",
"723 652 OFFCURVE",
"761 652 CURVE SMOOTH",
"793 652 LINE",
"793 700 LINE",
"541 700 LINE",
"541 652 LINE",
"573 652 LINE SMOOTH",
"611 652 OFFCURVE",
"627 638 OFFCURVE",
"627 612 CURVE SMOOTH",
"627 251 LINE",
"293 700 LINE",
"10 700 LINE",
"10 652 LINE",
"42 652 LINE SMOOTH",
"80 652 OFFCURVE",
"96 638 OFFCURVE",
"96 612 CURVE SMOOTH",
"96 88 LINE SMOOTH",
"96 62 OFFCURVE",
"80 48 OFFCURVE",
"42 48 CURVE SMOOTH",
"10 48 LINE",
"10 0 LINE"
);
},
{
closed = 1;
nodes = (
"403 -364 OFFCURVE",
"488 -275 OFFCURVE",
"488 -187 CURVE SMOOTH",
"488 -118 OFFCURVE",
"448 -77 OFFCURVE",
"396 -77 CURVE SMOOTH",
"347 -77 OFFCURVE",
"317 -110 OFFCURVE",
"317 -146 CURVE SMOOTH",
"317 -191 OFFCURVE",
"363 -211 OFFCURVE",
"363 -257 CURVE SMOOTH",
"363 -303 OFFCURVE",
"338 -344 OFFCURVE",
"302 -381 CURVE",
"333 -409 LINE"
);
}
);
width = 803;
}
);
note = Ncommaaccent;
unicode = 0145;
},
{
glyphname = Ndotaccent;
lastChange = "2015-12-01 13:46:17 +0000";
layers = (
{
layerId = "9C69E37B-FF92-47DE-801E-679C7E50BD15";
name = Bold;
paths = (
{
closed = 1;
nodes = (
"262 0 LINE",
"262 48 LINE",
"230 48 LINE SMOOTH",
"192 48 OFFCURVE",
"176 62 OFFCURVE",
"176 88 CURVE SMOOTH",
"176 581 LINE",
"603 0 LINE",
"707 0 LINE",
"707 612 LINE SMOOTH",
"707 638 OFFCURVE",
"723 652 OFFCURVE",
"761 652 CURVE SMOOTH",
"793 652 LINE",
"793 700 LINE",
"541 700 LINE",
"541 652 LINE",
"573 652 LINE SMOOTH",
"611 652 OFFCURVE",
"627 638 OFFCURVE",
"627 612 CURVE SMOOTH",
"627 251 LINE",
"293 700 LINE",
"10 700 LINE",
"10 652 LINE",
"42 652 LINE SMOOTH",
"80 652 OFFCURVE",
"96 638 OFFCURVE",
"96 612 CURVE SMOOTH",
"96 88 LINE SMOOTH",
"96 62 OFFCURVE",
"80 48 OFFCURVE",
"42 48 CURVE SMOOTH",
"10 48 LINE",
"10 0 LINE"
);
},
{
closed = 1;
nodes = (
"448 775 OFFCURVE",
"477 808 OFFCURVE",
"477 850 CURVE SMOOTH",
"477 892 OFFCURVE",
"448 926 OFFCURVE",
"401 926 CURVE SMOOTH",
"354 926 OFFCURVE",
"326 892 OFFCURVE",
"326 850 CURVE SMOOTH",
"326 808 OFFCURVE",
"354 775 OFFCURVE",
"401 775 CURVE SMOOTH"
);
}
);
width = 803;
}
);
note = Ndotaccent;
unicode = 1E44;
},
{
glyphname = Ndotbelow;
lastChange = "2015-12-01 13:46:18 +0000";
layers = (
{
layerId = "9C69E37B-FF92-47DE-801E-679C7E50BD15";
name = Bold;
paths = (
{
closed = 1;
nodes = (
"262 0 LINE",
"262 48 LINE",
"230 48 LINE SMOOTH",
"192 48 OFFCURVE",
"176 62 OFFCURVE",
"176 88 CURVE SMOOTH",
"176 581 LINE",
"603 0 LINE",
"707 0 LINE",
"707 612 LINE SMOOTH",
"707 638 OFFCURVE",
"723 652 OFFCURVE",
"761 652 CURVE SMOOTH",
"793 652 LINE",
"793 700 LINE",
"541 700 LINE",
"541 652 LINE",
"573 652 LINE SMOOTH",
"611 652 OFFCURVE",
"627 638 OFFCURVE",
"627 612 CURVE SMOOTH",
"627 251 LINE",
"293 700 LINE",
"10 700 LINE",
"10 652 LINE",
"42 652 LINE SMOOTH",
"80 652 OFFCURVE",
"96 638 OFFCURVE",
"96 612 CURVE SMOOTH",
"96 88 LINE SMOOTH",
"96 62 OFFCURVE",
"80 48 OFFCURVE",
"42 48 CURVE SMOOTH",
"10 48 LINE",
"10 0 LINE"
);
},
{
closed = 1;
nodes = (
"448 -216 OFFCURVE",
"477 -183 OFFCURVE",
"477 -141 CURVE SMOOTH",
"477 -99 OFFCURVE",
"448 -64 OFFCURVE",
"401 -64 CURVE SMOOTH",
"354 -64 OFFCURVE",
"325 -99 OFFCURVE",
"325 -141 CURVE SMOOTH",
"325 -183 OFFCURVE",
"354 -216 OFFCURVE",
"401 -216 CURVE SMOOTH"
);
}
);
width = 803;
}
);
note = uni1E46;
unicode = 1E46;
},
{
glyphname = Eng;
lastChange = "2015-12-01 13:46:13 +0000";
layers = (
{
layerId = "9C69E37B-FF92-47DE-801E-679C7E50BD15";
name = Bold;
paths = (
{
closed = 1;
nodes = (
"574 -323 OFFCURVE",
"707 -248 OFFCURVE",
"707 -66 CURVE SMOOTH",
"707 612 LINE SMOOTH",
"707 638 OFFCURVE",
"723 652 OFFCURVE",
"761 652 CURVE SMOOTH",
"793 652 LINE",
"793 700 LINE",
"541 700 LINE",
"541 652 LINE",
"573 652 LINE SMOOTH",
"611 652 OFFCURVE",
"627 638 OFFCURVE",
"627 612 CURVE SMOOTH",
"627 251 LINE",
"293 700 LINE",
"10 700 LINE",
"10 652 LINE",
"42 652 LINE SMOOTH",
"80 652 OFFCURVE",
"96 638 OFFCURVE",
"96 612 CURVE SMOOTH",
"96 88 LINE SMOOTH",
"96 62 OFFCURVE",
"80 48 OFFCURVE",
"42 48 CURVE SMOOTH",
"10 48 LINE",
"10 0 LINE",
"262 0 LINE",
"262 48 LINE",
"230 48 LINE SMOOTH",
"192 48 OFFCURVE",
"176 62 OFFCURVE",
"176 88 CURVE SMOOTH",
"176 581 LINE",
"603 0 LINE",
"603 -96 LINE SMOOTH",
"603 -202 OFFCURVE",
"495 -284 OFFCURVE",
"383 -284 CURVE",
"389 -323 LINE"
);
}
);
width = 803;
}
);
note = Eng;
unicode = 014A;
},
{
glyphname = Nlinebelow;
lastChange = "2015-12-01 13:46:18 +0000";
layers = (
{
layerId = "9C69E37B-FF92-47DE-801E-679C7E50BD15";
name = Bold;
paths = (
{
closed = 1;
nodes = (
"262 0 LINE",
"262 48 LINE",
"230 48 LINE SMOOTH",
"192 48 OFFCURVE",
"176 62 OFFCURVE",
"176 88 CURVE SMOOTH",
"176 581 LINE",
"603 0 LINE",
"707 0 LINE",
"707 612 LINE SMOOTH",
"707 638 OFFCURVE",
"723 652 OFFCURVE",
"761 652 CURVE SMOOTH",
"793 652 LINE",
"793 700 LINE",
"541 700 LINE",
"541 652 LINE",
"573 652 LINE SMOOTH",
"611 652 OFFCURVE",
"627 638 OFFCURVE",
"627 612 CURVE SMOOTH",
"627 251 LINE",
"293 700 LINE",
"10 700 LINE",
"10 652 LINE",
"42 652 LINE SMOOTH",
"80 652 OFFCURVE",
"96 638 OFFCURVE",
"96 612 CURVE SMOOTH",
"96 88 LINE SMOOTH",
"96 62 OFFCURVE",
"80 48 OFFCURVE",
"42 48 CURVE SMOOTH",
"10 48 LINE",
"10 0 LINE"
);
},
{
closed = 1;
nodes = (
"616 -130 LINE",
"616 -64 LINE",
"186 -64 LINE",
"186 -130 LINE"
);
}
);
width = 803;
}
);
note = Nlinebelow;
unicode = 1E48;
},
{
glyphname = Ntilde;
lastChange = "2015-12-01 13:46:18 +0000";
layers = (
{
layerId = "9C69E37B-FF92-47DE-801E-679C7E50BD15";
name = Bold;
paths = (
{
closed = 1;
nodes = (
"262 0 LINE",
"262 48 LINE",
"230 48 LINE SMOOTH",
"192 48 OFFCURVE",
"176 62 OFFCURVE",
"176 88 CURVE SMOOTH",
"176 581 LINE",
"603 0 LINE",
"707 0 LINE",
"707 612 LINE SMOOTH",
"707 638 OFFCURVE",
"723 652 OFFCURVE",
"761 652 CURVE SMOOTH",
"793 652 LINE",
"793 700 LINE",
"541 700 LINE",
"541 652 LINE",
"573 652 LINE SMOOTH",
"611 652 OFFCURVE",
"627 638 OFFCURVE",
"627 612 CURVE SMOOTH",
"627 251 LINE",
"293 700 LINE",
"10 700 LINE",
"10 652 LINE",
"42 652 LINE SMOOTH",
"80 652 OFFCURVE",
"96 638 OFFCURVE",
"96 612 CURVE SMOOTH",
"96 88 LINE SMOOTH",
"96 62 OFFCURVE",
"80 48 OFFCURVE",
"42 48 CURVE SMOOTH",
"10 48 LINE",
"10 0 LINE"
);
},
{
closed = 1;
nodes = (
"253 810 OFFCURVE",
"269 827 OFFCURVE",
"308 827 CURVE SMOOTH",
"375 827 OFFCURVE",
"434 783 OFFCURVE",
"498 783 CURVE SMOOTH",
"583 783 OFFCURVE",
"620 866 OFFCURVE",
"638 910 CURVE",
"605 929 LINE",
"582 888 OFFCURVE",
"566 872 OFFCURVE",
"527 872 CURVE SMOOTH",
"460 872 OFFCURVE",
"402 916 OFFCURVE",
"337 916 CURVE SMOOTH",
"252 916 OFFCURVE",
"215 833 OFFCURVE",
"196 789 CURVE",
"230 770 LINE"
);
}
);
width = 803;
}
);
note = Ntilde;
unicode = 00D1;
},
{
glyphname = O;
lastChange = "2015-12-01 13:46:16 +0000";
layers = (
{
layerId = "9C69E37B-FF92-47DE-801E-679C7E50BD15";
name = Bold;
paths = (
{
closed = 1;
nodes = (
"695 -10 OFFCURVE",
"810 138 OFFCURVE",
"810 350 CURVE SMOOTH",
"810 562 OFFCURVE",
"695 710 OFFCURVE",
"420 710 CURVE SMOOTH",
"145 710 OFFCURVE",
"30 562 OFFCURVE",
"30 350 CURVE SMOOTH",
"30 138 OFFCURVE",
"145 -10 OFFCURVE",
"420 -10 CURVE SMOOTH"
);
},
{
closed = 1;
nodes = (
"307 62 OFFCURVE",
"241 166 OFFCURVE",
"241 350 CURVE SMOOTH",
"241 534 OFFCURVE",
"307 640 OFFCURVE",
"419 640 CURVE SMOOTH",
"533 640 OFFCURVE",
"599 534 OFFCURVE",
"599 350 CURVE SMOOTH",
"599 166 OFFCURVE",
"533 62 OFFCURVE",
"419 62 CURVE SMOOTH"
);
}
);
width = 840;
}
);
leftKerningGroup = O;
note = O;
rightKerningGroup = O;
unicode = 004F;
},
{
glyphname = Oacute;
lastChange = "2015-12-01 13:46:16 +0000";
layers = (
{
layerId = "9C69E37B-FF92-47DE-801E-679C7E50BD15";
name = Bold;
paths = (
{
closed = 1;
nodes = (
"695 -10 OFFCURVE",
"810 138 OFFCURVE",
"810 350 CURVE SMOOTH",
"810 562 OFFCURVE",
"695 710 OFFCURVE",
"420 710 CURVE SMOOTH",
"145 710 OFFCURVE",
"30 562 OFFCURVE",
"30 350 CURVE SMOOTH",
"30 138 OFFCURVE",
"145 -10 OFFCURVE",
"420 -10 CURVE SMOOTH"
);
},
{
closed = 1;
nodes = (
"307 62 OFFCURVE",
"241 166 OFFCURVE",
"241 350 CURVE SMOOTH",
"241 534 OFFCURVE",
"307 640 OFFCURVE",
"419 640 CURVE SMOOTH",
"533 640 OFFCURVE",
"599 534 OFFCURVE",
"599 350 CURVE SMOOTH",
"599 166 OFFCURVE",
"533 62 OFFCURVE",
"419 62 CURVE SMOOTH"
);
},
{
closed = 1;
nodes = (
"493 874 LINE SMOOTH",
"532 897 OFFCURVE",
"555 920 OFFCURVE",
"555 950 CURVE SMOOTH",
"555 974 OFFCURVE",
"537 1005 OFFCURVE",
"490 1005 CURVE SMOOTH",
"449 1005 OFFCURVE",
"418 969 OFFCURVE",
"412 962 CURVE SMOOTH",
"285 823 LINE",
"321 773 LINE"
);
}
);
width = 840;
}
);
leftKerningGroup = O;
note = Oacute;
rightKerningGroup = O;
unicode = 00D3;
},
{
glyphname = Obreve;
lastChange = "2015-12-01 13:46:18 +0000";
layers = (
{
layerId = "9C69E37B-FF92-47DE-801E-679C7E50BD15";
name = Bold;
paths = (
{
closed = 1;
nodes = (
"695 -10 OFFCURVE",
"810 138 OFFCURVE",
"810 350 CURVE SMOOTH",
"810 562 OFFCURVE",
"695 710 OFFCURVE",
"420 710 CURVE SMOOTH",
"145 710 OFFCURVE",
"30 562 OFFCURVE",
"30 350 CURVE SMOOTH",
"30 138 OFFCURVE",
"145 -10 OFFCURVE",
"420 -10 CURVE SMOOTH"
);
},
{
closed = 1;
nodes = (
"307 62 OFFCURVE",
"241 166 OFFCURVE",
"241 350 CURVE SMOOTH",
"241 534 OFFCURVE",
"307 640 OFFCURVE",
"419 640 CURVE SMOOTH",
"533 640 OFFCURVE",
"599 534 OFFCURVE",
"599 350 CURVE SMOOTH",
"599 166 OFFCURVE",
"533 62 OFFCURVE",
"419 62 CURVE SMOOTH"
);
},
{
closed = 1;
nodes = (
"568 777 OFFCURVE",
"593 867 OFFCURVE",
"593 937 CURVE",
"547 937 LINE",
"545 913 OFFCURVE",
"525 860 OFFCURVE",
"419 860 CURVE SMOOTH",
"313 860 OFFCURVE",
"293 913 OFFCURVE",
"291 937 CURVE",
"246 937 LINE",
"246 861 OFFCURVE",
"271 777 OFFCURVE",
"420 777 CURVE SMOOTH"
);
}
);
width = 840;
}
);
leftKerningGroup = O;
note = Obreve;
rightKerningGroup = O;
unicode = 014E;
},
{
glyphname = Ocaron;
lastChange = "2015-12-01 13:46:18 +0000";
layers = (
{
layerId = "9C69E37B-FF92-47DE-801E-679C7E50BD15";
name = Bold;
paths = (
{
closed = 1;
nodes = (
"695 -10 OFFCURVE",
"810 138 OFFCURVE",
"810 350 CURVE SMOOTH",
"810 562 OFFCURVE",
"695 710 OFFCURVE",
"420 710 CURVE SMOOTH",
"145 710 OFFCURVE",
"30 562 OFFCURVE",
"30 350 CURVE SMOOTH",
"30 138 OFFCURVE",
"145 -10 OFFCURVE",
"420 -10 CURVE SMOOTH"
);
},
{
closed = 1;
nodes = (
"307 62 OFFCURVE",
"241 166 OFFCURVE",
"241 350 CURVE SMOOTH",
"241 534 OFFCURVE",
"307 640 OFFCURVE",
"419 640 CURVE SMOOTH",
"533 640 OFFCURVE",
"599 534 OFFCURVE",
"599 350 CURVE SMOOTH",
"599 166 OFFCURVE",
"533 62 OFFCURVE",
"419 62 CURVE SMOOTH"
);
},
{
closed = 1;
nodes = (
"470 775 LINE",
"633 960 LINE",
"606 990 LINE",
"464 887 LINE SMOOTH",
"447 875 OFFCURVE",
"432 866 OFFCURVE",
"420 866 CURVE SMOOTH",
"409 866 OFFCURVE",
"393 875 OFFCURVE",
"376 887 CURVE SMOOTH",
"234 990 LINE",
"207 960 LINE",
"370 775 LINE"
);
}
);
width = 840;
}
);
leftKerningGroup = O;
note = Ocaron;
rightKerningGroup = O;
unicode = 01D1;
},
{
glyphname = Ocircumflex;
lastChange = "2015-12-01 13:46:18 +0000";
layers = (
{
layerId = "9C69E37B-FF92-47DE-801E-679C7E50BD15";
name = Bold;
paths = (
{
closed = 1;
nodes = (
"695 -10 OFFCURVE",
"810 138 OFFCURVE",
"810 350 CURVE SMOOTH",
"810 562 OFFCURVE",
"695 710 OFFCURVE",
"420 710 CURVE SMOOTH",
"145 710 OFFCURVE",
"30 562 OFFCURVE",
"30 350 CURVE SMOOTH",
"30 138 OFFCURVE",
"145 -10 OFFCURVE",
"420 -10 CURVE SMOOTH"
);
},
{
closed = 1;
nodes = (
"307 62 OFFCURVE",
"241 166 OFFCURVE",
"241 350 CURVE SMOOTH",
"241 534 OFFCURVE",
"307 640 OFFCURVE",
"419 640 CURVE SMOOTH",
"533 640 OFFCURVE",
"599 534 OFFCURVE",
"599 350 CURVE SMOOTH",
"599 166 OFFCURVE",
"533 62 OFFCURVE",
"419 62 CURVE SMOOTH"
);
},
{
closed = 1;
nodes = (
"376 878 LINE SMOOTH",
"393 890 OFFCURVE",
"409 899 OFFCURVE",
"420 899 CURVE SMOOTH",
"432 899 OFFCURVE",
"447 890 OFFCURVE",
"464 878 CURVE SMOOTH",
"606 775 LINE",
"633 805 LINE",
"470 990 LINE",
"370 990 LINE",
"207 805 LINE",
"234 775 LINE"
);
}
);
width = 840;
}
);
leftKerningGroup = O;
note = Ocircumflex;
rightKerningGroup = O;
unicode = 00D4;
},
{
glyphname = Ocircumflexacute;
lastChange = "2015-12-01 13:46:18 +0000";
layers = (
{
layerId = "9C69E37B-FF92-47DE-801E-679C7E50BD15";
name = Bold;
paths = (
{
closed = 1;
nodes = (
"695 -10 OFFCURVE",
"810 138 OFFCURVE",
"810 350 CURVE SMOOTH",
"810 562 OFFCURVE",
"695 710 OFFCURVE",
"420 710 CURVE SMOOTH",
"145 710 OFFCURVE",
"30 562 OFFCURVE",
"30 350 CURVE SMOOTH",
"30 138 OFFCURVE",
"145 -10 OFFCURVE",
"420 -10 CURVE SMOOTH"
);
},
{
closed = 1;
nodes = (
"307 62 OFFCURVE",
"241 166 OFFCURVE",
"241 350 CURVE SMOOTH",
"241 534 OFFCURVE",
"307 640 OFFCURVE",
"419 640 CURVE SMOOTH",
"533 640 OFFCURVE",
"599 534 OFFCURVE",
"599 350 CURVE SMOOTH",
"599 166 OFFCURVE",
"533 62 OFFCURVE",
"419 62 CURVE SMOOTH"
);
},
{
closed = 1;
nodes = (
"377 876 LINE SMOOTH",
"393 888 OFFCURVE",
"408 897 OFFCURVE",
"419 897 CURVE SMOOTH",
"431 897 OFFCURVE",
"445 888 OFFCURVE",
"461 876 CURVE SMOOTH",
"598 773 LINE",
"624 803 LINE",
"467 988 LINE",
"371 988 LINE",
"214 803 LINE",
"240 773 LINE"
);
},
{
closed = 1;
nodes = (
"692 975 LINE SMOOTH",
"734 996 OFFCURVE",
"762 1022 OFFCURVE",
"762 1052 CURVE SMOOTH",
"762 1075 OFFCURVE",
"744 1111 OFFCURVE",
"697 1111 CURVE SMOOTH",
"661 1111 OFFCURVE",
"633 1080 OFFCURVE",
"618 1061 CURVE SMOOTH",
"540 961 LINE",
"573 918 LINE"
);
}
);
width = 840;
}
);
leftKerningGroup = O;
note = Ocircumflexacute;
rightKerningGroup = O;
unicode = 1ED0;
},
{
glyphname = Ocircumflexdotbelow;
lastChange = "2015-12-01 13:48:58 +0000";
layers = (
{
layerId = "9C69E37B-FF92-47DE-801E-679C7E50BD15";
name = Bold;
paths = (
{
closed = 1;
nodes = (
"695 -10 OFFCURVE",
"810 138 OFFCURVE",
"810 350 CURVE SMOOTH",
"810 562 OFFCURVE",
"695 710 OFFCURVE",
"420 710 CURVE SMOOTH",
"145 710 OFFCURVE",
"30 562 OFFCURVE",
"30 350 CURVE SMOOTH",
"30 138 OFFCURVE",
"145 -10 OFFCURVE",
"420 -10 CURVE SMOOTH"
);
},
{
closed = 1;
nodes = (
"307 62 OFFCURVE",
"241 166 OFFCURVE",
"241 350 CURVE SMOOTH",
"241 534 OFFCURVE",
"307 640 OFFCURVE",
"419 640 CURVE SMOOTH",
"533 640 OFFCURVE",
"599 534 OFFCURVE",
"599 350 CURVE SMOOTH",
"599 166 OFFCURVE",
"533 62 OFFCURVE",
"419 62 CURVE SMOOTH"
);
},
{
closed = 1;
nodes = (
"376 878 LINE SMOOTH",
"393 890 OFFCURVE",
"409 899 OFFCURVE",
"420 899 CURVE SMOOTH",
"432 899 OFFCURVE",
"447 890 OFFCURVE",
"464 878 CURVE SMOOTH",
"606 775 LINE",
"633 805 LINE",
"470 990 LINE",
"370 990 LINE",
"207 805 LINE",
"234 775 LINE"
);
},
{
closed = 1;
nodes = (
"465 -216 OFFCURVE",
"494 -183 OFFCURVE",
"494 -141 CURVE SMOOTH",
"494 -99 OFFCURVE",
"465 -64 OFFCURVE",
"418 -64 CURVE SMOOTH",
"371 -64 OFFCURVE",
"342 -99 OFFCURVE",
"342 -141 CURVE SMOOTH",
"342 -183 OFFCURVE",
"371 -216 OFFCURVE",
"418 -216 CURVE SMOOTH"
);
}
);
width = 840;
}
);
leftKerningGroup = O;
note = Ocircumflexdotbelow;
rightKerningGroup = O;
unicode = 1ED8;
},
{
glyphname = Ocircumflexgrave;
lastChange = "2015-12-01 13:46:19 +0000";
layers = (
{
layerId = "9C69E37B-FF92-47DE-801E-679C7E50BD15";
name = Bold;
paths = (
{
closed = 1;
nodes = (
"695 -10 OFFCURVE",
"810 138 OFFCURVE",
"810 350 CURVE SMOOTH",
"810 562 OFFCURVE",
"695 710 OFFCURVE",
"420 710 CURVE SMOOTH",
"145 710 OFFCURVE",
"30 562 OFFCURVE",
"30 350 CURVE SMOOTH",
"30 138 OFFCURVE",
"145 -10 OFFCURVE",
"420 -10 CURVE SMOOTH"
);
},
{
closed = 1;
nodes = (
"307 62 OFFCURVE",
"241 166 OFFCURVE",
"241 350 CURVE SMOOTH",
"241 534 OFFCURVE",
"307 640 OFFCURVE",
"419 640 CURVE SMOOTH",
"533 640 OFFCURVE",
"599 534 OFFCURVE",
"599 350 CURVE SMOOTH",
"599 166 OFFCURVE",
"533 62 OFFCURVE",
"419 62 CURVE SMOOTH"
);
},
{
closed = 1;
nodes = (
"299 961 LINE",
"220 1061 LINE SMOOTH",
"205 1080 OFFCURVE",
"178 1111 OFFCURVE",
"142 1111 CURVE SMOOTH",
"95 1111 OFFCURVE",
"77 1075 OFFCURVE",
"77 1052 CURVE SMOOTH",
"77 1022 OFFCURVE",
"104 996 OFFCURVE",
"147 975 CURVE SMOOTH",
"265 918 LINE"
);
},
{
closed = 1;
nodes = (
"377 876 LINE SMOOTH",
"393 888 OFFCURVE",
"408 897 OFFCURVE",
"419 897 CURVE SMOOTH",
"431 897 OFFCURVE",
"445 888 OFFCURVE",
"461 876 CURVE SMOOTH",
"598 773 LINE",
"624 803 LINE",
"467 988 LINE",
"371 988 LINE",
"214 803 LINE",
"240 773 LINE"
);
}
);
width = 840;
}
);
leftKerningGroup = O;
note = Ocircumflexgrave;
rightKerningGroup = O;
unicode = 1ED2;
},
{
glyphname = Ocircumflexhookabove;
lastChange = "2015-12-01 13:46:17 +0000";
layers = (
{
layerId = "9C69E37B-FF92-47DE-801E-679C7E50BD15";
name = Bold;
paths = (
{
closed = 1;
nodes = (
"695 -10 OFFCURVE",
"810 138 OFFCURVE",
"810 350 CURVE SMOOTH",
"810 562 OFFCURVE",
"695 710 OFFCURVE",
"420 710 CURVE SMOOTH",
"145 710 OFFCURVE",
"30 562 OFFCURVE",
"30 350 CURVE SMOOTH",
"30 138 OFFCURVE",
"145 -10 OFFCURVE",
"420 -10 CURVE SMOOTH"
);
},
{
closed = 1;
nodes = (
"307 62 OFFCURVE",
"241 166 OFFCURVE",
"241 350 CURVE SMOOTH",
"241 534 OFFCURVE",
"307 640 OFFCURVE",
"419 640 CURVE SMOOTH",
"533 640 OFFCURVE",
"599 534 OFFCURVE",
"599 350 CURVE SMOOTH",
"599 166 OFFCURVE",
"533 62 OFFCURVE",
"419 62 CURVE SMOOTH"
);
},
{
closed = 1;
nodes = (
"377 876 LINE SMOOTH",
"393 888 OFFCURVE",
"408 897 OFFCURVE",
"419 897 CURVE SMOOTH",
"431 897 OFFCURVE",
"445 888 OFFCURVE",
"461 876 CURVE SMOOTH",
"598 773 LINE",
"624 803 LINE",
"467 988 LINE",
"371 988 LINE",
"214 803 LINE",
"240 773 LINE"
);
},
{
closed = 1;
nodes = (
"632 946 LINE",
"621 946 OFFCURVE",
"607 949 OFFCURVE",
"607 969 CURVE SMOOTH",
"607 1012 OFFCURVE",
"713 1017 OFFCURVE",
"713 1079 CURVE SMOOTH",
"713 1125 OFFCURVE",
"661 1147 OFFCURVE",
"604 1147 CURVE SMOOTH",
"520 1147 OFFCURVE",
"497 1109 OFFCURVE",
"497 1090 CURVE SMOOTH",
"497 1066 OFFCURVE",
"515 1056 OFFCURVE",
"532 1056 CURVE SMOOTH",
"549 1056 OFFCURVE",
"566 1066 OFFCURVE",
"566 1083 CURVE SMOOTH",
"566 1110 OFFCURVE",
"588 1117 OFFCURVE",
"602 1117 CURVE SMOOTH",
"622 1117 OFFCURVE",
"631 1100 OFFCURVE",
"631 1087 CURVE SMOOTH",
"631 1029 OFFCURVE",
"546 1018 OFFCURVE",
"546 970 CURVE SMOOTH",
"546 939 OFFCURVE",
"585 923 OFFCURVE",
"625 923 CURVE"
);
}
);
width = 840;
}
);
leftKerningGroup = O;
note = Ocircumflexhookabove;
rightKerningGroup = O;
unicode = 1ED4;
},
{
glyphname = Ocircumflextilde;
lastChange = "2015-12-01 13:46:16 +0000";
layers = (
{
layerId = "9C69E37B-FF92-47DE-801E-679C7E50BD15";
name = Bold;
paths = (
{
closed = 1;
nodes = (
"695 -10 OFFCURVE",
"810 138 OFFCURVE",
"810 350 CURVE SMOOTH",
"810 562 OFFCURVE",
"695 710 OFFCURVE",
"420 710 CURVE SMOOTH",
"145 710 OFFCURVE",
"30 562 OFFCURVE",
"30 350 CURVE SMOOTH",
"30 138 OFFCURVE",
"145 -10 OFFCURVE",
"420 -10 CURVE SMOOTH"
);
},
{
closed = 1;
nodes = (
"307 62 OFFCURVE",
"241 166 OFFCURVE",
"241 350 CURVE SMOOTH",
"241 534 OFFCURVE",
"307 640 OFFCURVE",
"419 640 CURVE SMOOTH",
"533 640 OFFCURVE",
"599 534 OFFCURVE",
"599 350 CURVE SMOOTH",
"599 166 OFFCURVE",
"533 62 OFFCURVE",
"419 62 CURVE SMOOTH"
);
},
{
closed = 1;
nodes = (
"377 876 LINE SMOOTH",
"393 888 OFFCURVE",
"408 897 OFFCURVE",
"419 897 CURVE SMOOTH",
"431 897 OFFCURVE",
"445 888 OFFCURVE",
"461 876 CURVE SMOOTH",
"598 773 LINE",
"624 803 LINE",
"467 988 LINE",
"371 988 LINE",
"214 803 LINE",
"240 773 LINE"
);
},
{
closed = 1;
nodes = (
"270 1042 OFFCURVE",
"285 1059 OFFCURVE",
"320 1059 CURVE SMOOTH",
"380 1059 OFFCURVE",
"433 1015 OFFCURVE",
"491 1015 CURVE SMOOTH",
"567 1015 OFFCURVE",
"601 1098 OFFCURVE",
"617 1142 CURVE",
"587 1161 LINE",
"566 1120 OFFCURVE",
"552 1104 OFFCURVE",
"517 1104 CURVE SMOOTH",
"457 1104 OFFCURVE",
"404 1148 OFFCURVE",
"346 1148 CURVE SMOOTH",
"269 1148 OFFCURVE",
"236 1065 OFFCURVE",
"219 1021 CURVE",
"250 1002 LINE"
);
}
);
width = 840;
}
);
leftKerningGroup = O;
note = Ocircumflextilde;
rightKerningGroup = O;
unicode = 1ED6;
},
{
glyphname = Odieresis;
lastChange = "2015-12-01 13:46:18 +0000";
layers = (
{
layerId = "9C69E37B-FF92-47DE-801E-679C7E50BD15";
name = Bold;
paths = (
{
closed = 1;
nodes = (
"695 -10 OFFCURVE",
"810 138 OFFCURVE",
"810 350 CURVE SMOOTH",
"810 562 OFFCURVE",
"695 710 OFFCURVE",
"420 710 CURVE SMOOTH",
"145 710 OFFCURVE",
"30 562 OFFCURVE",
"30 350 CURVE SMOOTH",
"30 138 OFFCURVE",
"145 -10 OFFCURVE",
"420 -10 CURVE SMOOTH"
);
},
{
closed = 1;
nodes = (
"307 62 OFFCURVE",
"241 166 OFFCURVE",
"241 350 CURVE SMOOTH",
"241 534 OFFCURVE",
"307 640 OFFCURVE",
"419 640 CURVE SMOOTH",
"533 640 OFFCURVE",
"599 534 OFFCURVE",
"599 350 CURVE SMOOTH",
"599 166 OFFCURVE",
"533 62 OFFCURVE",
"419 62 CURVE SMOOTH"
);
},
{
closed = 1;
nodes = (
"343 775 OFFCURVE",
"372 808 OFFCURVE",
"372 850 CURVE SMOOTH",
"372 892 OFFCURVE",
"343 926 OFFCURVE",
"295 926 CURVE SMOOTH",
"248 926 OFFCURVE",
"220 892 OFFCURVE",
"220 850 CURVE SMOOTH",
"220 808 OFFCURVE",
"248 775 OFFCURVE",
"295 775 CURVE SMOOTH"
);
},
{
closed = 1;
nodes = (
"591 775 OFFCURVE",
"620 808 OFFCURVE",
"620 850 CURVE SMOOTH",
"620 892 OFFCURVE",
"591 926 OFFCURVE",
"544 926 CURVE SMOOTH",
"496 926 OFFCURVE",
"468 892 OFFCURVE",
"468 850 CURVE SMOOTH",
"468 808 OFFCURVE",
"496 775 OFFCURVE",
"544 775 CURVE SMOOTH"
);
}
);
width = 840;
}
);
leftKerningGroup = O;
note = Odieresis;
rightKerningGroup = O;
unicode = 00D6;
},
{
glyphname = Odotbelow;
lastChange = "2015-12-01 13:49:03 +0000";
layers = (
{
layerId = "9C69E37B-FF92-47DE-801E-679C7E50BD15";
name = Bold;
paths = (
{
closed = 1;
nodes = (
"695 -10 OFFCURVE",
"810 138 OFFCURVE",
"810 350 CURVE SMOOTH",
"810 562 OFFCURVE",
"695 710 OFFCURVE",
"420 710 CURVE SMOOTH",
"145 710 OFFCURVE",
"30 562 OFFCURVE",
"30 350 CURVE SMOOTH",
"30 138 OFFCURVE",
"145 -10 OFFCURVE",
"420 -10 CURVE SMOOTH"
);
},
{
closed = 1;
nodes = (
"307 62 OFFCURVE",
"241 166 OFFCURVE",
"241 350 CURVE SMOOTH",
"241 534 OFFCURVE",
"307 640 OFFCURVE",
"419 640 CURVE SMOOTH",
"533 640 OFFCURVE",
"599 534 OFFCURVE",
"599 350 CURVE SMOOTH",
"599 166 OFFCURVE",
"533 62 OFFCURVE",
"419 62 CURVE SMOOTH"
);
},
{
closed = 1;
nodes = (
"467 -216 OFFCURVE",
"496 -183 OFFCURVE",
"496 -141 CURVE SMOOTH",
"496 -99 OFFCURVE",
"467 -64 OFFCURVE",
"420 -64 CURVE SMOOTH",
"373 -64 OFFCURVE",
"344 -99 OFFCURVE",
"344 -141 CURVE SMOOTH",
"344 -183 OFFCURVE",
"373 -216 OFFCURVE",
"420 -216 CURVE SMOOTH"
);
}
);
width = 840;
}
);
leftKerningGroup = O;
note = Odotbelow;
rightKerningGroup = O;
unicode = 1ECC;
},
{
glyphname = Ograve;
lastChange = "2015-12-01 13:46:18 +0000";
layers = (
{
layerId = "9C69E37B-FF92-47DE-801E-679C7E50BD15";
name = Bold;
paths = (
{
closed = 1;
nodes = (
"695 -10 OFFCURVE",
"810 138 OFFCURVE",
"810 350 CURVE SMOOTH",
"810 562 OFFCURVE",
"695 710 OFFCURVE",
"420 710 CURVE SMOOTH",
"145 710 OFFCURVE",
"30 562 OFFCURVE",
"30 350 CURVE SMOOTH",
"30 138 OFFCURVE",
"145 -10 OFFCURVE",
"420 -10 CURVE SMOOTH"
);
},
{
closed = 1;
nodes = (
"307 62 OFFCURVE",
"241 166 OFFCURVE",
"241 350 CURVE SMOOTH",
"241 534 OFFCURVE",
"307 640 OFFCURVE",
"419 640 CURVE SMOOTH",
"533 640 OFFCURVE",
"599 534 OFFCURVE",
"599 350 CURVE SMOOTH",
"599 166 OFFCURVE",
"533 62 OFFCURVE",
"419 62 CURVE SMOOTH"
);
},
{
closed = 1;
nodes = (
"554 823 LINE",
"428 962 LINE SMOOTH",
"422 969 OFFCURVE",
"390 1005 OFFCURVE",
"349 1005 CURVE SMOOTH",
"302 1005 OFFCURVE",
"285 974 OFFCURVE",
"285 950 CURVE SMOOTH",
"285 920 OFFCURVE",
"307 897 OFFCURVE",
"346 874 CURVE SMOOTH",
"519 773 LINE"
);
}
);
width = 840;
}
);
leftKerningGroup = O;
note = Ograve;
rightKerningGroup = O;
unicode = 00D2;
},
{
glyphname = Ohookabove;
lastChange = "2015-12-01 13:46:18 +0000";
layers = (
{
layerId = "9C69E37B-FF92-47DE-801E-679C7E50BD15";
name = Bold;
paths = (
{
closed = 1;
nodes = (
"695 -10 OFFCURVE",
"810 138 OFFCURVE",
"810 350 CURVE SMOOTH",
"810 562 OFFCURVE",
"695 710 OFFCURVE",
"420 710 CURVE SMOOTH",
"145 710 OFFCURVE",
"30 562 OFFCURVE",
"30 350 CURVE SMOOTH",
"30 138 OFFCURVE",
"145 -10 OFFCURVE",
"420 -10 CURVE SMOOTH"
);
},
{
closed = 1;
nodes = (
"307 62 OFFCURVE",
"241 166 OFFCURVE",
"241 350 CURVE SMOOTH",
"241 534 OFFCURVE",
"307 640 OFFCURVE",
"419 640 CURVE SMOOTH",
"533 640 OFFCURVE",
"599 534 OFFCURVE",
"599 350 CURVE SMOOTH",
"599 166 OFFCURVE",
"533 62 OFFCURVE",
"419 62 CURVE SMOOTH"
);
},
{
closed = 1;
nodes = (
"450 802 LINE",
"438 802 OFFCURVE",
"421 805 OFFCURVE",
"421 828 CURVE SMOOTH",
"421 878 OFFCURVE",
"544 884 OFFCURVE",
"544 956 CURVE SMOOTH",
"544 1010 OFFCURVE",
"483 1035 OFFCURVE",
"418 1035 CURVE SMOOTH",
"320 1035 OFFCURVE",
"295 991 OFFCURVE",
"295 968 CURVE SMOOTH",
"295 941 OFFCURVE",
"315 929 OFFCURVE",
"334 929 CURVE SMOOTH",
"354 929 OFFCURVE",
"373 941 OFFCURVE",
"373 961 CURVE SMOOTH",
"373 992 OFFCURVE",
"399 999 OFFCURVE",
"416 999 CURVE SMOOTH",
"439 999 OFFCURVE",
"449 981 OFFCURVE",
"449 965 CURVE SMOOTH",
"449 898 OFFCURVE",
"351 885 OFFCURVE",
"351 830 CURVE SMOOTH",
"351 794 OFFCURVE",
"396 775 OFFCURVE",
"442 775 CURVE"
);
}
);
width = 840;
}
);
leftKerningGroup = O;
note = Ohookabove;
rightKerningGroup = O;
unicode = 1ECE;
},
{
glyphname = Ohorn;
lastChange = "2015-12-01 13:49:18 +0000";
layers = (
{
layerId = "9C69E37B-FF92-47DE-801E-679C7E50BD15";
name = Bold;
paths = (
{
closed = 1;
nodes = (
"695 -10 OFFCURVE",
"810 138 OFFCURVE",
"810 350 CURVE SMOOTH",
"810 562 OFFCURVE",
"695 710 OFFCURVE",
"420 710 CURVE SMOOTH",
"145 710 OFFCURVE",
"30 562 OFFCURVE",
"30 350 CURVE SMOOTH",
"30 138 OFFCURVE",
"145 -10 OFFCURVE",
"420 -10 CURVE SMOOTH"
);
},
{
closed = 1;
nodes = (
"307 62 OFFCURVE",
"241 166 OFFCURVE",
"241 350 CURVE SMOOTH",
"241 534 OFFCURVE",
"307 640 OFFCURVE",
"419 640 CURVE SMOOTH",
"533 640 OFFCURVE",
"599 534 OFFCURVE",
"599 350 CURVE SMOOTH",
"599 166 OFFCURVE",
"533 62 OFFCURVE",
"419 62 CURVE SMOOTH"
);
},
{
closed = 1;
nodes = (
"803 511 OFFCURVE",
"929 601 OFFCURVE",
"929 715 CURVE SMOOTH",
"929 784 OFFCURVE",
"889 825 OFFCURVE",
"837 825 CURVE SMOOTH",
"788 825 OFFCURVE",
"758 792 OFFCURVE",
"758 756 CURVE SMOOTH",
"758 711 OFFCURVE",
"804 691 OFFCURVE",
"804 645 CURVE SMOOTH",
"804 599 OFFCURVE",
"773 566 OFFCURVE",
"713 537 CURVE",
"713 497 LINE"
);
}
);
width = 857;
}
);
leftKerningGroup = O;
note = Ohorn;
rightKerningGroup = O;
unicode = 01A0;
},
{
glyphname = Ohornacute;
lastChange = "2015-12-01 13:49:18 +0000";
layers = (
{
layerId = "9C69E37B-FF92-47DE-801E-679C7E50BD15";
name = Bold;
paths = (
{
closed = 1;
nodes = (
"695 -10 OFFCURVE",
"810 138 OFFCURVE",
"810 350 CURVE SMOOTH",
"810 562 OFFCURVE",
"695 710 OFFCURVE",
"420 710 CURVE SMOOTH",
"145 710 OFFCURVE",
"30 562 OFFCURVE",
"30 350 CURVE SMOOTH",
"30 138 OFFCURVE",
"145 -10 OFFCURVE",
"420 -10 CURVE SMOOTH"
);
},
{
closed = 1;
nodes = (
"307 62 OFFCURVE",
"241 166 OFFCURVE",
"241 350 CURVE SMOOTH",
"241 534 OFFCURVE",
"307 640 OFFCURVE",
"419 640 CURVE SMOOTH",
"533 640 OFFCURVE",
"599 534 OFFCURVE",
"599 350 CURVE SMOOTH",
"599 166 OFFCURVE",
"533 62 OFFCURVE",
"419 62 CURVE SMOOTH"
);
},
{
closed = 1;
nodes = (
"481 873 LINE SMOOTH",
"520 896 OFFCURVE",
"543 919 OFFCURVE",
"543 949 CURVE SMOOTH",
"543 973 OFFCURVE",
"525 1004 OFFCURVE",
"478 1004 CURVE SMOOTH",
"437 1004 OFFCURVE",
"406 968 OFFCURVE",
"400 961 CURVE SMOOTH",
"273 822 LINE",
"309 772 LINE"
);
},
{
closed = 1;
nodes = (
"803 511 OFFCURVE",
"929 601 OFFCURVE",
"929 715 CURVE SMOOTH",
"929 784 OFFCURVE",
"889 825 OFFCURVE",
"837 825 CURVE SMOOTH",
"788 825 OFFCURVE",
"758 792 OFFCURVE",
"758 756 CURVE SMOOTH",
"758 711 OFFCURVE",
"804 691 OFFCURVE",
"804 645 CURVE SMOOTH",
"804 599 OFFCURVE",
"773 566 OFFCURVE",
"713 537 CURVE",
"713 497 LINE"
);
}
);
width = 857;
}
);
leftKerningGroup = O;
note = Ohornacute;
rightKerningGroup = O;
unicode = 1EDA;
},
{
glyphname = Ohorndotbelow;
lastChange = "2015-12-01 13:49:26 +0000";
layers = (
{
layerId = "9C69E37B-FF92-47DE-801E-679C7E50BD15";
name = Bold;
paths = (
{
closed = 1;
nodes = (
"695 -10 OFFCURVE",
"810 138 OFFCURVE",
"810 350 CURVE SMOOTH",
"810 562 OFFCURVE",
"695 710 OFFCURVE",
"420 710 CURVE SMOOTH",
"145 710 OFFCURVE",
"30 562 OFFCURVE",
"30 350 CURVE SMOOTH",
"30 138 OFFCURVE",
"145 -10 OFFCURVE",
"420 -10 CURVE SMOOTH"
);
},
{
closed = 1;
nodes = (
"307 62 OFFCURVE",
"241 166 OFFCURVE",
"241 350 CURVE SMOOTH",
"241 534 OFFCURVE",
"307 640 OFFCURVE",
"419 640 CURVE SMOOTH",
"533 640 OFFCURVE",
"599 534 OFFCURVE",
"599 350 CURVE SMOOTH",
"599 166 OFFCURVE",
"533 62 OFFCURVE",
"419 62 CURVE SMOOTH"
);
},
{
closed = 1;
nodes = (
"803 511 OFFCURVE",
"929 601 OFFCURVE",
"929 715 CURVE SMOOTH",
"929 784 OFFCURVE",
"889 825 OFFCURVE",
"837 825 CURVE SMOOTH",
"788 825 OFFCURVE",
"758 792 OFFCURVE",
"758 756 CURVE SMOOTH",
"758 711 OFFCURVE",
"804 691 OFFCURVE",
"804 645 CURVE SMOOTH",
"804 599 OFFCURVE",
"773 566 OFFCURVE",
"713 537 CURVE",
"713 497 LINE"
);
},
{
closed = 1;
nodes = (
"473 -216 OFFCURVE",
"502 -183 OFFCURVE",
"502 -141 CURVE SMOOTH",
"502 -99 OFFCURVE",
"473 -64 OFFCURVE",
"426 -64 CURVE SMOOTH",
"379 -64 OFFCURVE",
"350 -99 OFFCURVE",
"350 -141 CURVE SMOOTH",
"350 -183 OFFCURVE",
"379 -216 OFFCURVE",
"426 -216 CURVE SMOOTH"
);
}
);
width = 857;
}
);
leftKerningGroup = O;
note = Ohorndotbelow;
rightKerningGroup = O;
unicode = 1EE2;
},
{
glyphname = Ohorngrave;
lastChange = "2015-12-01 13:49:18 +0000";
layers = (
{
layerId = "9C69E37B-FF92-47DE-801E-679C7E50BD15";
name = Bold;
paths = (
{
closed = 1;
nodes = (
"695 -10 OFFCURVE",
"810 138 OFFCURVE",
"810 350 CURVE SMOOTH",
"810 562 OFFCURVE",
"695 710 OFFCURVE",
"420 710 CURVE SMOOTH",
"145 710 OFFCURVE",
"30 562 OFFCURVE",
"30 350 CURVE SMOOTH",
"30 138 OFFCURVE",
"145 -10 OFFCURVE",
"420 -10 CURVE SMOOTH"
);
},
{
closed = 1;
nodes = (
"307 62 OFFCURVE",
"241 166 OFFCURVE",
"241 350 CURVE SMOOTH",
"241 534 OFFCURVE",
"307 640 OFFCURVE",
"419 640 CURVE SMOOTH",
"533 640 OFFCURVE",
"599 534 OFFCURVE",
"599 350 CURVE SMOOTH",
"599 166 OFFCURVE",
"533 62 OFFCURVE",
"419 62 CURVE SMOOTH"
);
},
{
closed = 1;
nodes = (
"560 851 LINE",
"434 990 LINE SMOOTH",
"428 997 OFFCURVE",
"396 1033 OFFCURVE",
"355 1033 CURVE SMOOTH",
"308 1033 OFFCURVE",
"291 1002 OFFCURVE",
"291 978 CURVE SMOOTH",
"291 948 OFFCURVE",
"313 925 OFFCURVE",
"352 902 CURVE SMOOTH",
"525 801 LINE"
);
},
{
closed = 1;
nodes = (
"803 511 OFFCURVE",
"929 601 OFFCURVE",
"929 715 CURVE SMOOTH",
"929 784 OFFCURVE",
"889 825 OFFCURVE",
"837 825 CURVE SMOOTH",
"788 825 OFFCURVE",
"758 792 OFFCURVE",
"758 756 CURVE SMOOTH",
"758 711 OFFCURVE",
"804 691 OFFCURVE",
"804 645 CURVE SMOOTH",
"804 599 OFFCURVE",
"773 566 OFFCURVE",
"713 537 CURVE",
"713 497 LINE"
);
}
);
width = 857;
}
);
leftKerningGroup = O;
note = Ohorngrave;
rightKerningGroup = O;
unicode = 1EDC;
},
{
glyphname = Ohornhookabove;
lastChange = "2015-12-01 13:49:18 +0000";
layers = (
{
layerId = "9C69E37B-FF92-47DE-801E-679C7E50BD15";
name = Bold;
paths = (
{
closed = 1;
nodes = (
"695 -10 OFFCURVE",
"810 138 OFFCURVE",
"810 350 CURVE SMOOTH",
"810 562 OFFCURVE",
"695 710 OFFCURVE",
"420 710 CURVE SMOOTH",
"145 710 OFFCURVE",
"30 562 OFFCURVE",
"30 350 CURVE SMOOTH",
"30 138 OFFCURVE",
"145 -10 OFFCURVE",
"420 -10 CURVE SMOOTH"
);
},
{
closed = 1;
nodes = (
"307 62 OFFCURVE",
"241 166 OFFCURVE",
"241 350 CURVE SMOOTH",
"241 534 OFFCURVE",
"307 640 OFFCURVE",
"419 640 CURVE SMOOTH",
"533 640 OFFCURVE",
"599 534 OFFCURVE",
"599 350 CURVE SMOOTH",
"599 166 OFFCURVE",
"533 62 OFFCURVE",
"419 62 CURVE SMOOTH"
);
},
{
closed = 1;
nodes = (
"456 830 LINE",
"444 830 OFFCURVE",
"427 833 OFFCURVE",
"427 856 CURVE SMOOTH",
"427 906 OFFCURVE",
"550 912 OFFCURVE",
"550 984 CURVE SMOOTH",
"550 1038 OFFCURVE",
"489 1063 OFFCURVE",
"424 1063 CURVE SMOOTH",
"326 1063 OFFCURVE",
"301 1019 OFFCURVE",
"301 996 CURVE SMOOTH",
"301 969 OFFCURVE",
"321 957 OFFCURVE",
"340 957 CURVE SMOOTH",
"360 957 OFFCURVE",
"379 969 OFFCURVE",
"379 989 CURVE SMOOTH",
"379 1020 OFFCURVE",
"405 1027 OFFCURVE",
"422 1027 CURVE SMOOTH",
"445 1027 OFFCURVE",
"455 1009 OFFCURVE",
"455 993 CURVE SMOOTH",
"455 926 OFFCURVE",
"357 913 OFFCURVE",
"357 858 CURVE SMOOTH",
"357 822 OFFCURVE",
"402 803 OFFCURVE",
"448 803 CURVE"
);
},
{
closed = 1;
nodes = (
"803 511 OFFCURVE",
"929 601 OFFCURVE",
"929 715 CURVE SMOOTH",
"929 784 OFFCURVE",
"889 825 OFFCURVE",
"837 825 CURVE SMOOTH",
"788 825 OFFCURVE",
"758 792 OFFCURVE",
"758 756 CURVE SMOOTH",
"758 711 OFFCURVE",
"804 691 OFFCURVE",
"804 645 CURVE SMOOTH",
"804 599 OFFCURVE",
"773 566 OFFCURVE",
"713 537 CURVE",
"713 497 LINE"
);
}
);
width = 857;
}
);
leftKerningGroup = O;
note = Ohornhookabove;
rightKerningGroup = O;
unicode = 1EDE;
},
{
glyphname = Ohorntilde;
lastChange = "2015-12-01 13:49:18 +0000";
layers = (
{
layerId = "9C69E37B-FF92-47DE-801E-679C7E50BD15";
name = Bold;
paths = (
{
closed = 1;
nodes = (
"695 -10 OFFCURVE",
"810 138 OFFCURVE",
"810 350 CURVE SMOOTH",
"810 562 OFFCURVE",
"695 710 OFFCURVE",
"420 710 CURVE SMOOTH",
"145 710 OFFCURVE",
"30 562 OFFCURVE",
"30 350 CURVE SMOOTH",
"30 138 OFFCURVE",
"145 -10 OFFCURVE",
"420 -10 CURVE SMOOTH"
);
},
{
closed = 1;
nodes = (
"307 62 OFFCURVE",
"241 166 OFFCURVE",
"241 350 CURVE SMOOTH",
"241 534 OFFCURVE",
"307 640 OFFCURVE",
"419 640 CURVE SMOOTH",
"533 640 OFFCURVE",
"599 534 OFFCURVE",
"599 350 CURVE SMOOTH",
"599 166 OFFCURVE",
"533 62 OFFCURVE",
"419 62 CURVE SMOOTH"
);
},
{
closed = 1;
nodes = (
"262 838 OFFCURVE",
"278 855 OFFCURVE",
"317 855 CURVE SMOOTH",
"384 855 OFFCURVE",
"443 811 OFFCURVE",
"507 811 CURVE SMOOTH",
"592 811 OFFCURVE",
"629 894 OFFCURVE",
"647 938 CURVE",
"614 957 LINE",
"591 916 OFFCURVE",
"575 900 OFFCURVE",
"536 900 CURVE SMOOTH",
"469 900 OFFCURVE",
"411 944 OFFCURVE",
"346 944 CURVE SMOOTH",
"261 944 OFFCURVE",
"224 861 OFFCURVE",
"205 817 CURVE",
"239 798 LINE"
);
},
{
closed = 1;
nodes = (
"803 511 OFFCURVE",
"929 601 OFFCURVE",
"929 715 CURVE SMOOTH",
"929 784 OFFCURVE",
"889 825 OFFCURVE",
"837 825 CURVE SMOOTH",
"788 825 OFFCURVE",
"758 792 OFFCURVE",
"758 756 CURVE SMOOTH",
"758 711 OFFCURVE",
"804 691 OFFCURVE",
"804 645 CURVE SMOOTH",
"804 599 OFFCURVE",
"773 566 OFFCURVE",
"713 537 CURVE",
"713 497 LINE"
);
}
);
width = 857;
}
);
leftKerningGroup = O;
note = Ohorntilde;
rightKerningGroup = O;
unicode = 1EE0;
},
{
glyphname = Ohungarumlaut;
lastChange = "2015-12-01 13:46:17 +0000";
layers = (
{
layerId = "9C69E37B-FF92-47DE-801E-679C7E50BD15";
name = Bold;
paths = (
{
closed = 1;
nodes = (
"695 -10 OFFCURVE",
"810 138 OFFCURVE",
"810 350 CURVE SMOOTH",
"810 562 OFFCURVE",
"695 710 OFFCURVE",
"420 710 CURVE SMOOTH",
"145 710 OFFCURVE",
"30 562 OFFCURVE",
"30 350 CURVE SMOOTH",
"30 138 OFFCURVE",
"145 -10 OFFCURVE",
"420 -10 CURVE SMOOTH"
);
},
{
closed = 1;
nodes = (
"307 62 OFFCURVE",
"241 166 OFFCURVE",
"241 350 CURVE SMOOTH",
"241 534 OFFCURVE",
"307 640 OFFCURVE",
"419 640 CURVE SMOOTH",
"533 640 OFFCURVE",
"599 534 OFFCURVE",
"599 350 CURVE SMOOTH",
"599 166 OFFCURVE",
"533 62 OFFCURVE",
"419 62 CURVE SMOOTH"
);
},
{
closed = 1;
nodes = (
"421 872 LINE SMOOTH",
"461 895 OFFCURVE",
"483 918 OFFCURVE",
"483 948 CURVE SMOOTH",
"483 972 OFFCURVE",
"465 1003 OFFCURVE",
"418 1003 CURVE SMOOTH",
"377 1003 OFFCURVE",
"346 967 OFFCURVE",
"340 960 CURVE SMOOTH",
"214 821 LINE",
"249 771 LINE"
);
},
{
closed = 1;
nodes = (
"651 872 LINE SMOOTH",
"690 895 OFFCURVE",
"713 918 OFFCURVE",
"713 948 CURVE SMOOTH",
"713 972 OFFCURVE",
"695 1003 OFFCURVE",
"648 1003 CURVE SMOOTH",
"607 1003 OFFCURVE",
"575 967 OFFCURVE",
"569 960 CURVE SMOOTH",
"443 821 LINE",
"478 771 LINE"
);
}
);
width = 840;
}
);
leftKerningGroup = O;
note = Ohungarumlaut;
rightKerningGroup = O;
unicode = 0150;
},
{
glyphname = Omacron;
lastChange = "2015-12-01 13:46:16 +0000";
layers = (
{
layerId = "9C69E37B-FF92-47DE-801E-679C7E50BD15";
name = Bold;
paths = (
{
closed = 1;
nodes = (
"695 -10 OFFCURVE",
"810 138 OFFCURVE",
"810 350 CURVE SMOOTH",
"810 562 OFFCURVE",
"695 710 OFFCURVE",
"420 710 CURVE SMOOTH",
"145 710 OFFCURVE",
"30 562 OFFCURVE",
"30 350 CURVE SMOOTH",
"30 138 OFFCURVE",
"145 -10 OFFCURVE",
"420 -10 CURVE SMOOTH"
);
},
{
closed = 1;
nodes = (
"307 62 OFFCURVE",
"241 166 OFFCURVE",
"241 350 CURVE SMOOTH",
"241 534 OFFCURVE",
"307 640 OFFCURVE",
"419 640 CURVE SMOOTH",
"533 640 OFFCURVE",
"599 534 OFFCURVE",
"599 350 CURVE SMOOTH",
"599 166 OFFCURVE",
"533 62 OFFCURVE",
"419 62 CURVE SMOOTH"
);
},
{
closed = 1;
nodes = (
"635 775 LINE",
"635 850 LINE",
"205 850 LINE",
"205 775 LINE"
);
}
);
width = 840;
}
);
leftKerningGroup = O;
note = Omacron;
rightKerningGroup = O;
unicode = 014C;
},
{
glyphname = Oslash;
lastChange = "2015-12-01 13:49:31 +0000";
layers = (
{
layerId = "9C69E37B-FF92-47DE-801E-679C7E50BD15";
name = Bold;
paths = (
{
closed = 1;
nodes = (
"695 -10 OFFCURVE",
"810 138 OFFCURVE",
"810 350 CURVE SMOOTH",
"810 562 OFFCURVE",
"695 710 OFFCURVE",
"420 710 CURVE SMOOTH",
"145 710 OFFCURVE",
"30 562 OFFCURVE",
"30 350 CURVE SMOOTH",
"30 138 OFFCURVE",
"145 -10 OFFCURVE",
"420 -10 CURVE SMOOTH"
);
},
{
closed = 1;
nodes = (
"307 62 OFFCURVE",
"241 166 OFFCURVE",
"241 350 CURVE SMOOTH",
"241 534 OFFCURVE",
"307 640 OFFCURVE",
"419 640 CURVE SMOOTH",
"533 640 OFFCURVE",
"599 534 OFFCURVE",
"599 350 CURVE SMOOTH",
"599 166 OFFCURVE",
"533 62 OFFCURVE",
"419 62 CURVE SMOOTH"
);
},
{
closed = 1;
nodes = (
"736 684 LINE",
"678 730 LINE",
"40 5 LINE",
"95 -40 LINE"
);
}
);
width = 840;
}
);
leftKerningGroup = O;
note = Oslash;
rightKerningGroup = O;
unicode = 00D8;
},
{
glyphname = Oslashacute;
lastChange = "2015-12-01 13:49:33 +0000";
layers = (
{
layerId = "9C69E37B-FF92-47DE-801E-679C7E50BD15";
name = Bold;
paths = (
{
closed = 1;
nodes = (
"695 -10 OFFCURVE",
"810 138 OFFCURVE",
"810 350 CURVE SMOOTH",
"810 562 OFFCURVE",
"695 710 OFFCURVE",
"420 710 CURVE SMOOTH",
"145 710 OFFCURVE",
"30 562 OFFCURVE",
"30 350 CURVE SMOOTH",
"30 138 OFFCURVE",
"145 -10 OFFCURVE",
"420 -10 CURVE SMOOTH"
);
},
{
closed = 1;
nodes = (
"307 62 OFFCURVE",
"241 166 OFFCURVE",
"241 350 CURVE SMOOTH",
"241 534 OFFCURVE",
"307 640 OFFCURVE",
"419 640 CURVE SMOOTH",
"533 640 OFFCURVE",
"599 534 OFFCURVE",
"599 350 CURVE SMOOTH",
"599 166 OFFCURVE",
"533 62 OFFCURVE",
"419 62 CURVE SMOOTH"
);
},
{
closed = 1;
nodes = (
"493 874 LINE SMOOTH",
"532 897 OFFCURVE",
"555 920 OFFCURVE",
"555 950 CURVE SMOOTH",
"555 974 OFFCURVE",
"537 1005 OFFCURVE",
"490 1005 CURVE SMOOTH",
"449 1005 OFFCURVE",
"418 969 OFFCURVE",
"412 962 CURVE SMOOTH",
"285 823 LINE",
"321 773 LINE"
);
},
{
closed = 1;
nodes = (
"736 684 LINE",
"678 730 LINE",
"40 5 LINE",
"95 -40 LINE"
);
}
);
width = 840;
}
);
leftKerningGroup = O;
note = Oslashacute;
rightKerningGroup = O;
unicode = 01FE;
},
{
glyphname = Otilde;
lastChange = "2015-12-01 13:46:18 +0000";
layers = (
{
layerId = "9C69E37B-FF92-47DE-801E-679C7E50BD15";
name = Bold;
paths = (
{
closed = 1;
nodes = (
"695 -10 OFFCURVE",
"810 138 OFFCURVE",
"810 350 CURVE SMOOTH",
"810 562 OFFCURVE",
"695 710 OFFCURVE",
"420 710 CURVE SMOOTH",
"145 710 OFFCURVE",
"30 562 OFFCURVE",
"30 350 CURVE SMOOTH",
"30 138 OFFCURVE",
"145 -10 OFFCURVE",
"420 -10 CURVE SMOOTH"
);
},
{
closed = 1;
nodes = (
"307 62 OFFCURVE",
"241 166 OFFCURVE",
"241 350 CURVE SMOOTH",
"241 534 OFFCURVE",
"307 640 OFFCURVE",
"419 640 CURVE SMOOTH",
"533 640 OFFCURVE",
"599 534 OFFCURVE",
"599 350 CURVE SMOOTH",
"599 166 OFFCURVE",
"533 62 OFFCURVE",
"419 62 CURVE SMOOTH"
);
},
{
closed = 1;
nodes = (
"247 810 OFFCURVE",
"263 827 OFFCURVE",
"302 827 CURVE SMOOTH",
"369 827 OFFCURVE",
"428 783 OFFCURVE",
"492 783 CURVE SMOOTH",
"577 783 OFFCURVE",
"614 866 OFFCURVE",
"632 910 CURVE",
"599 929 LINE",
"576 888 OFFCURVE",
"560 872 OFFCURVE",
"521 872 CURVE SMOOTH",
"454 872 OFFCURVE",
"396 916 OFFCURVE",
"331 916 CURVE SMOOTH",
"246 916 OFFCURVE",
"209 833 OFFCURVE",
"190 789 CURVE",
"224 770 LINE"
);
}
);
width = 840;
}
);
leftKerningGroup = O;
note = Otilde;
rightKerningGroup = O;
unicode = 00D5;
},
{
glyphname = OE;
lastChange = "2015-12-01 13:46:16 +0000";
layers = (
{
layerId = "9C69E37B-FF92-47DE-801E-679C7E50BD15";
name = Bold;
paths = (
{
closed = 1;
nodes = (
"529 -10 OFFCURVE",
"615 56 OFFCURVE",
"659 147 CURVE",
"582 206 LINE",
"555 112 OFFCURVE",
"499 60 OFFCURVE",
"419 60 CURVE SMOOTH",
"307 60 OFFCURVE",
"241 166 OFFCURVE",
"241 350 CURVE SMOOTH",
"241 534 OFFCURVE",
"307 640 OFFCURVE",
"419 640 CURVE SMOOTH",
"499 640 OFFCURVE",
"555 588 OFFCURVE",
"582 494 CURVE",
"659 553 LINE",
"615 644 OFFCURVE",
"529 710 OFFCURVE",
"395 710 CURVE SMOOTH",
"146 710 OFFCURVE",
"30 562 OFFCURVE",
"30 350 CURVE SMOOTH",
"30 138 OFFCURVE",
"146 -10 OFFCURVE",
"395 -10 CURVE SMOOTH"
);
},
{
closed = 1;
nodes = (
"1106 0 LINE",
"1128 203 LINE",
"1079 203 LINE",
"1067 128 OFFCURVE",
"1046 68 OFFCURVE",
"972 68 CURVE SMOOTH",
"771 68 LINE",
"771 632 LINE",
"942 632 LINE SMOOTH",
"1041 632 OFFCURVE",
"1054 532 OFFCURVE",
"1058 496 CURVE",
"1107 496 LINE",
"1107 700 LINE",
"563 700 LINE",
"563 0 LINE"
);
},
{
closed = 1;
nodes = (
"1021 240 LINE",
"1021 482 LINE",
"982 482 LINE",
"978 440 OFFCURVE",
"972 395 OFFCURVE",
"927 395 CURVE SMOOTH",
"724 395 LINE",
"724 327 LINE",
"927 327 LINE SMOOTH",
"972 327 OFFCURVE",
"978 282 OFFCURVE",
"982 240 CURVE"
);
}
);
width = 1158;
}
);
note = OE;
unicode = 0152;
},
{
glyphname = P;
lastChange = "2015-12-01 13:46:18 +0000";
layers = (
{
layerId = "9C69E37B-FF92-47DE-801E-679C7E50BD15";
name = Bold;
paths = (
{
closed = 1;
nodes = (
"390 0 LINE",
"390 48 LINE",
"358 48 LINE SMOOTH",
"320 48 OFFCURVE",
"304 62 OFFCURVE",
"304 88 CURVE SMOOTH",
"304 263 LINE",
"422 263 LINE SMOOTH",
"612 263 OFFCURVE",
"667 354 OFFCURVE",
"667 482 CURVE SMOOTH",
"667 610 OFFCURVE",
"612 700 OFFCURVE",
"422 700 CURVE SMOOTH",
"10 700 LINE",
"10 652 LINE",
"42 652 LINE SMOOTH",
"80 652 OFFCURVE",
"96 638 OFFCURVE",
"96 612 CURVE SMOOTH",
"96 88 LINE SMOOTH",
"96 62 OFFCURVE",
"80 48 OFFCURVE",
"42 48 CURVE SMOOTH",
"10 48 LINE",
"10 0 LINE"
);
},
{
closed = 1;
nodes = (
"304 632 LINE",
"370 632 LINE SMOOTH",
"434 632 OFFCURVE",
"462 581 OFFCURVE",
"462 482 CURVE SMOOTH",
"462 383 OFFCURVE",
"434 331 OFFCURVE",
"370 331 CURVE SMOOTH",
"304 331 LINE"
);
}
);
width = 687;
}
);
note = P;
unicode = 0050;
},
{
glyphname = Thorn;
lastChange = "2015-12-01 13:46:16 +0000";
layers = (
{
layerId = "9C69E37B-FF92-47DE-801E-679C7E50BD15";
name = Bold;
paths = (
{
closed = 1;
nodes = (
"390 0 LINE",
"390 48 LINE",
"358 48 LINE SMOOTH",
"320 48 OFFCURVE",
"304 62 OFFCURVE",
"304 88 CURVE SMOOTH",
"304 159 LINE",
"422 159 LINE SMOOTH",
"612 159 OFFCURVE",
"667 250 OFFCURVE",
"667 378 CURVE SMOOTH",
"667 506 OFFCURVE",
"612 596 OFFCURVE",
"422 596 CURVE SMOOTH",
"304 596 LINE",
"304 700 LINE",
"10 700 LINE",
"10 652 LINE",
"42 652 LINE SMOOTH",
"80 652 OFFCURVE",
"96 638 OFFCURVE",
"96 612 CURVE SMOOTH",
"96 88 LINE SMOOTH",
"96 62 OFFCURVE",
"80 48 OFFCURVE",
"42 48 CURVE SMOOTH",
"10 48 LINE",
"10 0 LINE"
);
},
{
closed = 1;
nodes = (
"304 528 LINE",
"370 528 LINE SMOOTH",
"434 528 OFFCURVE",
"462 477 OFFCURVE",
"462 378 CURVE SMOOTH",
"462 279 OFFCURVE",
"434 227 OFFCURVE",
"370 227 CURVE SMOOTH",
"304 227 LINE"
);
}
);
width = 687;
}
);
note = Thorn;
unicode = 00DE;
},
{
glyphname = Q;
lastChange = "2015-12-01 13:49:46 +0000";
layers = (
{
layerId = "9C69E37B-FF92-47DE-801E-679C7E50BD15";
name = Bold;
paths = (
{
closed = 1;
nodes = (
"695 -10 OFFCURVE",
"810 138 OFFCURVE",
"810 350 CURVE SMOOTH",
"810 562 OFFCURVE",
"695 710 OFFCURVE",
"420 710 CURVE SMOOTH",
"145 710 OFFCURVE",
"30 562 OFFCURVE",
"30 350 CURVE SMOOTH",
"30 138 OFFCURVE",
"145 -10 OFFCURVE",
"420 -10 CURVE SMOOTH"
);
},
{
closed = 1;
nodes = (
"307 62 OFFCURVE",
"241 166 OFFCURVE",
"241 350 CURVE SMOOTH",
"241 534 OFFCURVE",
"307 640 OFFCURVE",
"419 640 CURVE SMOOTH",
"533 640 OFFCURVE",
"599 534 OFFCURVE",
"599 350 CURVE SMOOTH",
"599 166 OFFCURVE",
"533 62 OFFCURVE",
"419 62 CURVE SMOOTH"
);
},
{
closed = 1;
nodes = (
"703 -208 OFFCURVE",
"744 -138 OFFCURVE",
"744 -64 CURVE SMOOTH",
"744 -55 OFFCURVE",
"743 -42 OFFCURVE",
"741 -32 CURVE",
"706 -32 LINE",
"690 -79 OFFCURVE",
"666 -97 OFFCURVE",
"615 -97 CURVE SMOOTH",
"520 -97 OFFCURVE",
"452 -32 OFFCURVE",
"349 -32 CURVE SMOOTH",
"336 -32 LINE",
"363 -11 OFFCURVE",
"383 3 OFFCURVE",
"406 13 CURVE",
"406 17 LINE",
"329 17 LINE",
"274 0 OFFCURVE",
"219 -46 OFFCURVE",
"185 -82 CURVE",
"206 -111 LINE",
"232 -96 OFFCURVE",
"258 -90 OFFCURVE",
"283 -90 CURVE SMOOTH",
"391 -90 OFFCURVE",
"479 -208 OFFCURVE",
"589 -208 CURVE SMOOTH"
);
}
);
width = 840;
}
);
leftKerningGroup = O;
note = Q;
rightKerningGroup = O;
unicode = 0051;
},
{
glyphname = R;
lastChange = "2015-12-01 13:49:50 +0000";
layers = (
{
layerId = "9C69E37B-FF92-47DE-801E-679C7E50BD15";
name = Bold;
paths = (
{
closed = 1;
nodes = (
"390 0 LINE",
"390 48 LINE",
"358 48 LINE SMOOTH",
"320 48 OFFCURVE",
"304 62 OFFCURVE",
"304 88 CURVE SMOOTH",
"304 283 LINE",
"422 283 LINE SMOOTH",
"612 283 OFFCURVE",
"667 364 OFFCURVE",
"667 492 CURVE SMOOTH",
"667 620 OFFCURVE",
"612 700 OFFCURVE",
"422 700 CURVE SMOOTH",
"10 700 LINE",
"10 652 LINE",
"42 652 LINE SMOOTH",
"80 652 OFFCURVE",
"96 638 OFFCURVE",
"96 612 CURVE SMOOTH",
"96 88 LINE SMOOTH",
"96 62 OFFCURVE",
"80 48 OFFCURVE",
"42 48 CURVE SMOOTH",
"10 48 LINE",
"10 0 LINE"
);
},
{
closed = 1;
nodes = (
"304 632 LINE",
"370 632 LINE SMOOTH",
"434 632 OFFCURVE",
"462 591 OFFCURVE",
"462 492 CURVE SMOOTH",
"462 393 OFFCURVE",
"434 351 OFFCURVE",
"370 351 CURVE SMOOTH",
"304 351 LINE"
);
},
{
closed = 1;
nodes = (
"733 0 LINE",
"733 48 LINE",
"669 53 OFFCURVE",
"649 117 OFFCURVE",
"629 180 CURVE SMOOTH",
"615 224 OFFCURVE",
"599 279 OFFCURVE",
"524 304 CURVE",
"335 304 LINE",
"335 300 LINE",
"423 277 OFFCURVE",
"409 179 OFFCURVE",
"434 100 CURVE SMOOTH",
"458 26 OFFCURVE",
"490 0 OFFCURVE",
"587 0 CURVE SMOOTH"
);
}
);
width = 757;
}
);
note = R;
rightKerningGroup = R;
unicode = 0052;
},
{
glyphname = Racute;
lastChange = "2015-12-01 13:49:53 +0000";
layers = (
{
layerId = "9C69E37B-FF92-47DE-801E-679C7E50BD15";
name = Bold;
paths = (
{
closed = 1;
nodes = (
"390 0 LINE",
"390 48 LINE",
"358 48 LINE SMOOTH",
"320 48 OFFCURVE",
"304 62 OFFCURVE",
"304 88 CURVE SMOOTH",
"304 283 LINE",
"422 283 LINE SMOOTH",
"612 283 OFFCURVE",
"667 364 OFFCURVE",
"667 492 CURVE SMOOTH",
"667 620 OFFCURVE",
"612 700 OFFCURVE",
"422 700 CURVE SMOOTH",
"10 700 LINE",
"10 652 LINE",
"42 652 LINE SMOOTH",
"80 652 OFFCURVE",
"96 638 OFFCURVE",
"96 612 CURVE SMOOTH",
"96 88 LINE SMOOTH",
"96 62 OFFCURVE",
"80 48 OFFCURVE",
"42 48 CURVE SMOOTH",
"10 48 LINE",
"10 0 LINE"
);
},
{
closed = 1;
nodes = (
"304 632 LINE",
"370 632 LINE SMOOTH",
"434 632 OFFCURVE",
"462 591 OFFCURVE",
"462 492 CURVE SMOOTH",
"462 393 OFFCURVE",
"434 351 OFFCURVE",
"370 351 CURVE SMOOTH",
"304 351 LINE"
);
},
{
closed = 1;
nodes = (
"733 0 LINE",
"733 48 LINE",
"669 53 OFFCURVE",
"649 117 OFFCURVE",
"629 180 CURVE SMOOTH",
"615 224 OFFCURVE",
"599 279 OFFCURVE",
"524 304 CURVE",
"335 304 LINE",
"335 300 LINE",
"423 277 OFFCURVE",
"409 179 OFFCURVE",
"434 100 CURVE SMOOTH",
"458 26 OFFCURVE",
"490 0 OFFCURVE",
"587 0 CURVE SMOOTH"
);
},
{
closed = 1;
nodes = (
"458 874 LINE SMOOTH",
"497 897 OFFCURVE",
"520 920 OFFCURVE",
"520 950 CURVE SMOOTH",
"520 974 OFFCURVE",
"502 1005 OFFCURVE",
"455 1005 CURVE SMOOTH",
"414 1005 OFFCURVE",
"383 969 OFFCURVE",
"377 962 CURVE SMOOTH",
"250 823 LINE",
"286 773 LINE"
);
}
);
width = 757;
}
);
note = Racute;
rightKerningGroup = R;
unicode = 0154;
},
{
glyphname = Rcaron;
lastChange = "2015-12-01 13:49:57 +0000";
layers = (
{
layerId = "9C69E37B-FF92-47DE-801E-679C7E50BD15";
name = Bold;
paths = (
{
closed = 1;
nodes = (
"390 0 LINE",
"390 48 LINE",
"358 48 LINE SMOOTH",
"320 48 OFFCURVE",
"304 62 OFFCURVE",
"304 88 CURVE SMOOTH",
"304 283 LINE",
"422 283 LINE SMOOTH",
"612 283 OFFCURVE",
"667 364 OFFCURVE",
"667 492 CURVE SMOOTH",
"667 620 OFFCURVE",
"612 700 OFFCURVE",
"422 700 CURVE SMOOTH",
"10 700 LINE",
"10 652 LINE",
"42 652 LINE SMOOTH",
"80 652 OFFCURVE",
"96 638 OFFCURVE",
"96 612 CURVE SMOOTH",
"96 88 LINE SMOOTH",
"96 62 OFFCURVE",
"80 48 OFFCURVE",
"42 48 CURVE SMOOTH",
"10 48 LINE",
"10 0 LINE"
);
},
{
closed = 1;
nodes = (
"304 632 LINE",
"370 632 LINE SMOOTH",
"434 632 OFFCURVE",
"462 591 OFFCURVE",
"462 492 CURVE SMOOTH",
"462 393 OFFCURVE",
"434 351 OFFCURVE",
"370 351 CURVE SMOOTH",
"304 351 LINE"
);
},
{
closed = 1;
nodes = (
"733 0 LINE",
"733 48 LINE",
"669 53 OFFCURVE",
"649 117 OFFCURVE",
"629 180 CURVE SMOOTH",
"615 224 OFFCURVE",
"599 279 OFFCURVE",
"524 304 CURVE",
"335 304 LINE",
"335 300 LINE",
"423 277 OFFCURVE",
"409 179 OFFCURVE",
"434 100 CURVE SMOOTH",
"458 26 OFFCURVE",
"490 0 OFFCURVE",
"587 0 CURVE SMOOTH"
);
},
{
closed = 1;
nodes = (
"434 775 LINE",
"597 960 LINE",
"570 990 LINE",
"428 887 LINE SMOOTH",
"411 875 OFFCURVE",
"396 866 OFFCURVE",
"384 866 CURVE SMOOTH",
"373 866 OFFCURVE",
"357 875 OFFCURVE",
"340 887 CURVE SMOOTH",
"198 990 LINE",
"171 960 LINE",
"334 775 LINE"
);
}
);
width = 757;
}
);
note = Rcaron;
rightKerningGroup = R;
unicode = 0158;
},
{
glyphname = Rcommaaccent;
lastChange = "2015-12-01 13:50:05 +0000";
layers = (
{
layerId = "9C69E37B-FF92-47DE-801E-679C7E50BD15";
name = Bold;
paths = (
{
closed = 1;
nodes = (
"390 0 LINE",
"390 48 LINE",
"358 48 LINE SMOOTH",
"320 48 OFFCURVE",
"304 62 OFFCURVE",
"304 88 CURVE SMOOTH",
"304 283 LINE",
"422 283 LINE SMOOTH",
"612 283 OFFCURVE",
"667 364 OFFCURVE",
"667 492 CURVE SMOOTH",
"667 620 OFFCURVE",
"612 700 OFFCURVE",
"422 700 CURVE SMOOTH",
"10 700 LINE",
"10 652 LINE",
"42 652 LINE SMOOTH",
"80 652 OFFCURVE",
"96 638 OFFCURVE",
"96 612 CURVE SMOOTH",
"96 88 LINE SMOOTH",
"96 62 OFFCURVE",
"80 48 OFFCURVE",
"42 48 CURVE SMOOTH",
"10 48 LINE",
"10 0 LINE"
);
},
{
closed = 1;
nodes = (
"304 632 LINE",
"370 632 LINE SMOOTH",
"434 632 OFFCURVE",
"462 591 OFFCURVE",
"462 492 CURVE SMOOTH",
"462 393 OFFCURVE",
"434 351 OFFCURVE",
"370 351 CURVE SMOOTH",
"304 351 LINE"
);
},
{
closed = 1;
nodes = (
"733 0 LINE",
"733 48 LINE",
"669 53 OFFCURVE",
"649 117 OFFCURVE",
"629 180 CURVE SMOOTH",
"615 224 OFFCURVE",
"599 279 OFFCURVE",
"524 304 CURVE",
"335 304 LINE",
"335 300 LINE",
"423 277 OFFCURVE",
"409 179 OFFCURVE",
"434 100 CURVE SMOOTH",
"458 26 OFFCURVE",
"490 0 OFFCURVE",
"587 0 CURVE SMOOTH"
);
},
{
closed = 1;
nodes = (
"400 -364 OFFCURVE",
"485 -275 OFFCURVE",
"485 -187 CURVE SMOOTH",
"485 -118 OFFCURVE",
"445 -77 OFFCURVE",
"393 -77 CURVE SMOOTH",
"344 -77 OFFCURVE",
"314 -110 OFFCURVE",
"314 -146 CURVE SMOOTH",
"314 -191 OFFCURVE",
"360 -211 OFFCURVE",
"360 -257 CURVE SMOOTH",
"360 -303 OFFCURVE",
"335 -344 OFFCURVE",
"299 -381 CURVE",
"330 -409 LINE"
);
}
);
width = 757;
}
);
note = Rcommaaccent;
rightKerningGroup = R;
unicode = 0156;
},
{
glyphname = Rdotbelow;
lastChange = "2015-12-01 13:50:14 +0000";
layers = (
{
layerId = "9C69E37B-FF92-47DE-801E-679C7E50BD15";
name = Bold;
paths = (
{
closed = 1;
nodes = (
"390 0 LINE",
"390 48 LINE",
"358 48 LINE SMOOTH",
"320 48 OFFCURVE",
"304 62 OFFCURVE",
"304 88 CURVE SMOOTH",
"304 283 LINE",
"422 283 LINE SMOOTH",
"612 283 OFFCURVE",
"667 364 OFFCURVE",
"667 492 CURVE SMOOTH",
"667 620 OFFCURVE",
"612 700 OFFCURVE",
"422 700 CURVE SMOOTH",
"10 700 LINE",
"10 652 LINE",
"42 652 LINE SMOOTH",
"80 652 OFFCURVE",
"96 638 OFFCURVE",
"96 612 CURVE SMOOTH",
"96 88 LINE SMOOTH",
"96 62 OFFCURVE",
"80 48 OFFCURVE",
"42 48 CURVE SMOOTH",
"10 48 LINE",
"10 0 LINE"
);
},
{
closed = 1;
nodes = (
"304 632 LINE",
"370 632 LINE SMOOTH",
"434 632 OFFCURVE",
"462 591 OFFCURVE",
"462 492 CURVE SMOOTH",
"462 393 OFFCURVE",
"434 351 OFFCURVE",
"370 351 CURVE SMOOTH",
"304 351 LINE"
);
},
{
closed = 1;
nodes = (
"733 0 LINE",
"733 48 LINE",
"669 53 OFFCURVE",
"649 117 OFFCURVE",
"629 180 CURVE SMOOTH",
"615 224 OFFCURVE",
"599 279 OFFCURVE",
"524 304 CURVE",
"335 304 LINE",
"335 300 LINE",
"423 277 OFFCURVE",
"409 179 OFFCURVE",
"434 100 CURVE SMOOTH",
"458 26 OFFCURVE",
"490 0 OFFCURVE",
"587 0 CURVE SMOOTH"
);
},
{
closed = 1;
nodes = (
"428 -216 OFFCURVE",
"457 -183 OFFCURVE",
"457 -141 CURVE SMOOTH",
"457 -99 OFFCURVE",
"428 -64 OFFCURVE",
"381 -64 CURVE SMOOTH",
"334 -64 OFFCURVE",
"305 -99 OFFCURVE",
"305 -141 CURVE SMOOTH",
"305 -183 OFFCURVE",
"334 -216 OFFCURVE",
"381 -216 CURVE SMOOTH"
);
}
);
width = 757;
}
);
note = Rdotbelow;
rightKerningGroup = R;
unicode = 1E5A;
},
{
glyphname = Rdotbelowmacron;
lastChange = "2015-12-01 13:50:26 +0000";
layers = (
{
layerId = "9C69E37B-FF92-47DE-801E-679C7E50BD15";
name = Bold;
paths = (
{
closed = 1;
nodes = (
"390 0 LINE",
"390 48 LINE",
"358 48 LINE SMOOTH",
"320 48 OFFCURVE",
"304 62 OFFCURVE",
"304 88 CURVE SMOOTH",
"304 283 LINE",
"422 283 LINE SMOOTH",
"612 283 OFFCURVE",
"667 364 OFFCURVE",
"667 492 CURVE SMOOTH",
"667 620 OFFCURVE",
"612 700 OFFCURVE",
"422 700 CURVE SMOOTH",
"10 700 LINE",
"10 652 LINE",
"42 652 LINE SMOOTH",
"80 652 OFFCURVE",
"96 638 OFFCURVE",
"96 612 CURVE SMOOTH",
"96 88 LINE SMOOTH",
"96 62 OFFCURVE",
"80 48 OFFCURVE",
"42 48 CURVE SMOOTH",
"10 48 LINE",
"10 0 LINE"
);
},
{
closed = 1;
nodes = (
"304 632 LINE",
"370 632 LINE SMOOTH",
"434 632 OFFCURVE",
"462 591 OFFCURVE",
"462 492 CURVE SMOOTH",
"462 393 OFFCURVE",
"434 351 OFFCURVE",
"370 351 CURVE SMOOTH",
"304 351 LINE"
);
},
{
closed = 1;
nodes = (
"733 0 LINE",
"733 48 LINE",
"669 53 OFFCURVE",
"649 117 OFFCURVE",
"629 180 CURVE SMOOTH",
"615 224 OFFCURVE",
"599 279 OFFCURVE",
"524 304 CURVE",
"335 304 LINE",
"335 300 LINE",
"423 277 OFFCURVE",
"409 179 OFFCURVE",
"434 100 CURVE SMOOTH",
"458 26 OFFCURVE",
"490 0 OFFCURVE",
"587 0 CURVE SMOOTH"
);
},
{
closed = 1;
nodes = (
"428 -216 OFFCURVE",
"457 -183 OFFCURVE",
"457 -141 CURVE SMOOTH",
"457 -99 OFFCURVE",
"428 -64 OFFCURVE",
"381 -64 CURVE SMOOTH",
"334 -64 OFFCURVE",
"305 -99 OFFCURVE",
"305 -141 CURVE SMOOTH",
"305 -183 OFFCURVE",
"334 -216 OFFCURVE",
"381 -216 CURVE SMOOTH"
);
},
{
closed = 1;
nodes = (
"575 771 LINE",
"575 858 LINE",
"100 858 LINE",
"100 771 LINE"
);
}
);
width = 757;
}
);
note = Rdotbelowmacron;
rightKerningGroup = R;
unicode = 1E5C;
},
{
glyphname = Rlinebelow;
lastChange = "2015-12-01 13:50:32 +0000";
layers = (
{
layerId = "9C69E37B-FF92-47DE-801E-679C7E50BD15";
name = Bold;
paths = (
{
closed = 1;
nodes = (
"390 0 LINE",
"390 48 LINE",
"358 48 LINE SMOOTH",
"320 48 OFFCURVE",
"304 62 OFFCURVE",
"304 88 CURVE SMOOTH",
"304 283 LINE",
"422 283 LINE SMOOTH",
"612 283 OFFCURVE",
"667 364 OFFCURVE",
"667 492 CURVE SMOOTH",
"667 620 OFFCURVE",
"612 700 OFFCURVE",
"422 700 CURVE SMOOTH",
"10 700 LINE",
"10 652 LINE",
"42 652 LINE SMOOTH",
"80 652 OFFCURVE",
"96 638 OFFCURVE",
"96 612 CURVE SMOOTH",
"96 88 LINE SMOOTH",
"96 62 OFFCURVE",
"80 48 OFFCURVE",
"42 48 CURVE SMOOTH",
"10 48 LINE",
"10 0 LINE"
);
},
{
closed = 1;
nodes = (
"304 632 LINE",
"370 632 LINE SMOOTH",
"434 632 OFFCURVE",
"462 591 OFFCURVE",
"462 492 CURVE SMOOTH",
"462 393 OFFCURVE",
"434 351 OFFCURVE",
"370 351 CURVE SMOOTH",
"304 351 LINE"
);
},
{
closed = 1;
nodes = (
"733 0 LINE",
"733 48 LINE",
"669 53 OFFCURVE",
"649 117 OFFCURVE",
"629 180 CURVE SMOOTH",
"615 224 OFFCURVE",
"599 279 OFFCURVE",
"524 304 CURVE",
"335 304 LINE",
"335 300 LINE",
"423 277 OFFCURVE",
"409 179 OFFCURVE",
"434 100 CURVE SMOOTH",
"458 25 OFFCURVE",
"492 0 OFFCURVE",
"587 0 CURVE SMOOTH"
);
},
{
closed = 1;
nodes = (
"561 -130 LINE",
"561 -64 LINE",
"131 -64 LINE",
"131 -130 LINE"
);
}
);
width = 757;
}
);
note = Rlinebelow;
rightKerningGroup = R;
unicode = 1E5E;
},
{
glyphname = S;
lastChange = "2015-12-01 13:46:13 +0000";
layers = (
{
layerId = "9C69E37B-FF92-47DE-801E-679C7E50BD15";
name = Bold;
paths = (
{
closed = 1;
nodes = (
"506 -10 OFFCURVE",
"639 46 OFFCURVE",
"639 201 CURVE SMOOTH",
"639 367 OFFCURVE",
"499 414 OFFCURVE",
"398 449 CURVE SMOOTH",
"352 465 OFFCURVE",
"255 485 OFFCURVE",
"255 551 CURVE SMOOTH",
"255 609 OFFCURVE",
"312 639 OFFCURVE",
"371 639 CURVE SMOOTH",
"450 639 OFFCURVE",
"537 604 OFFCURVE",
"553 486 CURVE",
"610 486 LINE",
"610 705 LINE",
"545 705 LINE",
"545 659 LINE SMOOTH",
"545 653 OFFCURVE",
"541 651 OFFCURVE",
"537 651 CURVE SMOOTH",
"533 651 OFFCURVE",
"529 653 OFFCURVE",
"528 654 CURVE",
"484 682 OFFCURVE",
"424 710 OFFCURVE",
"322 710 CURVE SMOOTH",
"152 710 OFFCURVE",
"45 647 OFFCURVE",
"45 519 CURVE SMOOTH",
"45 373 OFFCURVE",
"163 333 OFFCURVE",
"270 294 CURVE SMOOTH",
"339 269 OFFCURVE",
"428 238 OFFCURVE",
"428 165 CURVE SMOOTH",
"428 83 OFFCURVE",
"360 61 OFFCURVE",
"290 61 CURVE SMOOTH",
"211 61 OFFCURVE",
"111 96 OFFCURVE",
"95 214 CURVE",
"38 214 LINE",
"38 -5 LINE",
"103 -5 LINE",
"103 41 LINE SMOOTH",
"103 47 OFFCURVE",
"107 49 OFFCURVE",
"111 49 CURVE SMOOTH",
"115 49 OFFCURVE",
"119 47 OFFCURVE",
"120 46 CURVE",
"164 18 OFFCURVE",
"237 -10 OFFCURVE",
"339 -10 CURVE SMOOTH"
);
}
);
width = 677;
}
);
leftKerningGroup = S;
note = S;
rightKerningGroup = S;
unicode = 0053;
},
{
glyphname = Sacute;
lastChange = "2015-12-01 13:46:18 +0000";
layers = (
{
layerId = "9C69E37B-FF92-47DE-801E-679C7E50BD15";
name = Bold;
paths = (
{
closed = 1;
nodes = (
"506 -10 OFFCURVE",
"639 46 OFFCURVE",
"639 201 CURVE SMOOTH",
"639 367 OFFCURVE",
"499 414 OFFCURVE",
"398 449 CURVE SMOOTH",
"352 465 OFFCURVE",
"255 485 OFFCURVE",
"255 551 CURVE SMOOTH",
"255 609 OFFCURVE",
"312 639 OFFCURVE",
"371 639 CURVE SMOOTH",
"450 639 OFFCURVE",
"537 604 OFFCURVE",
"553 486 CURVE",
"610 486 LINE",
"610 705 LINE",
"545 705 LINE",
"545 659 LINE SMOOTH",
"545 653 OFFCURVE",
"541 651 OFFCURVE",
"537 651 CURVE SMOOTH",
"533 651 OFFCURVE",
"529 653 OFFCURVE",
"528 654 CURVE",
"484 682 OFFCURVE",
"424 710 OFFCURVE",
"322 710 CURVE SMOOTH",
"152 710 OFFCURVE",
"45 647 OFFCURVE",
"45 519 CURVE SMOOTH",
"45 373 OFFCURVE",
"163 333 OFFCURVE",
"270 294 CURVE SMOOTH",
"339 269 OFFCURVE",
"428 238 OFFCURVE",
"428 165 CURVE SMOOTH",
"428 83 OFFCURVE",
"360 61 OFFCURVE",
"290 61 CURVE SMOOTH",
"211 61 OFFCURVE",
"111 96 OFFCURVE",
"95 214 CURVE",
"38 214 LINE",
"38 -5 LINE",
"103 -5 LINE",
"103 41 LINE SMOOTH",
"103 47 OFFCURVE",
"107 49 OFFCURVE",
"111 49 CURVE SMOOTH",
"115 49 OFFCURVE",
"119 47 OFFCURVE",
"120 46 CURVE",
"164 18 OFFCURVE",
"237 -10 OFFCURVE",
"339 -10 CURVE SMOOTH"
);
},
{
closed = 1;
nodes = (
"411 874 LINE SMOOTH",
"450 897 OFFCURVE",
"473 920 OFFCURVE",
"473 950 CURVE SMOOTH",
"473 974 OFFCURVE",
"455 1005 OFFCURVE",
"408 1005 CURVE SMOOTH",
"367 1005 OFFCURVE",
"336 969 OFFCURVE",
"330 962 CURVE SMOOTH",
"203 823 LINE",
"239 773 LINE"
);
}
);
width = 677;
}
);
leftKerningGroup = S;
note = Sacute;
rightKerningGroup = S;
unicode = 015A;
},
{
glyphname = Scaron;
lastChange = "2015-12-01 13:46:17 +0000";
layers = (
{
layerId = "9C69E37B-FF92-47DE-801E-679C7E50BD15";
name = Bold;
paths = (
{
closed = 1;
nodes = (
"506 -10 OFFCURVE",
"639 46 OFFCURVE",
"639 201 CURVE SMOOTH",
"639 367 OFFCURVE",
"499 414 OFFCURVE",
"398 449 CURVE SMOOTH",
"352 465 OFFCURVE",
"255 485 OFFCURVE",
"255 551 CURVE SMOOTH",
"255 609 OFFCURVE",
"312 639 OFFCURVE",
"371 639 CURVE SMOOTH",
"450 639 OFFCURVE",
"537 604 OFFCURVE",
"553 486 CURVE",
"610 486 LINE",
"610 705 LINE",
"545 705 LINE",
"545 659 LINE SMOOTH",
"545 653 OFFCURVE",
"541 651 OFFCURVE",
"537 651 CURVE SMOOTH",
"533 651 OFFCURVE",
"529 653 OFFCURVE",
"528 654 CURVE",
"484 682 OFFCURVE",
"424 710 OFFCURVE",
"322 710 CURVE SMOOTH",
"152 710 OFFCURVE",
"45 647 OFFCURVE",
"45 519 CURVE SMOOTH",
"45 373 OFFCURVE",
"163 333 OFFCURVE",
"270 294 CURVE SMOOTH",
"339 269 OFFCURVE",
"428 238 OFFCURVE",
"428 165 CURVE SMOOTH",
"428 83 OFFCURVE",
"360 61 OFFCURVE",
"290 61 CURVE SMOOTH",
"211 61 OFFCURVE",
"111 96 OFFCURVE",
"95 214 CURVE",
"38 214 LINE",
"38 -5 LINE",
"103 -5 LINE",
"103 41 LINE SMOOTH",
"103 47 OFFCURVE",
"107 49 OFFCURVE",
"111 49 CURVE SMOOTH",
"115 49 OFFCURVE",
"119 47 OFFCURVE",
"120 46 CURVE",
"164 18 OFFCURVE",
"237 -10 OFFCURVE",
"339 -10 CURVE SMOOTH"
);
},
{
closed = 1;
nodes = (
"388 775 LINE",
"551 960 LINE",
"524 990 LINE",
"382 887 LINE SMOOTH",
"365 875 OFFCURVE",
"350 866 OFFCURVE",
"338 866 CURVE SMOOTH",
"327 866 OFFCURVE",
"311 875 OFFCURVE",
"294 887 CURVE SMOOTH",
"152 990 LINE",
"125 960 LINE",
"288 775 LINE"
);
}
);
width = 677;
}
);
leftKerningGroup = S;
note = Scaron;
rightKerningGroup = S;
unicode = 0160;
},
{
glyphname = Scedilla;
lastChange = "2015-12-01 13:46:16 +0000";
layers = (
{
layerId = "9C69E37B-FF92-47DE-801E-679C7E50BD15";
name = Bold;
paths = (
{
closed = 1;
nodes = (
"506 -10 OFFCURVE",
"639 46 OFFCURVE",
"639 201 CURVE SMOOTH",
"639 367 OFFCURVE",
"499 414 OFFCURVE",
"398 449 CURVE SMOOTH",
"352 465 OFFCURVE",
"255 485 OFFCURVE",
"255 551 CURVE SMOOTH",
"255 609 OFFCURVE",
"312 639 OFFCURVE",
"371 639 CURVE SMOOTH",
"450 639 OFFCURVE",
"537 604 OFFCURVE",
"553 486 CURVE",
"610 486 LINE",
"610 705 LINE",
"545 705 LINE",
"545 659 LINE SMOOTH",
"545 653 OFFCURVE",
"541 651 OFFCURVE",
"537 651 CURVE SMOOTH",
"533 651 OFFCURVE",
"529 653 OFFCURVE",
"528 654 CURVE",
"484 682 OFFCURVE",
"424 710 OFFCURVE",
"322 710 CURVE SMOOTH",
"152 710 OFFCURVE",
"45 647 OFFCURVE",
"45 519 CURVE SMOOTH",
"45 373 OFFCURVE",
"163 333 OFFCURVE",
"270 294 CURVE SMOOTH",
"339 269 OFFCURVE",
"428 238 OFFCURVE",
"428 165 CURVE SMOOTH",
"428 83 OFFCURVE",
"360 61 OFFCURVE",
"290 61 CURVE SMOOTH",
"211 61 OFFCURVE",
"111 96 OFFCURVE",
"95 214 CURVE",
"38 214 LINE",
"38 -5 LINE",
"103 -5 LINE",
"103 41 LINE SMOOTH",
"103 47 OFFCURVE",
"107 49 OFFCURVE",
"111 49 CURVE SMOOTH",
"115 49 OFFCURVE",
"119 47 OFFCURVE",
"120 46 CURVE",
"164 18 OFFCURVE",
"237 -10 OFFCURVE",
"339 -10 CURVE SMOOTH"
);
},
{
closed = 1;
nodes = (
"324 -259 OFFCURVE",
"455 -249 OFFCURVE",
"455 -135 CURVE SMOOTH",
"455 -59 OFFCURVE",
"370 -37 OFFCURVE",
"335 -31 CURVE",
"381 37 LINE",
"312 37 LINE",
"239 -73 LINE",
"247 -85 LINE",
"270 -87 OFFCURVE",
"332 -99 OFFCURVE",
"332 -145 CURVE SMOOTH",
"332 -200 OFFCURVE",
"274 -214 OFFCURVE",
"204 -214 CURVE",
"204 -255 LINE",
"226 -258 OFFCURVE",
"240 -259 OFFCURVE",
"265 -259 CURVE SMOOTH"
);
}
);
width = 677;
}
);
leftKerningGroup = S;
note = Scedilla;
rightKerningGroup = S;
unicode = 015E;
},
{
glyphname = Scircumflex;
lastChange = "2015-12-01 13:46:17 +0000";
layers = (
{
layerId = "9C69E37B-FF92-47DE-801E-679C7E50BD15";
name = Bold;
paths = (
{
closed = 1;
nodes = (
"506 -10 OFFCURVE",
"639 46 OFFCURVE",
"639 201 CURVE SMOOTH",
"639 367 OFFCURVE",
"499 414 OFFCURVE",
"398 449 CURVE SMOOTH",
"352 465 OFFCURVE",
"255 485 OFFCURVE",
"255 551 CURVE SMOOTH",
"255 609 OFFCURVE",
"312 639 OFFCURVE",
"371 639 CURVE SMOOTH",
"450 639 OFFCURVE",
"537 604 OFFCURVE",
"553 486 CURVE",
"610 486 LINE",
"610 705 LINE",
"545 705 LINE",
"545 659 LINE SMOOTH",
"545 653 OFFCURVE",
"541 651 OFFCURVE",
"537 651 CURVE SMOOTH",
"533 651 OFFCURVE",
"529 653 OFFCURVE",
"528 654 CURVE",
"484 682 OFFCURVE",
"424 710 OFFCURVE",
"322 710 CURVE SMOOTH",
"152 710 OFFCURVE",
"45 647 OFFCURVE",
"45 519 CURVE SMOOTH",
"45 373 OFFCURVE",
"163 333 OFFCURVE",
"270 294 CURVE SMOOTH",
"339 269 OFFCURVE",
"428 238 OFFCURVE",
"428 165 CURVE SMOOTH",
"428 83 OFFCURVE",
"360 61 OFFCURVE",
"290 61 CURVE SMOOTH",
"211 61 OFFCURVE",
"111 96 OFFCURVE",
"95 214 CURVE",
"38 214 LINE",
"38 -5 LINE",
"103 -5 LINE",
"103 41 LINE SMOOTH",
"103 47 OFFCURVE",
"107 49 OFFCURVE",
"111 49 CURVE SMOOTH",
"115 49 OFFCURVE",
"119 47 OFFCURVE",
"120 46 CURVE",
"164 18 OFFCURVE",
"237 -10 OFFCURVE",
"339 -10 CURVE SMOOTH"
);
},
{
closed = 1;
nodes = (
"294 878 LINE SMOOTH",
"311 890 OFFCURVE",
"327 899 OFFCURVE",
"338 899 CURVE SMOOTH",
"350 899 OFFCURVE",
"365 890 OFFCURVE",
"382 878 CURVE SMOOTH",
"524 775 LINE",
"551 805 LINE",
"388 990 LINE",
"288 990 LINE",
"125 805 LINE",
"152 775 LINE"
);
}
);
width = 677;
}
);
leftKerningGroup = S;
note = Scircumflex;
rightKerningGroup = S;
unicode = 015C;
},
{
glyphname = Scommaaccent;
lastChange = "2015-12-01 13:46:17 +0000";
layers = (
{
layerId = "9C69E37B-FF92-47DE-801E-679C7E50BD15";
name = Bold;
paths = (
{
closed = 1;
nodes = (
"506 -10 OFFCURVE",
"639 46 OFFCURVE",
"639 201 CURVE SMOOTH",
"639 367 OFFCURVE",
"499 414 OFFCURVE",
"398 449 CURVE SMOOTH",
"352 465 OFFCURVE",
"255 485 OFFCURVE",
"255 551 CURVE SMOOTH",
"255 609 OFFCURVE",
"312 639 OFFCURVE",
"371 639 CURVE SMOOTH",
"450 639 OFFCURVE",
"537 604 OFFCURVE",
"553 486 CURVE",
"610 486 LINE",
"610 705 LINE",
"545 705 LINE",
"545 659 LINE SMOOTH",
"545 653 OFFCURVE",
"541 651 OFFCURVE",
"537 651 CURVE SMOOTH",
"533 651 OFFCURVE",
"529 653 OFFCURVE",
"528 654 CURVE",
"484 682 OFFCURVE",
"424 710 OFFCURVE",
"322 710 CURVE SMOOTH",
"152 710 OFFCURVE",
"45 647 OFFCURVE",
"45 519 CURVE SMOOTH",
"45 373 OFFCURVE",
"163 333 OFFCURVE",
"270 294 CURVE SMOOTH",
"339 269 OFFCURVE",
"428 238 OFFCURVE",
"428 165 CURVE SMOOTH",
"428 83 OFFCURVE",
"360 61 OFFCURVE",
"290 61 CURVE SMOOTH",
"211 61 OFFCURVE",
"111 96 OFFCURVE",
"95 214 CURVE",
"38 214 LINE",
"38 -5 LINE",
"103 -5 LINE",
"103 41 LINE SMOOTH",
"103 47 OFFCURVE",
"107 49 OFFCURVE",
"111 49 CURVE SMOOTH",
"115 49 OFFCURVE",
"119 47 OFFCURVE",
"120 46 CURVE",
"164 18 OFFCURVE",
"237 -10 OFFCURVE",
"339 -10 CURVE SMOOTH"
);
},
{
closed = 1;
nodes = (
"342 -323 OFFCURVE",
"431 -241 OFFCURVE",
"431 -153 CURVE SMOOTH",
"431 -84 OFFCURVE",
"391 -43 OFFCURVE",
"339 -43 CURVE SMOOTH",
"290 -43 OFFCURVE",
"260 -76 OFFCURVE",
"260 -112 CURVE SMOOTH",
"260 -157 OFFCURVE",
"306 -177 OFFCURVE",
"306 -223 CURVE SMOOTH",
"306 -269 OFFCURVE",
"281 -310 OFFCURVE",
"245 -347 CURVE",
"276 -375 LINE"
);
}
);
width = 677;
}
);
leftKerningGroup = S;
note = Scommaaccent;
rightKerningGroup = S;
unicode = 0218;
},
{
glyphname = Sdotaccent;
lastChange = "2015-12-01 13:46:17 +0000";
layers = (
{
layerId = "9C69E37B-FF92-47DE-801E-679C7E50BD15";
name = Bold;
paths = (
{
closed = 1;
nodes = (
"506 -10 OFFCURVE",
"639 46 OFFCURVE",
"639 201 CURVE SMOOTH",
"639 367 OFFCURVE",
"499 414 OFFCURVE",
"398 449 CURVE SMOOTH",
"352 465 OFFCURVE",
"255 485 OFFCURVE",
"255 551 CURVE SMOOTH",
"255 609 OFFCURVE",
"312 639 OFFCURVE",
"371 639 CURVE SMOOTH",
"450 639 OFFCURVE",
"537 604 OFFCURVE",
"553 486 CURVE",
"610 486 LINE",
"610 705 LINE",
"545 705 LINE",
"545 659 LINE SMOOTH",
"545 653 OFFCURVE",
"541 651 OFFCURVE",
"537 651 CURVE SMOOTH",
"533 651 OFFCURVE",
"529 653 OFFCURVE",
"528 654 CURVE",
"484 682 OFFCURVE",
"424 710 OFFCURVE",
"322 710 CURVE SMOOTH",
"152 710 OFFCURVE",
"45 647 OFFCURVE",
"45 519 CURVE SMOOTH",
"45 373 OFFCURVE",
"163 333 OFFCURVE",
"270 294 CURVE SMOOTH",
"339 269 OFFCURVE",
"428 238 OFFCURVE",
"428 165 CURVE SMOOTH",
"428 83 OFFCURVE",
"360 61 OFFCURVE",
"290 61 CURVE SMOOTH",
"211 61 OFFCURVE",
"111 96 OFFCURVE",
"95 214 CURVE",
"38 214 LINE",
"38 -5 LINE",
"103 -5 LINE",
"103 41 LINE SMOOTH",
"103 47 OFFCURVE",
"107 49 OFFCURVE",
"111 49 CURVE SMOOTH",
"115 49 OFFCURVE",
"119 47 OFFCURVE",
"120 46 CURVE",
"164 18 OFFCURVE",
"237 -10 OFFCURVE",
"339 -10 CURVE SMOOTH"
);
},
{
closed = 1;
nodes = (
"402 775 OFFCURVE",
"431 808 OFFCURVE",
"431 850 CURVE SMOOTH",
"431 892 OFFCURVE",
"402 926 OFFCURVE",
"355 926 CURVE SMOOTH",
"308 926 OFFCURVE",
"280 892 OFFCURVE",
"280 850 CURVE SMOOTH",
"280 808 OFFCURVE",
"308 775 OFFCURVE",
"355 775 CURVE SMOOTH"
);
}
);
width = 677;
}
);
leftKerningGroup = S;
note = Sdotaccent;
rightKerningGroup = S;
unicode = 1E60;
},
{
glyphname = Sdotbelow;
lastChange = "2015-12-01 13:46:17 +0000";
layers = (
{
layerId = "9C69E37B-FF92-47DE-801E-679C7E50BD15";
name = Bold;
paths = (
{
closed = 1;
nodes = (
"506 -10 OFFCURVE",
"639 46 OFFCURVE",
"639 201 CURVE SMOOTH",
"639 367 OFFCURVE",
"499 414 OFFCURVE",
"398 449 CURVE SMOOTH",
"352 465 OFFCURVE",
"255 485 OFFCURVE",
"255 551 CURVE SMOOTH",
"255 609 OFFCURVE",
"312 639 OFFCURVE",
"371 639 CURVE SMOOTH",
"450 639 OFFCURVE",
"537 604 OFFCURVE",
"553 486 CURVE",
"610 486 LINE",
"610 705 LINE",
"545 705 LINE",
"545 659 LINE SMOOTH",
"545 653 OFFCURVE",
"541 651 OFFCURVE",
"537 651 CURVE SMOOTH",
"533 651 OFFCURVE",
"529 653 OFFCURVE",
"528 654 CURVE",
"484 682 OFFCURVE",
"424 710 OFFCURVE",
"322 710 CURVE SMOOTH",
"152 710 OFFCURVE",
"45 647 OFFCURVE",
"45 519 CURVE SMOOTH",
"45 373 OFFCURVE",
"163 333 OFFCURVE",
"270 294 CURVE SMOOTH",
"339 269 OFFCURVE",
"428 238 OFFCURVE",
"428 165 CURVE SMOOTH",
"428 83 OFFCURVE",
"360 61 OFFCURVE",
"290 61 CURVE SMOOTH",
"211 61 OFFCURVE",
"111 96 OFFCURVE",
"95 214 CURVE",
"38 214 LINE",
"38 -5 LINE",
"103 -5 LINE",
"103 41 LINE SMOOTH",
"103 47 OFFCURVE",
"107 49 OFFCURVE",
"111 49 CURVE SMOOTH",
"115 49 OFFCURVE",
"119 47 OFFCURVE",
"120 46 CURVE",
"164 18 OFFCURVE",
"237 -10 OFFCURVE",
"339 -10 CURVE SMOOTH"
);
},
{
closed = 1;
nodes = (
"388 -216 OFFCURVE",
"417 -183 OFFCURVE",
"417 -141 CURVE SMOOTH",
"417 -99 OFFCURVE",
"388 -64 OFFCURVE",
"341 -64 CURVE SMOOTH",
"294 -64 OFFCURVE",
"265 -99 OFFCURVE",
"265 -141 CURVE SMOOTH",
"265 -183 OFFCURVE",
"294 -216 OFFCURVE",
"341 -216 CURVE SMOOTH"
);
}
);
width = 677;
}
);
leftKerningGroup = S;
note = Sdotbelow;
rightKerningGroup = S;
unicode = 1E62;
},
{
glyphname = Germandbls;
lastChange = "2015-12-01 13:46:13 +0000";
layers = (
{
layerId = "9C69E37B-FF92-47DE-801E-679C7E50BD15";
name = Bold;
paths = (
{
closed = 1;
nodes = (
"709 -10 OFFCURVE",
"777 92 OFFCURVE",
"777 210 CURVE SMOOTH",
"777 311 OFFCURVE",
"710 380 OFFCURVE",
"556 406 CURVE",
"695 548 LINE",
"670 625 OFFCURVE",
"573 710 OFFCURVE",
"403 710 CURVE SMOOTH",
"193 710 OFFCURVE",
"96 630 OFFCURVE",
"96 491 CURVE SMOOTH",
"96 88 LINE SMOOTH",
"96 62 OFFCURVE",
"80 48 OFFCURVE",
"42 48 CURVE SMOOTH",
"10 48 LINE",
"10 0 LINE",
"300 0 LINE",
"300 541 LINE SMOOTH",
"300 607 OFFCURVE",
"335 640 OFFCURVE",
"393 640 CURVE SMOOTH",
"461 640 OFFCURVE",
"488 597 OFFCURVE",
"497 547 CURVE",
"343 381 LINE",
"343 346 LINE",
"459 346 LINE SMOOTH",
"534 346 OFFCURVE",
"573 290 OFFCURVE",
"573 210 CURVE SMOOTH",
"573 120 OFFCURVE",
"536 58 OFFCURVE",
"472 58 CURVE SMOOTH",
"442 58 OFFCURVE",
"408 62 OFFCURVE",
"374 70 CURVE",
"374 0 LINE",
"406 -7 OFFCURVE",
"441 -10 OFFCURVE",
"476 -10 CURVE SMOOTH"
);
}
);
width = 810;
}
);
note = uni1E9E;
unicode = 1E9E;
},
{
glyphname = Schwa;
lastChange = "2015-12-01 13:46:13 +0000";
layers = (
{
layerId = "9C69E37B-FF92-47DE-801E-679C7E50BD15";
name = Bold;
paths = (
{
closed = 1;
nodes = (
"632 -10 OFFCURVE",
"736 137 OFFCURVE",
"736 350 CURVE SMOOTH",
"736 588 OFFCURVE",
"602 710 OFFCURVE",
"367 710 CURVE SMOOTH",
"155 710 OFFCURVE",
"44 588 OFFCURVE",
"29 443 CURVE",
"99 443 LINE",
"125 571 OFFCURVE",
"202 620 OFFCURVE",
"323 620 CURVE SMOOTH",
"458 620 OFFCURVE",
"523 499 OFFCURVE",
"523 351 CURVE SMOOTH",
"523 209 OFFCURVE",
"480 85 OFFCURVE",
"375 85 CURVE SMOOTH",
"269 85 OFFCURVE",
"242 198 OFFCURVE",
"242 246 CURVE",
"555 246 LINE",
"555 338 LINE",
"28 338 LINE",
"28 291 LINE SMOOTH",
"28 125 OFFCURVE",
"122 -10 OFFCURVE",
"374 -10 CURVE SMOOTH"
);
}
);
width = 764;
}
);
note = uni018F;
unicode = 018F;
},
{
glyphname = T;
lastChange = "2015-12-01 13:46:13 +0000";
layers = (
{
layerId = "9C69E37B-FF92-47DE-801E-679C7E50BD15";
name = Bold;
paths = (
{
closed = 1;
nodes = (
"569 0 LINE",
"569 48 LINE",
"537 48 LINE SMOOTH",
"499 48 OFFCURVE",
"483 62 OFFCURVE",
"483 88 CURVE SMOOTH",
"483 632 LINE",
"609 632 LINE SMOOTH",
"673 632 OFFCURVE",
"688 478 OFFCURVE",
"688 446 CURVE",
"738 446 LINE",
"738 700 LINE",
"20 700 LINE",
"20 446 LINE",
"70 446 LINE",
"70 478 OFFCURVE",
"85 632 OFFCURVE",
"149 632 CURVE SMOOTH",
"275 632 LINE",
"275 88 LINE SMOOTH",
"275 62 OFFCURVE",
"259 48 OFFCURVE",
"221 48 CURVE SMOOTH",
"189 48 LINE",
"189 0 LINE"
);
}
);
width = 758;
}
);
leftKerningGroup = T;
note = T;
rightKerningGroup = T;
unicode = 0054;
},
{
glyphname = Tbar;
lastChange = "2015-12-01 13:46:17 +0000";
layers = (
{
layerId = "9C69E37B-FF92-47DE-801E-679C7E50BD15";
name = Bold;
paths = (
{
closed = 1;
nodes = (
"569 0 LINE",
"569 48 LINE",
"537 48 LINE SMOOTH",
"499 48 OFFCURVE",
"483 62 OFFCURVE",
"483 88 CURVE SMOOTH",
"483 632 LINE",
"609 632 LINE SMOOTH",
"673 632 OFFCURVE",
"688 478 OFFCURVE",
"688 446 CURVE",
"738 446 LINE",
"738 700 LINE",
"20 700 LINE",
"20 446 LINE",
"70 446 LINE",
"70 478 OFFCURVE",
"85 632 OFFCURVE",
"149 632 CURVE SMOOTH",
"275 632 LINE",
"275 88 LINE SMOOTH",
"275 62 OFFCURVE",
"259 48 OFFCURVE",
"221 48 CURVE SMOOTH",
"189 48 LINE",
"189 0 LINE"
);
},
{
closed = 1;
nodes = (
"617 266 LINE",
"617 353 LINE",
"142 353 LINE",
"142 266 LINE"
);
}
);
width = 758;
}
);
leftKerningGroup = T;
note = Tbar;
rightKerningGroup = T;
unicode = 0166;
},
{
glyphname = Tcaron;
lastChange = "2015-12-01 13:46:17 +0000";
layers = (
{
layerId = "9C69E37B-FF92-47DE-801E-679C7E50BD15";
name = Bold;
paths = (
{
closed = 1;
nodes = (
"569 0 LINE",
"569 48 LINE",
"537 48 LINE SMOOTH",
"499 48 OFFCURVE",
"483 62 OFFCURVE",
"483 88 CURVE SMOOTH",
"483 632 LINE",
"609 632 LINE SMOOTH",
"673 632 OFFCURVE",
"688 478 OFFCURVE",
"688 446 CURVE",
"738 446 LINE",
"738 700 LINE",
"20 700 LINE",
"20 446 LINE",
"70 446 LINE",
"70 478 OFFCURVE",
"85 632 OFFCURVE",
"149 632 CURVE SMOOTH",
"275 632 LINE",
"275 88 LINE SMOOTH",
"275 62 OFFCURVE",
"259 48 OFFCURVE",
"221 48 CURVE SMOOTH",
"189 48 LINE",
"189 0 LINE"
);
},
{
closed = 1;
nodes = (
"429 775 LINE",
"592 960 LINE",
"565 990 LINE",
"423 887 LINE SMOOTH",
"406 875 OFFCURVE",
"391 866 OFFCURVE",
"379 866 CURVE SMOOTH",
"368 866 OFFCURVE",
"352 875 OFFCURVE",
"335 887 CURVE SMOOTH",
"193 990 LINE",
"166 960 LINE",
"329 775 LINE"
);
}
);
width = 758;
}
);
leftKerningGroup = T;
note = Tcaron;
rightKerningGroup = T;
unicode = 0164;
},
